<?xml version="1.0" encoding="UTF-8"?> <svg xmlns="http://www.w3.org/2000/svg" width="725" height="500"><path d="M474 326.7 326.3 70.3l106-60.8 183.4 317.2H474m-393-36 106-61.2 56 97.2H101.7l-20.6-36m208 199.6h30.2v-122H289v122zm378 2.8c-33.8 0-54-17.4-55.1-42h31.8c0 7.8 4.8 19 25.3 19.4 13.7 0 20.2-8 20.2-14.1-.8-9.6-13-10.4-25.8-12.5-12.9-2-23.8-4.4-31.8-8.5a32.7 32.7 0 0 1-17-29.3c0-21.8 19-39 50.4-39 30.6 0 50 16 52 39.8h-30.7c-.3-6.4-1.5-16.6-19.6-16.6-12.2 0-20.3 2.5-21 11 0 12.5 25.4 11.6 45.1 16.8 19 4.8 31 16.6 31 33 0 30.4-24.5 42-54.8 42M205.2 182l106-61.1 118.9 205.9H319V357h-30v-30.3L205.1 182m2.8 311.2a63 63 0 1 1 0-126.1 62 62 0 0 1 35.9 10.8v-51.1H274v163.6h-30.2v-8.1a65.3 65.3 0 0 1-36 11zm-34.7-63.3a35.3 35.3 0 0 0 70.6 0c0-19-16.2-35.1-35-35.1a35.8 35.8 0 0 0-35.6 35.1m257.6-103h29.7v163.5H431v-8.1a63.6 63.6 0 0 1-99.5-52.4 62.9 62.9 0 0 1 63.2-62.8c13.7 0 25.7 3.6 36.3 10.8v-51zm-70.2 103c0 19 16.2 34.7 34.7 34.7a35.4 35.4 0 0 0 35.5-34.7c0-19-16.2-35.1-35.5-35.1a35.6 35.6 0 0 0-34.7 35.1M534 493.1a63 63 0 1 1 0-126.1 61 61 0 0 1 36 10.8v-9.7h30v122.2h-30v-8.1a63.3 63.3 0 0 1-36 11zm-34-63.3c0 19 16.2 34.7 35.1 34.7a35 35 0 0 0 34.7-34.7c0-19-15.8-35.1-34.7-35.1-18.9 0-35 16.2-35 35.1m-466.7 0a35.4 35.4 0 0 0 70.6 0c0-19-16.2-35.1-35.5-35.1-19 0-35.1 16.2-35.1 35.1zm34.2 63.3a63 63 0 1 1 0-126.1 64 64 0 0 1 36.4 10.8v-9.7h29.7v122.2H104v-8.1a64.6 64.6 0 0 1-36.4 11"></path></svg> 