<?xml version="1.0" encoding="UTF-8"?> <svg xmlns="http://www.w3.org/2000/svg" xml:space="preserve" width="1000" height="543"> <g transform="matrix(8.32057 0 0 -8.32057 -614.32 6608.85)"> <path fill="#afafaf" d="M138.6 729.03c-17.07 0-30.96 14.63-30.96 32.62 0 17.98 13.89 32.61 30.96 32.61a29.6 29.6 0 0 0 18.75-6.67 33.1 33.1 0 0 0 10.47-15.24.38.38 0 0 0-.38-.39h-14.17a.36.36 0 0 0-.3.17 17.23 17.23 0 0 1-14.37 7.97c-9.65 0-17.5-8.28-17.5-18.45s7.85-18.44 17.5-18.44c5.74 0 11.11 2.99 14.38 7.99.06.1.18.16.3.16h14.17c.12 0 .23-.06.3-.16a.4.4 0 0 0 .05-.35 33.1 33.1 0 0 0-10.45-15.15 29.65 29.65 0 0 0-18.75-6.67"></path> <path fill="#323232" d="M77.58 767.94a2.25 2.25 0 0 0 1.18-1.24c.12-.29.17-.59.17-.91v-1.74c0-.24 0-.34-.22-.34h-1.6c-.23 0-.23.12-.23.29v1.7c0 .12-.05.23-.13.31a.4.4 0 0 1-.3.13h-.14a.4.4 0 0 1-.3-.13.44.44 0 0 1-.12-.31v-8.38c0-.13.04-.23.12-.32a.4.4 0 0 1 .3-.13h.14a.4.4 0 0 1 .3.13c.08.09.13.2.13.32v2.52c0 .17.04.26.22.26h1.6c.17 0 .23-.06.23-.33v-2.55a2.35 2.35 0 0 0-1.35-2.15 2.02 2.02 0 0 0-.86-.18h-.67c-.3 0-.6.06-.86.18a2.22 2.22 0 0 0-1.18 1.24c-.12.29-.18.6-.18.91v8.57a2.36 2.36 0 0 0 1.36 2.15c.27.12.55.19.86.19h.67c.3 0 .59-.07.86-.19m7.78-12.66c.02-.18-.05-.26-.21-.26h-1.6c-.16 0-.25.08-.27.26l-.14 2h-1.1l-.13-2c-.03-.18-.11-.26-.27-.26h-1.6c-.16 0-.23.08-.2.26l1.31 12.46c.02.17.12.26.28.26h2.32c.17 0 .26-.1.29-.26zM83 759.36l-.34 5.02h-.14l-.33-5.02zm8.95-4.08c.04-.18-.02-.26-.17-.26h-1.6a.33.33 0 0 0-.2.07.36.36 0 0 0-.14.19l-1.28 4.54v-4.62c-.04-.12-.12-.18-.25-.18h-1.56c-.17 0-.25.08-.25.26v12.46c0 .17.08.26.25.26h2.63a2 2 0 0 0 .87-.19 2.27 2.27 0 0 0 1.18-1.24c.11-.28.17-.59.17-.91v-3.02a2.33 2.33 0 0 0-1.21-2.08zm-3.4 7h.57a.4.4 0 0 1 .3.14c.08.08.12.19.12.31v2.84c0 .12-.04.23-.12.31a.4.4 0 0 1-.3.13h-.56Zm8.15 5.66a2.25 2.25 0 0 0 1.18-1.24c.12-.29.18-.59.18-.91v-1.2c0-.18-.08-.34-.23-.34H96.3c-.17 0-.3.1-.3.27v1.18c0 .12-.04.23-.12.31a.4.4 0 0 1-.3.13h-.14a.4.4 0 0 1-.3-.13.44.44 0 0 1-.13-.31v-8.38c0-.13.04-.23.13-.32a.4.4 0 0 1 .3-.13h.14a.4.4 0 0 1 .3.13c.08.09.12.2.12.32v3.3h-.5v2.11h2.31c.17 0 .25-.09.25-.26v-5.25a2.37 2.37 0 0 0-1.36-2.15 2.02 2.02 0 0 0-.86-.18h-.67c-.3 0-.59.06-.86.18a2.23 2.23 0 0 0-1.18 1.24c-.12.29-.17.6-.17.91v8.57a2.35 2.35 0 0 0 1.35 2.15c.27.12.56.19.86.19h.67c.3 0 .6-.07.86-.19m7.7-10.72a2.36 2.36 0 0 0-1.36-2.15 2.04 2.04 0 0 0-.87-.18h-.66c-.3 0-.6.06-.87.18a2.26 2.26 0 0 0-1.17 1.24c-.12.29-.18.6-.18.91v8.57a2.35 2.35 0 0 0 .65 1.65 2.19 2.19 0 0 0 1.57.69h.66a2.25 2.25 0 0 0 2.04-1.43c.12-.29.18-.59.18-.91zm-2.07 8.48c0 .12-.04.23-.12.31a.4.4 0 0 1-.3.13h-.14a.4.4 0 0 1-.3-.13.44.44 0 0 1-.12-.31v-8.38c0-.13.04-.23.12-.32a.4.4 0 0 1 .3-.13h.14a.4.4 0 0 1 .3.13c.08.09.12.2.12.32zm26.99 2.24a2.24 2.24 0 0 0 1.18-1.24c.11-.29.17-.59.17-.91v-1.15c0-.17 0-.33-.23-.33h-1.6c-.18 0-.23.01-.23.18v1.2c0 .13-.04.24-.12.32a.4.4 0 0 1-.3.13h-.14a.4.4 0 0 1-.3-.13.44.44 0 0 1-.12-.31V764a.9.9 0 0 1 .07-.35c.03-.1.1-.2.2-.3l2.3-1.82c.18-.17.3-.35.36-.53.05-.18.09-.38.11-.6v-3.19a2.35 2.35 0 0 0-1.35-2.15 2.02 2.02 0 0 0-.87-.18h-.66c-.3 0-.6.06-.87.18a2.23 2.23 0 0 0-1.17 1.24c-.12.29-.18.6-.18.91v2.24c0 .18.07.34.23.34l1.5-.02c.17 0 .33-.08.33-.26v-2.2c0-.13.04-.23.12-.32a.4.4 0 0 1 .3-.13h.14a.4.4 0 0 1 .3.13c.08.09.12.2.12.32v2.44c0 .16-.03.3-.07.43a.72.72 0 0 1-.2.33l-2.28 1.84c-.17.17-.3.35-.38.52-.07.17-.11.4-.11.69v2.22a2.35 2.35 0 0 0 1.35 2.15c.27.12.56.19.87.19h.66c.3 0 .6-.07.87-.19m18.82.01a2.23 2.23 0 0 0 1.18-1.24c.12-.29.18-.59.18-.91v-1.15c0-.17 0-.33-.23-.33h-1.6c-.18 0-.23.01-.23.18v1.2c0 .13-.05.24-.13.32a.4.4 0 0 1-.3.13h-.14a.4.4 0 0 1-.3-.13.44.44 0 0 1-.12-.31V764c.01-.14.04-.25.07-.35.04-.1.1-.2.2-.3l2.3-1.82c.19-.17.3-.35.36-.53.05-.18.1-.38.12-.6v-3.19a2.35 2.35 0 0 0-1.36-2.15 2.02 2.02 0 0 0-.86-.18h-.67c-.3 0-.6.06-.86.18a2.22 2.22 0 0 0-1.18 1.24c-.12.29-.18.6-.18.91v2.24c0 .18.07.34.23.34l1.5-.02c.18 0 .33-.08.33-.26v-2.2c0-.13.04-.23.13-.32a.4.4 0 0 1 .3-.13h.14a.4.4 0 0 1 .3.13c.07.09.12.2.12.32v2.44l-.07.43a.73.73 0 0 1-.21.33l-2.27 1.84c-.18.17-.3.35-.38.52-.08.17-.12.4-.12.69v2.22a2.35 2.35 0 0 0 1.36 2.15c.27.12.56.19.86.19h.67c.3 0 .6-.07.86-.19m-11.22-10.71a2.36 2.36 0 0 0-1.36-2.15 2.03 2.03 0 0 0-.86-.18h-.67c-.3 0-.6.06-.86.18a2.27 2.27 0 0 0-1.18 1.24c-.12.29-.17.6-.17.91v8.57a2.36 2.36 0 0 0 1.35 2.15c.27.12.56.19.86.19h.67a2.23 2.23 0 0 0 2.04-1.43c.12-.29.18-.59.18-.91zm-2.06 8.48c0 .12-.04.23-.12.31a.4.4 0 0 1-.3.13h-.14a.4.4 0 0 1-.3-.13.44.44 0 0 1-.13-.31v-8.38c0-.13.04-.23.13-.32a.4.4 0 0 1 .3-.13h.14a.4.4 0 0 1 .3.13c.08.09.12.2.12.32zm8.39 2.04v-10.52a2.38 2.38 0 0 0-1.35-2.15 2.03 2.03 0 0 0-.87-.18h-.67a2.24 2.24 0 0 0-2.04 1.43c-.11.28-.17.58-.17.9v10.52c0 .17.08.26.24.26h1.57c.16 0 .25-.09.25-.26v-10.42c0-.13.04-.23.12-.32a.4.4 0 0 1 .3-.13h.14a.4.4 0 0 1 .3.13c.08.09.12.2.12.32v10.42c0 .17.08.26.25.26H143c.17 0 .25-.09.25-.26m15.32 0v-1.65c0-.18-.09-.26-.25-.26h-1.25v-10.55c0-.18-.08-.26-.25-.26h-1.56a.24.24 0 0 0-.17.07.25.25 0 0 0-.08.19v10.55h-1.23c-.16 0-.24.08-.24.26v1.65c0 .17.08.26.24.26h4.54c.16 0 .25-.09.25-.26m5.19-10.81v-1.65c0-.18-.08-.26-.25-.26h-3.82c-.16 0-.24.08-.24.26v12.46c0 .17.08.26.24.26h3.82c.17 0 .25-.09.25-.26v-1.65c0-.18-.08-.26-.25-.26h-2v-2.67h1.74c.16 0 .24-.09.24-.26v-1.65c0-.18-.08-.26-.24-.26h-1.75v-3.8h2.01c.17 0 .25-.1.25-.26m6.93-1.65c.03-.18-.02-.26-.18-.26h-1.6a.33.33 0 0 0-.2.07.37.37 0 0 0-.13.19l-1.29 4.54v-4.62c-.03-.12-.12-.18-.24-.18h-1.57c-.16 0-.25.08-.25.26v12.46c0 .17.09.26.25.26h2.64c.3 0 .6-.06.86-.19a2.27 2.27 0 0 0 1.18-1.24c.12-.28.18-.59.18-.91v-3.02a2.32 2.32 0 0 0-1.22-2.08zm-3.4 7h.57a.4.4 0 0 1 .3.14c.08.08.12.19.12.31v2.84c0 .12-.04.23-.12.31a.4.4 0 0 1-.3.13h-.57zm10.01-7c.04-.18-.02-.26-.17-.26h-1.6a.32.32 0 0 0-.2.07.37.37 0 0 0-.14.19l-1.28 4.54v-4.62c-.04-.12-.12-.18-.25-.18h-1.56c-.17 0-.25.08-.25.26v12.46c0 .17.08.26.25.26h2.63c.31 0 .6-.06.87-.19a2.27 2.27 0 0 0 1.18-1.24c.11-.28.17-.59.17-.91v-3.02a2.32 2.32 0 0 0-1.21-2.08zm-3.4 7h.57a.4.4 0 0 1 .3.14c.08.08.12.19.12.31v2.84c0 .12-.04.23-.12.31a.4.4 0 0 1-.3.13h-.56zm9.68-7c.03-.18-.04-.26-.2-.26h-1.6c-.16 0-.25.08-.27.26l-.14 2h-1.1l-.13-2c-.03-.18-.12-.26-.27-.26h-1.6c-.16 0-.23.08-.21.26l1.32 12.46c.02.17.12.26.28.26h2.32c.17 0 .26-.1.29-.26zm-2.35 4.08-.34 5.02h-.14l-.33-5.02zm5.57-4.08c0-.18-.08-.26-.24-.26h-1.57c-.16 0-.25.08-.25.26v12.46c0 .17.09.26.25.26h1.57c.16 0 .24-.1.24-.26zm7.22 12.46v-12.46c0-.18-.09-.26-.25-.26h-1.13a.33.33 0 0 0-.2.07c-.06.05-.1.1-.13.17l-1.86 6.14v-6.12c0-.18-.09-.26-.25-.26h-1.57c-.16 0-.24.08-.24.26v12.46c0 .17.08.26.24.26h1.16c.07 0 .14-.03.2-.08.07-.05.12-.1.14-.16l1.83-5.96v5.94c0 .17.08.26.25.26h1.56c.16 0 .25-.09.25-.26"></path> </g> </svg> 