<?xml version="1.0" encoding="UTF-8"?> <svg xmlns="http://www.w3.org/2000/svg" viewBox="0 0 805 227"><path d="m762 88v25h6c10 0 14-5 14-13 0-6-3-12-15-12zm26 57c-7-9-14-18-19-27h-7v22l10 1v4l-12-1h-7l-12 1v-4l11-1v-52l-11-1v-4l13 1h15c13 0 24 5 24 17 0 8-6 13-13 15 6 9 11 17 18 25h7v4zm-147-57-11-1v-4l13 1h19v3l-11 1v52h11v4h-32v-3l11-1zm-25 0-20 57h-7l-20-57-8-1v-3h29v3l-10 1 15 46 15-46-10-1v-4l13 1h10v3zm-278 52v-52l-11-1v-4l12 1h31v-3h5v17h-5l-1-9h-21v23h15l1-7h4v18h-4l-1-6h-15v18l1 5h14l8-1c1-1 3-4 5-12h4l-2 17h-34l-17 1v-4zm153-11c0 11-9 17-20 17-6 0-11-2-15-4l-1 4h-4v-20h4l2 9c3 4 9 6 14 6 7 0 10-4 10-10 0-14-28-14-28-33 0-10 8-15 18-15l12 1 1-4h4v18h-4l-2-8c-3-2-6-3-10-3-6 0-10 3-10 9 0 14 29 14 29 33zm-88 11v-52l-11-1v-4l12 1h20v3l-11 1v51l8 1h3c6 0 7-1 8-2s3-4 5-13h4l-1 19h-32l-16 1v-4zm111 0v-52l-11-1v-4l14 1h29l1-4h4v18h-4l-1-10h-21v23h15l1-7h4v19h-4l-1-7h-15v19l1 4 8 1h7c5 0 7-1 8-2s3-4 4-11h5l-2 17h-36l-16 1v-4zm173 0v-52l-11-1v-4l13 1h30l1-3h4v17h-4l-2-9h-21v23h15l1-7h4v18h-4l-1-6h-15v18l1 5h14l8-1 4-12h4l-2 17h-34l-16 1v-4z" fill="#939598"></path><path d="m71 106c3-2 5-3 4-6h-1l-5 4h-3c13-8-5-10-6 6l-2 1v-7l2-3c1-1-1-3-2-1-2 5-6 7-10 10-4-1-7-6-8-9-4-3-11 2-14-5-4-8-12 22-12-13l-14-9v-2c2-5 11-3 15-3 5 0-1-10 6-15 2-2 3-9-1-10-3 1-3 1-3 4-1 4-5 9-8 12h-1c-7-3-8-14-2-18v1c-3 5-4 11 1 15 0 0 0 1 0 0 6-5 9-8 6-16-2 1-3 4-4 7l-1 1c-2-5 5-9 3-11-4-1-9-3-11-7 3-5 9-7 14-8-2-6-5-14-3-20h3c10 7 4 1 14-4 2 0 5 7 6 8 3 5 8-2 11-4 3-4 8 4 10 6l4-3c1-3 3-7 5-7l5 2c2 1 5 5 6 2 4-5 14-2 18 3h1c2-3 7-2 10-2 1 0 2 0 3-2 4-7 10-1 14 6h-1c-2-1-12-9-11-3 1 4 1 11 6 12v1c-4-2-9 0-13 2v2c4 6 11 8 17 5 5-3 10 2 13 5 4 5-3 10-5 15v-4c3-4 6-14-2-10-1 1-2-2-2-3-2-4-6 3-8 3-1 4-2 8-1 11l1-1 2-7h1l2 1-5 9-1 1-2-1-3-6c-2-12-6-13-13-21 3-2 7-2 9-5l2-3c2-6-12-9-13-1 0 1-1 6 1 4l6-4c-1 4-5 6-8 8-1 1-1 1-2-1 1-8-1-12-9-15-4 1-1 8-1 10 0 3 1 5 4 4 4-1-2-7-2-9 3 1 9 10 5 12-7 1-16 1-17 10 7-1 12-1 16-7l3-1c5 3 10 8 13 14l-4-1-2-4c-1-3-4 2-5-1l-1-3c-2-5-8 2-8 5-2 1-2 11 2 14l11 4h1l-5 4-1-1c-1-1-5-6-7-4 0 1-1 6-2 5-4-3-7-3-11-3-6 2 0 9 3 10l4 3c6-3-4-6-5-8v-1c4-1 11 10 12 6l2-5v8l-3 1-8 1c-2 1-5 2-7 0l6-1c-3-4-7-2-10 0s1 6 4 5h4l6-2h2l-1 2-5 3-1 1 2 1c3 1 9 4 10-2 0 0 1-7 3-4l5 10c1 1 0 1-1 1l-12-1c-4-1-15-9-15-1 2 4 3 13 9 12v-1l-4-8h1l6 11c-5 1-9-2-14-4l-1-1h1c9 2-9-9-8-4l2 6c-9-1-9-2-9-10 0-3 10 1 12 2 1 0 5 4 4 1 0-5-14-6-14-9 1-3 2-6 1-8l1-1h1c1 6 7 14 14 9l-2-1-3-1c-3-1-4-4-2-7l3-14h1l7-1c2 0 4-2 4-3l4-4h-4v-9c-2-3-6 3-6 5l-1 7 3-2h2c-13 10-4 0-6-6l-5-10c-3-2-6 7-6 11l-2 1v-1c1-3 2-7-1-9-10 7-1 8-3 18h-1l-1-6c-2-3-4-7-3-9l5-4c1-2 0-3 2-4 1-1 3-3 4-2 3 1 14 4 15 0 1-2 1-1 3-1 5-2 4-7 4-11-1-1-1-6-3-4l-5 8h-1c-3-1-5-3-4-7l4 5c2 1 3-3 2-5-4-7-13-6-9 3-6 3-8 4-9 8 2 3-3 5-5 5s4-9 4-9c1-3-2-6-4-7-8-5-10 11-5 15 3 3-11 0-14 6h-2c-5-3-10 5-15 2h1l5-2 1-1-2-1h-4c-4 0-14 5-10 8 7 6 11 5 17-1 5-8 7 6 12 4 3 0 6-7 2-6l-2 1h-1v-1l3-2 10-2c-2 6-5 3-6 7-2 6 0 12 6 15 3 2 4 7 6 10-5 3-4 9-7 1-1-5-6-5-9-5-5 1-4 9 0 12l2 2-6 3-4 3c3 5 11 4 15 3 2-1 2-1 3 1 0 1 2 7-1 6-8-2-16-8-25-10l-2 1-7-3h9c-4-4-10-4-15-3-6 2 7 10 9 9h9l16 8v1l-13 2c-5 2 3 7 6 7 5 1 11-2 14-4 2-1 8 2 11 2 7 1 17 2 24 1l-2 5c-1 3 4 1 4 0l1-4 1-2 2 1-2 5c13 4-3-12 13-10 6 0 12 4 16 7 2 2 1 5 1 9-1 2-2 8 0 9 5 2 10 8 15 8v-3l-6-3 1-1 5-2-1-1-5-1v-1h1l5-1-1-1-5-2v-2h1l4-1-6-5h2l5 1-2-2-3-2v-1l5 1-3-4v-1l4 1v-5l6 2-2-3v-1l5 2h1l-1-3h1l7 1v-3l5 2 24-4 9-4c3 7 9 7 14 7 4 0-5-12-8-13-4-6 16-6 10-18l-3 6h-2l-1-1 5-8-1-1c-3 0-6 4-8 7l-5 13c-2 4 7 7 9 8l1 1c-4 2-8-2-11-4l-8 2c-2 0-3 4-6 3-4-1-8-2-12-1-1 1-4 2-3 0l1-5v-2l-2 1c-1 1-3 7-5 5-3-1-6-5-8-8l1-1 4 4 1 3 2-1c2-6-2-9-7-12-4-2-4-2-5 0-4 7-1 13 7 17l-1 1-1 1-10-1c-2-9-1-19 5-26l4-2c2-1 2 7 3 8 4 0 5-8 3-12l1-1c12-2 19-9 30-2-2 2-9 5-8 9l10-2-1 1c-1 1-4 1-3 3l2 1 6-1c5-5 5-6-2-7 0-3 4 0 5 0 2-1 10 1 10-2-2-4-4-6-8-7h-19l-1-1c3-2 8-4 9-8-1-7-6-11-13-11-2-1-1 4-1 5 1 3 6 2 9 4 4 1-3 5-4 6l-1-6c-4 0-1 8-6 9-2 1-1-3-1-4 3-5 1-9 1-14l1-2 8-3c1-1 6 6 7 7h3c0-1 6-6 4-6l-6-1-2-2c1-2 8-3 10-4l1-2-1-3c-1-5-12 0-12 4l6-2 2-2 1 2c-6 3-18 8-24 9v-1l4-6 2-1-2 5h1c3 0 8-7 4-8l-5 1c-9 3-3 14-15 14l-6 1v-2l4-4c3-7-10-6-12-1-5 8-6 12 5 9 0 2-2 9-5 7-5-2-11-7-16-7h-1l1-3-4-9 3 2 1 4 2 3h1l1-2c-3-6 6-23 11-15 1 9 6 3 12 3 3-1 4 12 7 8 1-2 4-8 6-9 4-2 15-5 12 2l1 1c5-2 6-8 13-7 2 1 8 0 7 3-3 8-1 6 4 11l2-1c1-3 8-12 10-8l2 8c5-7 13-11 21-8l-1 2c-4 8-2-6-11 0-7 3-10 12-16 17v-1c1-3 4-8 5-16h-3c-4 5-7 13-7 18 0 1 0 2-2 2l-5 3c1-4 1-7-2-11h-2l-1 1c-4 1-10 20-2 12l4-7c0 4-1 8-5 10-1 3 9 0 10-1 3-1 6-3 7-2l7 2c-6 5-9 3-6 12l1 1c1 0 4-6 6-6 0 2-2 5-4 6v3c2 4 0 9 0 13-3 1-8 4-10 7 4 4 10 3 10-3 2 0 2 6 4 7-1 1-2 4-4 4-1 0-3-1-3 1 1 11-1 8-9 5l-5-1-3-1-33 6-1 1-1 8v1l3-4c1-1 4 0 5 2l-1 3c0 2 2 2 0 6 7 4 4 6 7 11 4 3 5 9 10 8h1c-4 8-8-3-11-7-3 3-5 10-3 14l4 7c2 3 7 4 10 2l2-20c-1-4 6-7 5-11l1-2c0-2-1-2-2-2-4 0 3-6 3-7l1-3c-1-6 5-4 8-5l6 3 3 4c1 1 3 5 1 11v3c1 3 4 2 5 6 1 2 4 9 6 26l-3 14 5 57c4 0 3-1 4-4l1-1 2 6 2 4 1-1 1-7c2 1 2 6 4 7h1v-6l-1-3 1-1 8 10h2c1-3-2-3 0-5l1 1 3 5 2 1v-2l-1-2 1-1c4 2 3 5 8 6v1l-13 1c-5-1-9 3-14 3l-12-1c-8 0-15 2-23 1-18-1-3-8-12-9l-12 1c-5 0-13 2-16-2-9-11-32-24-31-40l7-2 2-1v-1l-1-1c-2 1-5 1-7-1l1-1c3-1 5-1 7-3v-1h-5l-2-2 1-1 3-1 3-2v-1c-2 0-5 0-8-2l1-1 6-1 1-1-1-1c-1 0-6 1-6-1l1-1 6-2c-1-2-6-1-7-3 1-1 7-1 6-4-1 0-6 1-6-1l5-2 1-1-5-2-1-1h1l3-1-2-3c-14-6-23-15-16-30-6-7-9-6-17-7l-2 3 1 6c3 1 9 3 10 7 1 8 10 31-6 32-3 0-7 0-8-3l-3-11c-19 5-38 19-58 18-8-1-18 0-19-9 0-9-1-14 3-24 1-5 6-5 10-7h7l5 1c4 1 3 9 3 12 9 1 14 1 23-4 1-2 6-5 11-8zm105 59 1 5-1 9a341 341 0 0 1 0 29l6 1c7 0 6-4 5-8l-1-11h1l3 12 1 10h17c2-18-7-14-14-26l-14-23c-4-1-10-1-13-4-3-2 1-4-2-6-2-3 6-7 9-7l-1-3c-5 1-12 2-14-5-1-4-4-10-2-14l-4-4-5-4h-2c-1 2-3 2-5 1-3-1-1-6-2-7s-3-3-1-4c5 0 6-6 2-8-2 0-3 0-3-2 0-4 5-2 6 0 2 0 6-6 2-6l-10 3c-3 1-1 3 0 5v1c-2 1-3 2-2 4 1 1 3 2 1 3-2 2 0 9 0 12 1 4-1 10 3 14 5 6 12 12 13 19 0 6 10 5 10 12 2 15-18 13-10 4h1v1l-1 1c0 5 4 3 6 1 6-15-13-14-18-5l3 30 2 5 3-5h1l1 1v5l2 2 1-4h1v4l1 1 3-3 4-3-2 6-1 3h1l2-2 1-1 2 3 1 1 1-3 2 1 1 2h5l1-30 1-13zm66-90c-2 0-9-2-10 1 2 4 12 3 17 3 0-8-11-10-18-9v-14c-1-1-2-8-4-5-4 5-5 8-4 15 2 0 4 1 3-2l1-6 2 1-2 9s3 1 2 2l-5 2c-2-4-10-5-7-6 4-2 4-3 3-8l-1-1c-4-1-7 4-9 6h-2l3-8c1-4 9 1 15-5 3-4-8-7-11-6l-4 3v1l1 1h5l-8 2c-2 1-1-4 0-4 4-3 6-8 3-12v-1l6 3c1 7 7 9 13 11 3 1 2-2 2-4l4-1 8 3-2 1c-1 0-7-3-8 0 3 4 13 7 15 3 0-3 0-7-4-8h-14c0-3-2-6-5-6v-3c2 0 5-2 6-4-7-3-9-8-17-5-1 2 7 4 7 5-3 0-5-1-7-3-2 0-2 0-3 2 0 4 8 5 11 6v1h-5l-9-4c0-1-7-2-4-3l12-8 7 2c3 1 0-8 12-13 4-14 12-8 15 1 0 2-3 4-1 4 9 0 0 12-3 14v1c5 3 10 8 5 13l-1 3c-1 8 2 6-6 9 1 4-1 11-2 13l1 2c6 4 6 7 7 11-4 5-14 0-17 0-2 2 2 6 2 9-1 7-13 1-16-1-3-1-4 1-5 3 0 2-1 2-3 1-6-1-9-8-7-13 2 4 2 10 8 11 3-4 5-11 0-14l1-1c4 1 6 0 8-2 6-2 13-3 19 0zm-150 96c2 0 6 2 4 5h-1c-1-5-7-3-9 0-1 1 1 1 2 2l3 1-1 3-3-2c1-1 2-2 4-1l-2 10c4 1 9-4 10-11 0-3 1-4 4-5 3-2 5-3 4-7 0-2 1-1 2-3l1-1v2c-1 3 0 6 2 8l3 8h1c4 10 12 18 18 25l5 6 1 3 1 2c2 0 5-2 5 1l-2 1h-4v1l7 2-1 1-7-2-3-2v2l1 2h-1c-3-1-5-5-9-3l-10 7c-12-6-13-4-26-1h-18c-4 4-6-1-10 0-5 2-7-4-10-4-15 6-12 0-23 2h-4c-1 0-2 0-1-1 0-2-1-4-3-3-7 7-10 0-17 3 0 1-2 4-4 4l-1-2v-1c4-6 12-5 18-5 3 0 6-3 9-2l3-2v-6c1-1 2-8 3-7 2 2 4 5 3 7-1 1 3 2 2 4l1 2c6 1-1-18-3-20-2-5 2-14 6-16 5 4 6 11 4 16l-1 7 6-8c1-3 10-7 8-2-2 10-4 9-10 14v2c1 1 4-2 5-3l4-2c3-1 1 4 0 4l-4 2-3 2c0 1-2 4-1 5l5-4c2-2 2 1 3 2 3-1 3-8 6-10h1c0 10 1 8 8 4h2v1l-2 2-1 2 5-1h5l4 1c2 1 3 0 4-1l7-3c4-1 7-4 11-6v-4c1-2-1-7 1-9h1v16l-2 1c-8 3-16 7-24 7h-6l-6 1c-7 1-21 2-28 6v1h12c5 3 6 0 9 2s3 2 6 1c4-2 11 0 15 0 5 1 12 3 15-3l7-7c3 1 10-2 11 2l-2 2-6-1c-1 0-8 3-4 4h1l2 2c0 2 9 1 11 1 2-2 4-6 8-5 2 1 4-2 5-2 6-1-9-15-10-18-5-4-8-7-10-13-4-6-6-14-14-7 4 2 6 13 1 12l-3-1c-4-1-10 6-11 4-2-3-4-7-2-11l-4-3v-1c4-5 8-8 11-8zm-83-38c3 12 23 7 32 7l26-9c9-5 21-9 32-6 2 0 3 0 3-2-2-6 0-14-5-18-13-5-27 3-38 9-11 8-34 7-46 0-4-2-4 16-4 19zm196 46-8 1c1-2 9-4 7-6l-9 2c0-1 10-6 7-6l-9 2v-1l9-5v-1l-11 2v-1l5-3v-2l-7 1 1-1 5-4v-1l-6 2v-1l6-4 2-1v-1l-7 2h-1l9-5 5-3 2-3h-2l-13 7h-1l3-5 11-6v-2l-8 5c0-2 7-7 8-8l-7 2c0-2 5-7 6-8v-1l-6 2 5-6v-1l-5 2v-1l4-4c1-2-3-1-4-1l-1-1 4-3-1-1c-2 1-7 1-7 3l-4 9-1 2c-2 1-1 2-2 3-1 2-2 7-5 9l-1-8 1-13h-1c-2 4-1 13-1 17l-1 12c3-2 6-2 9-5 2-2 2-10 6-10-1 2-4 8 0 8-3 4-11 4-12 8 0 8 3 15 8 22 4 7 9 19 17 12zm-88-93c0 3 0 4-4 3-2-1-5-1-7-3-2-3-4 0-6 1v-1c3-9 11 2 11-17 1-4-8 1-10 1l-1 1-3 5-4-7c-2-2 3-5 4-6 7-6-2-16 8-12l6 3c2 0 3 5-1 4-2 0-6-4-8 0-1 2 1 2 1 3 0 2-3 2-3 4v2l10-5c2 0 3 0 4 2zm52-18 2-5 2 1c1 3 6 8 11 9 0-4 2-9-2-12-1-1-6-6-8-3v1l4 5v1c-8-6-9-14-13 3-1 5 5 13 9 9l2-5v-2l-4-4-1 1 1 4-1 1c-2 0-1-2-2-4zm-150-53 3 2 2 6c1 2 4 0 3-2-3-13 4-8 4-14l-1-5c-4-3-10 6-7 10v2l-7-7-3-1c-2 4 1 14 6 19h2v-2zm222 12c5-1 11-3 12-9 1-1 0-2-1-2-3 0-5-2-6 3-2 3-3 7-7 3 20-15-2-16-10-2v2h3c2-3 5-6 9-7v1l-5 3-2 2v1l1 1 2-1 1 4zm-81 0c-2 5-6-3-9-3-3-1-2 6-3 7 1 12 12 5-4 14h-3l-1-3c2-7 3-22 13-22 7-1 6 0 7 7zm6 29c0-3-2-4-4-7-1-3-2-3-4-1-5 5-6 11-5 17l2 2c4-2 1-10 5-10v1l-1 6 1 3c2 5 6-10 6-11zm-137 9c0-6-5-18-9-7-3 3 1 18 5 15 1-2 4-4 4-8zm118 85c-1-6-5-10-9-13h-1l1 12 1 8 2 1c3-2 7-2 6-8zm52-51c-1-4-4-4-7-4-3-1-6-1-7 2l1 1 2 1 2 2-2 1c-3 1-1 5 1 7 5-3 1-7 6-11v1c-2 4-1 9-6 12l2 1c3-1 5-4 6-7v5l2-1zm42-68h-4l-1 1c2 2 6 1 8 2-3 2-6 2-9 0h-1c1 3 6 6 9 6s14 1 9-5c-3-3-5-7-10-6zm2 29c0-5-2-10-7-10l-2 2 2 4 2 4-1 2-2-3-1-3-1 1c-1 4 1 10 6 12 3 1 4-7 4-9zm-217-17c-4 11 9 11 17 11v-1l-8-3c-1 0-3-2-1-2h2l4 3h2v-2c-4-5-8-7-16-6zm102 25-2 13c-5-6-6-13-7-20 0-3 7 1 8 1zm-110 22s0-1 0 0c0-3 2-6 1-9-7 0-4 11-4 16 1 3 4-2 5-3 2-2 7-7 5-11-3-6-5 5-7 7zm203-9c4 0 8 1 9 4-3 1-5-1-7-2h-4c0 4 7 6 9 6h4c5-7-5-16-12-10zm-91-70 1 1-4 6c-2 2 1 4 3 1 2-1 3-4 4-6 2-3 1-11-3-10-4 3-7 8-5 13l2-2zm54 106 1 6 1-1 1-3c1-2 0-14-3-13v2c1 1-2 4-2 5l-1 3v18l2-9zm-149-100v-1h3c1 1 2 0 2-1 3-6-7-4-10-3-6 2 3 8 4 10 4 3 11 1 6-4zm-3 118c0 2-4 1-6 1l-1-1c0-4-2-10 2-10h5l1 2 1 3zm147 79 7 2c2-1 2-5 0-5l-8-1c-4-2-6 3-11 3h-1v3c5 0 9 0 13-2zm15 9c3 0 5-2 8-4 2 0 5 0 5-2s-7-2-8-2h-3l-4 3c-5 3-4 5 2 5zm-76-172 3-2h1l1 4c8 0 7-9 11-11l1 2-5 14h-2c-4-1-10-2-10-7zm56 109c2 0 4-2 4-3l-1-11c-3-1-7 3-9 5v1l5-2v1l-5 6 1 1 2-1 4-3c1 1-1 2-1 3l-3 2c-1 1 0 1 1 2l2-1 3-3v1zm-113-111c0 5-1 9-4 13l-4-12c4-7 3-6 8-1zm7 76c-1 2-8 6-8 3l-2-7c1-4 6-5 9-3zm-20-29-5 4c0 2 1 8 5 7l5-5 3-4c1-2-4-2-5-2-2 1-2 4-3 6l-1-2zm22 122-3-1h3l7-2h6c4 0 7 3 11 0 1 0 5-3 6-2 3 4-11 5-13 5zm-55-89c0 2 0 4 2 5h-5l2-2v-9l-1-1 1-1c3 1 4 0 4 2l2 5v-5c0-2 4-1 5-1l-1 1c-2-1-3 8-4 11l-1-1-4-7-1 1zm97 22-1-6 1-8v-9l1 1c2 8-1 16 0 24 1 3 2 5 0 8l-1-1-3-7zm46-35c-2 0-4-2-4-5l-4 3c0 1 3 3 5 3l3 4c2-3 2-9 0-12l-6-4c-1 1 1 4 3 5 0 1 0 4 3 6zm-132-5h4c3-1 3-3 0-4-4-1-12 0-16 3-3 3 2 4 3 5l1-4c3-3 5-3 9-3v1l-3 1zm9 26v-11h1l5 4h1l-1-7h4c-2 3-1 9-1 12v1l-6-6-1 1 2 4c2 2-3 2-4 2zm59 2c12 1 9-15 6-10l-1 5h-5c-5 0-7 5 0 5zm18-23 1 2 11 8c5 0 6 9 12 9-2-5-7-7-11-11zm-68 75-2-8v-1c-2 2-3 6-3 9l4 9h1zm12-69v3c-1-1-3-2-4-1-2 2 3 2 4 3 5 1 0 8-4 7l-1 1v1l-1-5v-1l2 2 3 1 1-2-4-2c-3-2-2-5 0-6l3-1v-2h1zm-28-83c-5-1-9-1-13 2 1 1 2 2 3 1l17-1 1-2-7-2zm63 81-3 2h-1c1-2 1-6 4-3l3 1c2-2-4-4-5-4-2-1-2-5 1-6 1 0 3 1 4-1h1l-1 4h-1c0-2-5-2-3 0l1 1 3 1c3 2 2 7-1 7zm-4-4-1 2c0 3-7 4-7 0l-1-6-2-1-1-1c2 0 5-2 6 1l1 6c-1 2 3 2 2 0v-5l-1-2v-1c3-1 3-2 3 1zm1 11 1 7 6-2c2-1 4-5 1-6zm-55-15-7 1-3-1c-2 0-4 5-1 4 12 1 9 4 11-4zm70-63-4-1-1-2c1-1-1-6 2-6l3 1c3 2 6 8 0 8zm-26 72-7 4v-3l-1-5c-1-1-3-3 0-3l4-1-1 3 2 6 2-1v-3l1-1zm6-30-1-1c-3-11-1-6 8-5 3 1-5 5-5 6zm113-71c-1-3-3-11-7-8-1 2-3 4 0 5l4 2 3 3zm-140 171c-3 1-5 6-6 8l-1 4c5-2 7-5 8-11zm194-181c-2-2-5-11-8-8-1 2-4 5-1 6 4 0 6 0 8 2zm-223 118-1 6c0 2 4 1 4-1v-7c-2 0-3 1-3 2zm17-59c-9-2-10-11-6-8 2 2 6 5 6 8zm16 52c1 1 1 7 3 6 3 0 1-4 1-6-1-2-4-3-4 0zm66-83-3 4-3 3h-1v-1l5-7h2zm88 46v2h-1l-5-9 1-1 2 1zm10-73s2 1 1 2c-1 0-10 5-9 3 1-1 6-5 8-5zm-75 95c-5 0-4 5 0 5s2-5 0-5zm-116 111-2 1-2 1 1 1h7l1-2h-1zm154-126-1 1 1 1 8 1h1c-2-2-6-2-9-3zm-96-45-4-1v-1s3-5 3-3c0 1 4 6 1 5zm-48 45c2 0 1 1 0 1h-9l1-1zm25-71-8-4-1-1h1c2 1 9 1 8 5zm36 51c1 1-2 7-2 8l-2 2v-1l1-4c1-1 1-5 3-5zm86-26-9-3v-1l9 3h1zm-36 55c-2-3-2-1-4 1-2 1 2 3 3 1zm-57-42-5 6h-1v-1l4-6zm-50-12-5-7v-3l3 6 2 3zm-2 29-2-1h-7l2-1h7zm178-38 6 5v1c-3 0-6-2-7-5zm-128 7-1 1-1-4c-1-2 2-7 2-4zm-33-8 2 10h-1c0-2-4-9-1-10zm149 32 6 5v1l-6-4-1-2zm-100-46 4 1 1 1-1 1-6-1-1-1zm43 9c2 2 3 5 3 7-2-2-4-4-3-7zm-27 150 4-3-2-1s-5 1-4 2zm-51-155 6-3h1l-6 4h-1zm-53 43-1-7 1-2 1 1v8zm115-53c1-2 4-3 6-4l-7 7zm-28 92 1 2 1-1s1-9-1-6zm96 76-8 2c2 2 7 0 8-2zm-120-148c0 3 0 6-2 7l1-8zm114 155h5l2-4h-1l-2 2-4 1zm-16-87 1-4-1-1-1 1-2 3zm-136-34 2-4h1v4l-1 2h-1zm99 32c-3 0-4 4-1 4 2 0 4-4 1-4zm-1 11c0-2-4-3-4-1s4 3 4 1zm-4-11c0 2-4 1-4-1 0-3 4-2 4 1zm0 4c-3 0-2 3 0 4 2-1 2-4 0-4zm-11 79c-6-1 0 6 1 1zm-84-167v-7zm99 77c-2 1-1 2 0 3l1-1z" fill="#53565a"></path></svg> 