<?xml version="1.0" encoding="UTF-8"?> <svg xmlns="http://www.w3.org/2000/svg" viewBox="0 0 1921.4 353.4" fill="#12141a"><path d="M212.7 171.6L339.3 7.8H220.5L105.6 163.4V7.8H0v339.3h105.6V178.9l116.3 168.2h123.2z"></path><path d="M658.2 175.5C658.2 70.3 592.9 0 495.7 0c-98.1 0-172.1 74.6-172.1 173.5s81.7 179.4 190 179.4c42.5 0 87-9.2 127.6-33.4v-83.9c-44 22.3-81.7 29.1-112.2 29.1-46.4 0-88-15.5-101.1-59.1H658v-30.1zm-230.1-36.9c7.3-31 31.4-55.7 66.7-55.7 35.3 0 57.5 20.8 63.8 55.7H428.1zm489.8 208.5H1019V128C1019 51.9 969.7.5 895.2.5c-31.9 0-72.5 8.7-94.3 43.6V7.8h-98.2v339.3h101.1V151.7c0-35.9 24.7-60.1 60-60.1 32.4 0 54.1 23.3 54.1 58.2v197.3zm318.4-90.7L1379.4 7.8H1082v89.6h132l-142.6 249.7h297.8v-90.7zm424-248.6v29.6C1635.2 12.2 1600.8.6 1561.7.6c-95.7 0-166.3 71.3-166.3 177.4s69.1 175.5 164.4 175.5c38.7 0 74.9-11.6 100.6-36.4v30.1h101.1V7.8h-101.2zm-77.9 255.4c-46.4 0-81.7-37.3-81.7-86.3s35.3-85.3 81.7-85.3c46.4 0 81.2 36.8 81.2 85.3s-34.7 86.3-81.2 86.3zm339 36.9a52.4 52.4 0 0 0-52.2-52.8c-29 0-52.2 23.8-52.2 52.8a52.4 52.4 0 0 0 52.2 52.8c29 0 52.2-23.8 52.2-52.8"></path></svg> 