<?xml version="1.0" encoding="UTF-8"?> <svg xmlns="http://www.w3.org/2000/svg" fill="none" height="935" width="1680"><clipPath id="a"><path d="M0 0h1680v935H0z"></path></clipPath><clipPath id="b"><path d="M239.329 110h64.11v64.11h-64.11z"></path></clipPath><clipPath id="c"><path d="M564.426 110h64.11v64.11h-64.11z"></path></clipPath><clipPath id="d"><path d="M889.521 110h64.11v64.11h-64.11z"></path></clipPath><clipPath id="e"><path d="M1214.62 110h64.11v64.11h-64.11z"></path></clipPath><g clip-path="url(#a)"><path d="M0-5.5h1680v945H0z" fill="#085cf0"></path><path clip-rule="evenodd" d="M84.795 139.384h34.726v5.343H84.795zm48.083 6.449v-7.555l-19.481-19.482-3.778 3.778 19.481 19.481-19.481 19.482 3.778 3.777z" fill="#fff" fill-rule="evenodd"></path><g clip-path="url(#b)"><path clip-rule="evenodd" d="M256.275 123.167l24.556 24.555-3.778 3.778-24.555-24.556zm29.44 38.559l5.341-5.342v-27.551h-5.342v27.551h-27.551v5.342z" fill="#fff" fill-rule="evenodd"></path></g><g clip-path="url(#c)"><path clip-rule="evenodd" d="M615.371 126.943l-24.556 24.556-3.777-3.778 24.555-24.555zm-38.562 29.44l5.343 5.343h27.55v-5.343h-27.551v-27.55h-5.342z" fill="#fff" fill-rule="evenodd"></path></g><path clip-rule="evenodd" d="M783.07 139.384h-34.726v5.343h34.726zm-48.083 6.449v-7.555l19.482-19.482 3.777 3.778-19.481 19.481 19.481 19.482-3.777 3.777z" fill="#fff" fill-rule="evenodd"></path><g clip-path="url(#d)"><path clip-rule="evenodd" d="M936.687 160.943l-24.556-24.555 3.778-3.778 24.555 24.556zm-29.44-38.559l-5.342 5.342v27.551h5.343v-27.551h27.551v-5.342z" fill="#fff" fill-rule="evenodd"></path></g><path clip-rule="evenodd" d="M1081.45 166.097v-34.726h5.35v34.726zm6.45-48.083h-7.55l-19.48 19.482 3.77 3.777 19.48-19.481 19.49 19.481 3.77-3.777z" fill="#fff" fill-rule="evenodd"></path><g clip-path="url(#e)"><path clip-rule="evenodd" d="M1227.78 157.166l24.56-24.555 3.78 3.778-24.56 24.555zm38.57-29.438l-5.35-5.344h-27.55v5.343H1261v27.55h5.35z" fill="#fff" fill-rule="evenodd"></path></g><g fill="#fff"><path d="M1399.87 119.35l-4 4.007 19.12 18.698-19.12 18.699 4 4.007 22.71-22.706zm181.25 0l4.01 4.007-19.13 18.698 19.13 18.699-4.01 4.007-22.71-22.706z"></path><path clip-rule="evenodd" d="M436.603 118.014v34.727h-5.342v-34.727zm-6.449 48.083h7.556l19.481-19.481-3.778-3.778-19.481 19.481-19.481-19.481-3.778 3.778z" fill-rule="evenodd"></path><path d="M124.865 325.974H92.809v-8.014h-5.342v13.356h42.74V317.96h-5.342z"></path><path clip-rule="evenodd" d="M105.059 280.563l-16.81 16.81 3.778 3.777 16.81-16.81 16.81 16.81 3.778-3.777-16.811-16.811zm1.107 37.397v-26.712h5.342v26.712zm167.888-13.357V277.89h-5.342v26.713zm1.106 10.685l16.811-16.81-3.778-3.778-16.81 16.81-16.81-16.81-3.778 3.778 16.811 16.81zm12.251 10.685h-32.056v-8.014h-5.342v13.357h42.74v-13.357h-5.342z" fill-rule="evenodd"></path><path d="M617.852 301.932h-42.741v5.343h42.741zm161.959-14.317l-3.793-3.793-16.989 17.016-16.99-17.016-3.793 3.793 17.016 16.989-17.016 16.99 3.793 3.793 16.99-17.016 16.989 17.016 3.793-3.793-17.016-16.99zm159.129 41.03h-6.437l-13.357-13.356h-4.247v-5.343h6.438l12.261 12.261V287l-12.261 12.261h-11.781v16.028h-5.342v-21.371h14.932l13.357-13.356h6.437zM1092.54 287v14.291l5.34 5.343v-26.072h-6.46l-9.81 9.804 3.8 3.793zm12.56 34.406l-7.22-7.212v-.027l-5.34-5.343v.027l-10.92-10.925-4.01-4.007-9.91-9.911-3.77 3.794 6.12 6.117h-6.89v21.37h5.34v-16.028h6.89l17.15 17.123v5.824l-12.26-12.262h-6.44v5.343h4.22l13.36 13.356h6.46v-6.918l3.45 3.472zm162.94-11.46v-5.342a21.637 21.637 0 0 0-5.34-14.187 21.614 21.614 0 0 0-13.35-7.183v-5.343H1244v5.343a21.614 21.614 0 0 0-13.35 7.183 21.595 21.595 0 0 0-5.35 14.187v16.028h13.36v2.671c0 2.125.84 4.164 2.35 5.666a8.009 8.009 0 0 0 11.33 0 8.026 8.026 0 0 0 2.35-5.666v-2.671h13.35v-5.343h-37.39v-10.685c0-4.251 1.68-8.328 4.69-11.333a16.028 16.028 0 0 1 22.67 0c3 3.005 4.69 7.082 4.69 11.333v5.342zm-18.69 13.357a2.684 2.684 0 0 1-2.68 2.671c-.7 0-1.38-.281-1.88-.782a2.642 2.642 0 0 1-.79-1.889v-2.671h5.35zm159.87-18.699c2.64 0 5.23-.783 7.42-2.251a13.334 13.334 0 0 0 4.92-5.994 13.368 13.368 0 0 0-2.89-14.556 13.368 13.368 0 0 0-14.56-2.895 13.311 13.311 0 0 0-5.99 4.919 13.338 13.338 0 0 0-2.25 7.42c0 3.543 1.4 6.94 3.91 9.445 2.5 2.505 5.9 3.912 9.44 3.912zm0-21.37a8.04 8.04 0 0 1 7.41 4.947c.6 1.464.76 3.075.45 4.63-.31 1.554-1.07 2.982-2.19 4.103a8.015 8.015 0 0 1-12.33-1.214 8.02 8.02 0 0 1 .99-10.119 8.043 8.043 0 0 1 5.67-2.347zm10.69 26.712h-21.37c-2.84 0-5.56 1.126-7.56 3.13s-3.13 4.722-3.13 7.555v10.685h5.34v-10.685a5.354 5.354 0 0 1 5.35-5.342h21.37c1.41 0 2.77.563 3.77 1.565a5.312 5.312 0 0 1 1.57 3.777v5.343h-26.71v5.342h32.05v-10.685a10.66 10.66 0 0 0-3.13-7.555c-2-2.004-4.72-3.13-7.55-3.13zm141.82 10.685l23.45-23.454-3.77-3.766-21.9 21.878h-3.77v-3.767l25.67-25.671 7.56 7.56 3.77-3.793-11.33-11.326-31.01 31.013v11.326zm31.41 5.343h-42.74v5.342h42.74zM455.304 301.932h-18.699v-18.699h-5.343v18.699h-18.699v5.343h18.699v18.699h5.343v-18.699h18.699zM87.467 440.439v53.425h13.356v-5.342h-8.014v-42.74h32.056v21.37h-18.699v26.712h5.342l18.699-21.37v-32.055zm24.041 45.412v-13.357h11.594zm175.904-37.399v-5.342h-5.343v5.342h-21.37v-5.342h-5.342v5.342h-8.014v42.741h37.398v-5.343h-32.056v-21.37h37.398v26.713h5.343v-42.741zm2.671 10.686h-37.398v-5.343h37.398z"></path><path d="M268.713 472.494h-10.685v5.343h10.685zm301.056-26.713v42.741h42.74v-5.343h-37.398v-16.028l21.37 5.343 21.37-5.343v21.371h5.343v-42.741zm48.082 16.028l-21.37 5.342-21.37-5.342v-10.685h42.74zm154.534 0v-8.014a13.356 13.356 0 0 0-26.712 0v8.014h-5.343v32.055h5.343v-26.712h26.712v21.37h-21.37v5.342h26.713v-32.055zm-21.37-8.014a8.013 8.013 0 0 1 13.681-5.666 8.013 8.013 0 0 1 2.347 5.666v8.014h-16.028z"></path><path d="M767.042 475.166h-16.027v5.342h16.027zm162.548 0h-16.028v5.342h16.028z"></path><path d="M913.563 461.809v-8.014a8.013 8.013 0 0 1 13.68-5.666 8.014 8.014 0 0 1 2.348 5.666v2.672h5.342v-2.672a13.356 13.356 0 0 0-26.713 0v8.014h-5.342v32.055h5.342v-26.712h26.713v21.37h-21.37v5.342h26.713v-32.055zm170.567-10.685c-2.12 0-4.18.627-5.94 1.801s-3.13 2.843-3.94 4.795a10.693 10.693 0 0 0-.6 6.174 10.676 10.676 0 0 0 14.56 7.787 10.634 10.634 0 0 0 4.8-3.936 10.716 10.716 0 0 0 1.8-5.936c0-2.834-1.13-5.552-3.13-7.555-2-2.004-4.72-3.13-7.55-3.13zm0 16.028c-1.06 0-2.09-.314-2.97-.901s-1.57-1.421-1.97-2.397a5.347 5.347 0 0 1-.3-3.087c.2-1.037.71-1.988 1.46-2.736a5.323 5.323 0 0 1 2.73-1.462 5.346 5.346 0 0 1 5.49 2.272c.58.879.9 1.911.9 2.968 0 1.417-.56 2.776-1.57 3.778a5.333 5.333 0 0 1-3.77 1.565z"></path><path d="M1084.13 440.439a21.659 21.659 0 0 0-21.37 21.37c0 10.819 6.35 17.096 16.02 26.713 1.13 1.095 2.3 2.244 3.5 3.473l1.85 1.869 1.89-1.896c.64-.668 1.26-1.256 1.9-1.87l-3.79-3.82-1.63-1.603c-9.3-9.216-14.4-14.264-14.4-22.866a16.23 16.23 0 0 1 16.03-16.027 16.23 16.23 0 0 1 16.02 16.027c0 7.88-4.35 12.822-12.23 20.703l3.77 3.766c8.46-8.441 13.81-14.505 13.81-24.469a21.695 21.695 0 0 0-6.35-15.027 21.654 21.654 0 0 0-15.02-6.343zm187.68 48.083l-11.78-11.727a20.734 20.734 0 0 0 4.41-12.768c0-4.142-1.23-8.191-3.53-11.635s-5.58-6.129-9.4-7.714a20.948 20.948 0 0 0-28.56 15.263c-.8 4.063-.39 8.273 1.19 12.1a20.948 20.948 0 0 0 7.72 9.399 20.924 20.924 0 0 0 11.63 3.53c2.76.005 5.48-.54 8.02-1.603l-4.25-4.221c-1.23.311-2.5.473-3.77.481a15.627 15.627 0 0 1-15.47-13.211c-.58-3.687.19-7.458 2.15-10.632s4.99-5.542 8.55-6.674c3.55-1.132 7.4-.955 10.83.5a15.61 15.61 0 0 1 7.9 7.433c1.66 3.342 2.07 7.167 1.16 10.785s-3.09 6.789-6.14 8.941l3.85 3.74 11.72 11.78zm126.73-21.371c0 2.114.62 4.18 1.8 5.937 1.17 1.757 2.84 3.126 4.79 3.935s4.1 1.02 6.18.608c2.07-.412 3.97-1.43 5.47-2.924a10.691 10.691 0 0 0-1.62-16.44 10.713 10.713 0 0 0-5.94-1.801c-2.83 0-5.55 1.126-7.55 3.13a10.66 10.66 0 0 0-3.13 7.555zm16.02 0c0 1.057-.31 2.09-.9 2.969a5.318 5.318 0 0 1-2.39 1.967 5.35 5.35 0 0 1-5.83-1.158 5.42 5.42 0 0 1-1.46-2.735c-.2-1.037-.1-2.111.31-3.087.4-.976 1.08-1.811 1.96-2.398s1.91-.9 2.97-.9a5.339 5.339 0 0 1 5.34 5.342z"></path><path d="M1435.13 465.041c-9.56-13.703-19.36-16.588-25.91-16.588-9.35 0-18.7 5.93-26.02 16.749a3.465 3.465 0 0 0-.59 1.95c0 .695.2 1.374.59 1.95 9.43 13.703 19.42 16.748 26.02 16.748a26.264 26.264 0 0 0 16.35-6.143l-3.79-3.794a20.85 20.85 0 0 1-12.56 4.595c-5.18 0-12.95-2.351-20.86-13.356 6.22-8.629 13.6-13.357 20.86-13.357 7.27 0 14.43 4.568 20.87 13.357a46.353 46.353 0 0 1-4.33 5.342l3.76 3.767a52.024 52.024 0 0 0 5.72-7.026c.44-.617.67-1.359.65-2.115s-.29-1.485-.76-2.079zm125.95 2.11c0 2.114.63 4.18 1.81 5.937a10.664 10.664 0 0 0 10.96 4.543c2.08-.412 3.98-1.43 5.48-2.924a10.691 10.691 0 0 0-1.62-16.44 10.713 10.713 0 0 0-5.94-1.801c-2.83 0-5.55 1.126-7.56 3.13-2 2.004-3.13 4.722-3.13 7.555zm16.03 0c0 1.057-.31 2.09-.9 2.969a5.292 5.292 0 0 1-2.4 1.967c-.97.405-2.05.51-3.08.304a5.353 5.353 0 0 1-2.74-1.462 5.42 5.42 0 0 1-1.46-2.735 5.345 5.345 0 0 1 .3-3.087 5.344 5.344 0 0 1 4.94-3.298 5.339 5.339 0 0 1 5.34 5.342z"></path><path d="M1597.68 465.041c-9.56-13.703-19.36-16.588-25.91-16.588-9.35 0-18.7 5.93-26.02 16.749a3.474 3.474 0 0 0 0 3.9c9.43 13.703 19.42 16.748 26.02 16.748a26.264 26.264 0 0 0 16.35-6.143l-3.79-3.794a20.85 20.85 0 0 1-12.56 4.595c-5.18 0-12.95-2.351-20.86-13.356 6.22-8.629 13.6-13.357 20.86-13.357 7.27 0 14.43 4.568 20.86 13.357a45.24 45.24 0 0 1-4.32 5.342l3.76 3.767a52.024 52.024 0 0 0 5.72-7.026c.44-.617.66-1.359.64-2.115a3.43 3.43 0 0 0-.75-2.079zm-1190.459-19.26v48.083h5.449l10.605-10.685h26.686v-5.342h-28.93l-8.468 8.548v-35.261h42.741v32.055h5.342v-37.398z"></path><path d="M444.618 461.809h-21.37v5.343h21.37zM108.836 619.015a10.684 10.684 0 1 0 8.885 16.621 10.685 10.685 0 0 0-8.885-16.621zm0 16.027a5.345 5.345 0 0 1-4.935-3.298 5.342 5.342 0 1 1 4.935 3.298z"></path><path d="M130.181 639.29l5.289-9.59-13.276-24.042H95.481L82.205 629.7l13.276 24.041h26.713l5.396-9.777-4.621-2.671-3.927 7.106H98.633L88.296 629.7l10.337-18.699h20.409L129.38 629.7l-3.82 6.918zm135.861-20.275v16.027h18.699V629.7h-13.356v-10.685z"></path><path d="M271.384 602.987a26.55 26.55 0 0 0-16.882 6.037l3.793 3.82a21.156 21.156 0 0 1 13.089-4.514 21.373 21.373 0 0 1 19.744 13.192 21.37 21.37 0 1 1-41.114 8.178 21.156 21.156 0 0 1 4.514-13.089l-3.82-3.793a26.717 26.717 0 0 0-.315 33.37 26.714 26.714 0 0 0 47.072-22.38 26.713 26.713 0 0 0-26.081-20.821zm322.425 16.028h-5.342v21.37h5.342zm10.686 0h-5.343v21.37h5.343z"></path><path d="M596.481 602.987a26.555 26.555 0 0 0-16.883 6.037l3.794 3.82a21.156 21.156 0 0 1 13.089-4.514 21.37 21.37 0 1 1-21.37 21.37 21.156 21.156 0 0 1 4.514-13.089l-3.82-3.793a26.711 26.711 0 0 0 14.589 42.886 26.715 26.715 0 0 0 30.139-14.33 26.715 26.715 0 0 0-7.36-32.55 26.714 26.714 0 0 0-16.692-5.837zm188.112 18.993l-4.461 4.488a21.371 21.371 0 0 1-10.76 21.921 21.37 21.37 0 1 1-10.343-40.059 21.148 21.148 0 0 1 16.375 7.746l-16.375 16.295-8.468-8.334-3.766 3.793 12.234 12.208 21.37-21.37 2.031-2.031a26.711 26.711 0 0 0-48.356 3.529 26.715 26.715 0 0 0 33.985 34.58 26.71 26.71 0 0 0 16.615-32.766zm147.669 2.377a10.685 10.685 0 0 0-21.37 0h5.342a5.338 5.338 0 0 1 3.298-4.935 5.342 5.342 0 1 1 2.045 10.278h-2.672v5.343h2.672a10.684 10.684 0 0 0 10.685-10.686zm-8.014 16.028h-5.343v5.342h5.343z"></path><path d="M921.577 602.987a26.55 26.55 0 0 0-16.883 6.037l3.793 3.82a21.16 21.16 0 0 1 13.09-4.514 21.37 21.37 0 1 1-21.371 21.37 21.151 21.151 0 0 1 4.515-13.089l-3.82-3.793a26.711 26.711 0 0 0 14.589 42.886 26.715 26.715 0 0 0 30.139-14.33 26.708 26.708 0 0 0-7.361-32.55 26.71 26.71 0 0 0-16.691-5.837zm164.643 13.332l-3.78 3.778 10.56 10.559-27.56-.019v5.364l27.56-.018-10.56 10.558 3.78 3.778 17-17z"></path><path d="M1065.43 611.001h5.343v24.041h-5.343z"></path></g><path d="M1265.37 653.741h-34.72v-48.083h34.72m-2.67 2.672v37.397" stroke="#fff" stroke-miterlimit="10" stroke-width="5.343"></path><path d="M1252.02 613.672h-10.69l-2.67-5.342h16.03zm-5.35 34.727c1.48 0 2.67-1.196 2.67-2.672a2.667 2.667 0 0 0-2.67-2.671 2.674 2.674 0 0 0-2.67 2.671c0 1.476 1.2 2.672 2.67 2.672z" fill="#fff"></path><path d="M1430.59 619.015h-29.38v34.726h29.38z" stroke="#fff" stroke-miterlimit="10" stroke-width="5.343"></path><path d="M1395.87 640.385h-8.02v-34.727h29.39v8.014" stroke="#fff" stroke-miterlimit="10" stroke-width="5.343"></path><path d="M1582.46 635.042a7.83 7.83 0 0 0-5.35 2.031l-10.68-6.064c.04-.436.04-.874 0-1.309a7.497 7.497 0 0 0-.14-1.336l10.82-6.037a7.83 7.83 0 0 0 5.35 2.03c1.58 0 3.13-.47 4.45-1.35a8.02 8.02 0 0 0 2.95-3.597c.61-1.464.76-3.075.46-4.63a8.034 8.034 0 0 0-6.3-6.296 7.995 7.995 0 0 0-4.63.456c-1.47.606-2.72 1.633-3.6 2.951s-1.35 2.867-1.35 4.452c.01.44.05.878.14 1.309l-10.82 6.064a7.83 7.83 0 0 0-5.35-2.03c-2.12 0-4.16.844-5.66 2.347a7.987 7.987 0 0 0-2.35 5.667c0 2.125.84 4.164 2.35 5.666a8.003 8.003 0 0 0 5.66 2.348 7.83 7.83 0 0 0 5.35-2.031l10.9 6.038c-.12.437-.19.884-.22 1.335a8.015 8.015 0 0 0 13.68 5.667 8.038 8.038 0 0 0 2.2-4.103c.3-1.555.15-3.166-.46-4.631a8.016 8.016 0 0 0-7.4-4.947zm0-21.37c.52 0 1.04.157 1.48.45.44.294.78.711.98 1.199.21.488.26 1.025.16 1.544-.11.518-.36.994-.74 1.367-.37.374-.84.628-1.36.731s-1.06.051-1.55-.152c-.48-.202-.9-.544-1.2-.984a2.697 2.697 0 0 1-.45-1.484 2.682 2.682 0 0 1 2.68-2.671zm-24.05 18.699c-.52 0-1.04-.157-1.48-.45a2.648 2.648 0 0 1-.98-1.199 2.634 2.634 0 0 1-.16-1.543c.11-.519.36-.995.74-1.368.37-.374.84-.628 1.36-.731s1.06-.05 1.55.152c.48.202.9.544 1.2.984.29.439.45.955.45 1.484a2.684 2.684 0 0 1-2.68 2.671zm24.05 13.356c-.53 0-1.05-.156-1.49-.45-.44-.293-.78-.71-.98-1.199a2.63 2.63 0 0 1-.15-1.543c.1-.518.35-.994.73-1.368a2.67 2.67 0 0 1 1.36-.731c.52-.103 1.06-.05 1.55.152s.9.545 1.2.984c.29.439.45.956.45 1.484a2.64 2.64 0 0 1-.79 1.889c-.5.501-1.18.782-1.88.782zM428.591 619.015v21.37l16.027-10.685z" fill="#fff"></path><path d="M433.933 602.987a26.55 26.55 0 0 0-16.882 6.037l3.793 3.82a21.156 21.156 0 0 1 13.089-4.514 21.373 21.373 0 0 1 19.743 13.192 21.37 21.37 0 1 1-41.113 8.178 21.156 21.156 0 0 1 4.514-13.089l-3.82-3.793a26.717 26.717 0 0 0-.315 33.37 26.715 26.715 0 0 0 45.044-4.814 26.713 26.713 0 0 0-24.053-38.387zM135.55 770.877H82.124v5.343h53.426zm-.001 18.699H90.138v5.343h45.411zm.001 18.699H82.124v5.343h53.426zm133.163-37.398v5.343h14.932l-16.829 16.802 3.794 3.794 16.802-16.83v14.933h5.342v-24.042z" fill="#fff"></path><path d="M282.07 808.276h-26.713v-26.713h8.014v-5.343h-13.356v37.398h37.397v-13.356h-5.342zm335.782-29.385h-8.495a8.01 8.01 0 0 0-12.132-3.828 8.013 8.013 0 0 0-2.934 3.828h-19.18v5.343h19.18a8.018 8.018 0 0 0 7.533 5.279 8.012 8.012 0 0 0 7.533-5.279h8.495zm-16.028 5.343a2.668 2.668 0 0 1-2.468-1.649 2.676 2.676 0 0 1 .579-2.912 2.678 2.678 0 0 1 2.911-.579 2.677 2.677 0 0 1 1.649 2.468 2.67 2.67 0 0 1-2.671 2.672zm16.028 16.027h-19.18a8.013 8.013 0 0 0-15.066 0h-8.495v5.343h8.495a8.016 8.016 0 0 0 12.132 3.828 8.018 8.018 0 0 0 2.934-3.828h19.18zm-26.713 5.343a2.675 2.675 0 0 1-2.468-1.649 2.675 2.675 0 0 1 .579-2.911 2.672 2.672 0 1 1 1.889 4.56zm165.219-8.014h-8.014v5.343h8.014zm13.356 0H761.7v5.343h8.014zm10.685-10.685v-14.451l-6.918-6.919h-28.903l-6.919 6.919v14.451h-5.343v5.343h53.426v-5.343zm-37.397-12.261l3.766-3.766h24.522l3.767 3.766v12.261h-32.055z" fill="#fff"></path><path d="M775.057 808.275h-32.055V797.59h-5.343v21.371h5.343v-5.343h32.055v5.343h5.343V797.59h-5.343zm143.848-13.356h-8.013v5.342h8.013zm13.357 0h-8.014v5.342h8.014z" fill="#fff"></path><path d="M937.605 802.933H905.55v-8.014h-5.343v18.699h5.343v-5.343h32.055v5.343h5.342v-18.699h-5.342zm4.487-18.699l-5.342-13.357h-30.346l-5.342 13.357h-6.198v5.342h53.426v-5.342zm-34.539 0h-.721l3.205-8.014h23.08l3.205 8.014zm157.877 1.442h8.01v25.27h-8.01zm4-12.636a4.216 4.216 0 0 1 3.18 1.39 4.477 4.477 0 0 1 0 6.33c-.41.424-.9.759-1.45.984s-1.13.336-1.73.325a4.546 4.546 0 0 1-3.23-1.309 4.409 4.409 0 0 1-.98-1.441 4.55 4.55 0 0 1-.33-1.711 4.62 4.62 0 0 1 1.23-3.259c.44-.431.95-.769 1.52-.995a4.534 4.534 0 0 1 1.79-.314zm8.85 12.636h7.56v3.392h.16a7.937 7.937 0 0 1 2.67-2.858 8.685 8.685 0 0 1 4.65-1.256 8.45 8.45 0 0 1 7.72 3.446 16.55 16.55 0 0 1 1.79 8.602v13.944h-8.02v-12.235c.08-1.031.08-2.067 0-3.098a5.126 5.126 0 0 0-1.09-2.672 3.576 3.576 0 0 0-2.86-1.095c-.8-.1-1.61.037-2.33.393s-1.33.916-1.73 1.611a9.876 9.876 0 0 0-.8 4.487v12.609h-7.88v-25.27zm155.89 8.656v-8.522h7.38v-6.277c-.1-1.528.12-3.06.64-4.499a11.165 11.165 0 0 1 2.4-3.862 10.699 10.699 0 0 1 8.01-2.965c2.23-.048 4.45.05 6.66.294v7.72h-4.57a4.242 4.242 0 0 0-1.82.171c-.59.19-1.12.505-1.57.924a5.28 5.28 0 0 0-.94 3.099v5.395h8.52l-1.09 8.522h-7.43v21.958h-8.81v-21.958zm175.05-19.581h8.63c1.35.024 2.69.277 3.95.748.95.33 1.81.868 2.51 1.576a6.635 6.635 0 0 1 1.58 2.511c.47 1.266.72 2.603.75 3.953V800.796a12.13 12.13 0 0 1-.75 3.953 6.99 6.99 0 0 1-1.58 2.511 7.87 7.87 0 0 1-2.51 1.656c-1.27.414-2.61.639-3.95.668h-17.26a11.95 11.95 0 0 1-3.95-.748 8.837 8.837 0 0 1-2.51-1.576 8.933 8.933 0 0 1-1.58-2.511 11.863 11.863 0 0 1-.74-3.953v-8.629-8.628c.02-1.343.25-2.675.66-3.953.39-.934.95-1.786 1.66-2.511a6.975 6.975 0 0 1 2.51-1.576 11.95 11.95 0 0 1 3.95-.748c1.5.027 4.38 0 8.63 0zm0-3.874h-5.77l-3.02.161c-1.82.001-3.63.336-5.34.988a11.498 11.498 0 0 0-6.09 6.197 15.015 15.015 0 0 0-.99 5.343c-.16 1.015-.16 2.003-.16 2.912v11.54c0 .908 0 1.896.16 3.018 0 1.826.34 3.637.99 5.343a11.485 11.485 0 0 0 6.2 6.197c1.7.652 3.51.987 5.34.988l2.91.054h11.54l3.02-.16c1.83-.002 3.64-.337 5.34-.989a11.482 11.482 0 0 0 6.2-6.197c.65-1.706.99-3.517.99-5.343 0-1.122 0-2.11.16-3.018v-11.433c0-.909 0-1.897-.16-3.019 0-1.826-.34-3.637-.99-5.342a11.487 11.487 0 0 0-6.2-6.198c-1.7-.652-3.51-.987-5.34-.988l-3.02-.054zm0 10.392a10.89 10.89 0 0 0-5.53 1.496 10.96 10.96 0 0 0-5.34 9.483 11.15 11.15 0 0 0 1.44 5.529 11.32 11.32 0 0 0 4.01 4.007c1.68.956 3.59 1.453 5.53 1.443 1.91.013 3.79-.473 5.45-1.41s3.05-2.293 4.03-3.933a10.791 10.791 0 0 0 1.39-5.636 10.385 10.385 0 0 0-1.5-5.343 10.082 10.082 0 0 0-4.14-4.14 10.428 10.428 0 0 0-5.34-1.496zm0 18.111c-.94.014-1.87-.16-2.74-.514a6.893 6.893 0 0 1-2.33-1.543 7.069 7.069 0 0 1-1.55-2.329 7.166 7.166 0 0 1-.51-2.746c-.02-.929.16-1.852.51-2.712.35-.859.88-1.636 1.55-2.284a6.894 6.894 0 0 1 5.07-2.137c.94-.013 1.87.17 2.73.538s1.63.913 2.27 1.599c.68.637 1.23 1.41 1.6 2.271.36.86.55 1.789.53 2.725.01.947-.17 1.886-.54 2.759s-.91 1.661-1.59 2.316a6.825 6.825 0 0 1-5 2.057z" fill="#fff"></path><path d="M1420.42 783.646c1.47 0 2.67-1.196 2.67-2.672a2.676 2.676 0 0 0-5.35 0c0 1.476 1.2 2.672 2.68 2.672zm142.8 27.301a26.474 26.474 0 0 1-14.42-4.274c.73.101 1.47.163 2.22.187 2.12.006 4.24-.346 6.25-1.042a17.924 17.924 0 0 0 5.34-3.072 9.466 9.466 0 0 1-5.36-1.883 9.49 9.49 0 0 1-3.32-4.608c.59.095 1.19.158 1.79.187.83-.038 1.67-.154 2.48-.348a9.8 9.8 0 0 1-5.34-3.259 9.375 9.375 0 0 1-2.27-5.93 9.158 9.158 0 0 0 4.27 1.202 10.351 10.351 0 0 1-3.07-3.552 9.592 9.592 0 0 1-1.1-4.515c.02-1.674.45-3.318 1.26-4.781a27.983 27.983 0 0 0 8.63 6.998c3.37 1.709 7.07 2.7 10.84 2.912a9.604 9.604 0 0 1-.24-2.137 8.957 8.957 0 0 1 1.29-4.702 9.66 9.66 0 0 1 3.39-3.499 9.416 9.416 0 0 1 4.78-1.282 8.85 8.85 0 0 1 3.77.855 8.953 8.953 0 0 1 3.07 2.137 18.715 18.715 0 0 0 5.98-2.298 8.898 8.898 0 0 1-4.11 5.343 17.08 17.08 0 0 0 5.34-1.469 18.7 18.7 0 0 1-4.7 4.861v1.203a27.428 27.428 0 0 1-3.07 12.555 25.947 25.947 0 0 1-23.7 14.211zM415.234 789.576h16.028v-16.027h-16.028zm5.343-10.685h5.342v5.343h-5.342zm16.027-5.342v16.027h16.028v-16.027zm10.686 10.685h-5.343v-5.343h5.343zm-32.056 26.713h16.028v-16.028h-16.028zm5.343-10.686h5.342v5.343h-5.342zm16.027 10.686h16.028v-16.028h-16.028zm5.343-10.686h5.343v5.343h-5.343z" fill="#fff"></path></g></svg> 