<?xml version="1.0" encoding="UTF-8"?> <svg xmlns="http://www.w3.org/2000/svg" fill="none" height="800" width="695"><clipPath id="a"><path d="M.5 0h694v800H.5z"></path></clipPath><g clip-path="url(#a)"><path d="M.5 0h694v800H.5z"></path><path d="M.5 0h694v800H.5z" fill="#d9d8d6"></path><path d="M.5-9.75h694v819H.5z" fill="#141414"></path><g fill="#fff"><path d="M168.143 220.894a16.518 16.518 0 1 0 0-33.035 16.518 16.518 0 0 0 0 33.035zm0-26.429a9.911 9.911 0 1 1 0 19.822 9.911 9.911 0 0 1 0-19.822zm13.215 33.035h-26.429a13.217 13.217 0 0 0-13.214 13.215v13.214h6.607v-13.214a6.608 6.608 0 0 1 6.607-6.607h26.429a6.606 6.606 0 0 1 6.608 6.607v6.607h-33.037v6.607h39.644v-13.214a13.215 13.215 0 0 0-13.215-13.215zm13.215 179.288v-6.607a26.727 26.727 0 0 0-23.126-26.429v-6.607h-6.607v6.607a26.725 26.725 0 0 0-23.125 26.429v19.821h16.518v3.304a9.908 9.908 0 0 0 9.911 9.911 9.911 9.911 0 0 0 9.911-9.911v-3.304h16.518v-6.607h-46.251v-13.214a19.818 19.818 0 0 1 5.806-14.016 19.818 19.818 0 0 1 28.032 0 19.823 19.823 0 0 1 5.806 14.016v6.607zm-23.126 16.518a3.305 3.305 0 1 1-6.607 0v-3.304h6.607zm351.972 159.466h-9.911v6.607h9.911zm16.517 0h-9.911v6.607h9.911z"></path><path d="M546.544 592.683H506.9v-9.911h-6.607v23.126h6.607v-6.608h39.644v6.608h6.608v-23.126h-6.608zm5.55-23.126l-6.607-16.518h-37.53l-6.607 16.518h-7.664v6.608h66.073v-6.608zm-42.716 0h-.892l3.964-9.911h28.544l3.964 9.911zm-140.47 39.644h-7.962l-16.519-16.518h-5.252v-6.607h7.961l15.164 15.163v-43.542l-15.164 15.164h-14.569v19.822h-6.607v-26.429h18.467l16.519-16.519h7.962zm-33.901-368.486l29.006-29.005-4.658-4.658-27.09 27.056h-4.658v-4.658l31.748-31.748 9.349 9.35 4.658-4.692-14.007-14.007L321 226.708v14.007zm38.851 6.607H321v6.608h52.858zm-26.43 133.037a13.214 13.214 0 1 0 0 26.428 13.214 13.214 0 0 0 0-26.428zm0 19.822a6.606 6.606 0 0 1-6.104-4.079 6.609 6.609 0 0 1 8.633-8.633 6.606 6.606 0 0 1 2.143 10.776 6.603 6.603 0 0 1-4.672 1.936z"></path><path d="M347.429 367.145A26.792 26.792 0 0 0 321 393.574c0 13.379 7.863 21.143 19.822 33.036a261.295 261.295 0 0 1 4.327 4.294l2.28 2.313 2.346-2.346c.792-.825 1.552-1.552 2.345-2.312l-4.691-4.724-2.015-1.982c-11.497-11.398-17.807-17.642-17.807-28.279a20.089 20.089 0 0 1 19.822-19.822 20.084 20.084 0 0 1 19.822 19.822c0 9.745-5.385 15.857-15.131 25.603l4.658 4.658c10.473-10.44 17.08-17.939 17.08-30.261a26.795 26.795 0 0 0-26.429-26.429zm166.07-146.251a13.214 13.214 0 1 0 26.428 0 13.214 13.214 0 0 0-26.428 0zm19.822 0a6.606 6.606 0 0 1-7.896 6.48 6.61 6.61 0 0 1-2.382-11.974 6.607 6.607 0 0 1 10.278 5.494z"></path><path d="M558.759 218.284c-11.827-16.948-23.951-20.516-32.045-20.516-11.562 0-23.125 7.334-32.177 20.714a4.29 4.29 0 0 0 0 4.823c11.662 16.948 24.017 20.714 32.177 20.714a32.473 32.473 0 0 0 20.218-7.599l-4.691-4.691a25.768 25.768 0 0 1-15.527 5.683c-6.409 0-16.022-2.908-25.801-16.519 7.697-10.67 16.815-16.518 25.801-16.518s17.84 5.65 25.802 16.518a55.938 55.938 0 0 1-5.352 6.608l4.658 4.658a64.655 64.655 0 0 0 7.07-8.689 4.327 4.327 0 0 0-.133-5.186zm-14.503 194.78a26.157 26.157 0 0 0 5.583-16.187 26.429 26.429 0 1 0-26.429 26.429c3.534.004 7.03-.716 10.275-2.115l-5.154-5.186c-1.67.45-3.391.683-5.121.693a19.822 19.822 0 1 1 11.464-3.667l4.724 4.692 14.503 14.536 4.691-4.692zM135.107 553.039v59.466h6.74l13.115-13.215h33.004v-6.607h-35.779l-10.472 10.572v-43.609h52.858v39.644h6.608v-46.251z"></path><path d="M181.359 572.861H154.93v6.607h26.429z"></path></g></g></svg> 