<?xml version="1.0" encoding="UTF-8"?> <svg xmlns="http://www.w3.org/2000/svg" width="97" height="25" fill="none"><g clip-path="url(#clip0_5983_15053)" fill="#000"><path d="M0 23.124V.858h10.756v14.726h13.13v7.538H0v.002zm61.216 0H47.93l-10.06-11.006v11.006H27.113V.858H37.87v9.987L47.582.858H60.68l-11.8 10.59 12.336 11.676z"></path><path d="M97 25H84.916l-2.625-2.45c-1.613.858-4.684 1.464-7.688 1.464-10.06 0-16.039-4.548-16.039-12.215C58.561 4.39 65.144 0 76.248 0 87.224 0 93.74 4.422 93.74 11.832c0 2.83-1.045 5.343-2.975 7.347L97.001 25zm-20.974-7.919c4.46 0 6.802-1.75 6.802-5.089 0-3.307-2.309-5.057-6.707-5.057-4.366 0-6.674 1.782-6.674 5.153-.002 3.275 2.276 4.993 6.579 4.993z"></path></g><defs><clipPath id="clip0_5983_15053"><path fill="#fff" d="M0 0H97V25H0z"></path></clipPath></defs></svg> 