<?xml version="1.0" encoding="UTF-8"?> <svg xmlns="http://www.w3.org/2000/svg" xmlns:xlink="http://www.w3.org/1999/xlink" viewBox="0 0 652 439.4"><defs><path id="a" d="m11.7 11.7h628.6v414.4h-628.6z"></path><path id="b" d="m11.4 10.9h629.4v415.7h-629.4z"></path><clipPath id="c"><use xlink:href="#k"></use></clipPath><clipPath id="d"><use xlink:href="#a"></use></clipPath><clipPath id="e"><use xlink:href="#l"></use></clipPath><clipPath id="f"><use xlink:href="#m"></use></clipPath><clipPath id="g"><use xlink:href="#i"></use></clipPath><use id="h" xlink:href="#a"></use><use id="i" xlink:href="#a"></use><use id="j" xlink:href="#b"></use><path id="k" d="m528.8 290.9v-139.2h42.6v139.1h-42.6m-75.4-107.5h-15.6v27.1h14.2c12.5 0 18.8-4.7 18.8-14 0-8.7-5.8-13.1-17.4-13.1m45.9 44.7a53.4 53.4 0 0 1 -36.9 12.2h-24.1v50.6h-43.1v-139.1h59.2c14.8 0 26 1.7 33.7 5.1s13.8 8.6 18.3 15.6 6.8 14.8 6.8 23.5a41.2 41.2 0 0 1 -13.9 32.1m-173.1-33.7a20.5 20.5 0 0 0 -18.6-11h-11.1v75.4h11.1c7 0 13-3.4 17.8-10.3s7.3-16.2 7.3-28c0-10-2.2-18.8-6.5-26.1m32.3 77a63.7 63.7 0 0 1 -48.3 19.5h-56.2v-139.1h53.6c23.3 0 40.7 6.9 52.3 20.8s17.3 29.9 17.3 48.1a71 71 0 0 1 -18.7 50.7m-167.9 19.6v-99.5l-25.9 99.5h-27l-26.6-99.5v99.5h-32v-139.2h55.6l20.1 73.9 19.2-73.9h56v139.1h-39.4"></path><path id="l" d="m610.7 320.8-128.9 74.7v-12.3l128.9-74.3zm-293.7 12.6 10.1-7 150.3 87.7.1 12.3zm160.2 93.1.1-12.3 150.6-87.3 10.1 7zm150.3-99.7v-198l10.5-7.3v212.4z"></path><path id="m" d="m170.5 57.9-128.9 74.3v-12l128.9-74.7zm154.7 56.7-150.3-87.7v-12.3l160.4 93zm-150.1-87.7-150.6 87.3-10.1-7 160.8-92.6zm-150.2 285.5-10.5 7.1v-212.4l10.5 7.1z"></path></defs><use fill="#222" xlink:href="#k"></use><g clip-path="url(#c)"><use fill="#222" xlink:href="#a"></use><g clip-path="url(#d)"><use fill="#222" xlink:href="#b"></use></g></g><use fill="#222" xlink:href="#l"></use><g clip-path="url(#e)"><use fill="#222" xlink:href="#h"></use></g><use fill="#222" xlink:href="#m"></use><g clip-path="url(#f)"><use fill="#222" xlink:href="#i"></use><g clip-path="url(#g)"><use fill="#222" xlink:href="#j"></use></g></g></svg> 