<?xml version="1.0" encoding="UTF-8"?> <svg xmlns="http://www.w3.org/2000/svg" xmlns:xlink="http://www.w3.org/1999/xlink" width="230px" height="313px" viewBox="0 0 230 313" version="1.1"><title>beacon-vectors/mint</title><desc>Created with Sketch.</desc><defs><filter x="-38.8%" y="-26.3%" width="177.5%" height="152.7%" filterUnits="objectBoundingBox" id="filter-1"><feOffset dx="0" dy="9" in="SourceAlpha" result="shadowOffsetOuter1"></feOffset><feGaussianBlur stdDeviation="13.5" in="shadowOffsetOuter1" result="shadowBlurOuter1"></feGaussianBlur><feColorMatrix values="0 0 0 0 0 0 0 0 0 0 0 0 0 0 0 0 0 0 0.5 0" type="matrix" in="shadowBlurOuter1" result="shadowMatrixOuter1"></feColorMatrix><feMerge><feMergeNode in="shadowMatrixOuter1"></feMergeNode><feMergeNode in="SourceGraphic"></feMergeNode></feMerge></filter></defs><g id="Design_new-exploration" stroke="none" stroke-width="1" fill="none" fill-rule="evenodd"><g id="1440_HPE_2502" transform="translate(-234.000000, -4828.000000)"><g id="Group-6" transform="translate(114.000000, 4544.000000)"><g id="Group-2-Copy-6" transform="translate(75.591504, 176.104544)"><g id="Group-2-Copy-5"><g id="beacon-vectors/mint" filter="url(#filter-1)" transform="translate(70.081652, 124.176051)"><polyline id="Fill-29" fill="#9ED7BA" points="172.581294 86.6886107 149.926817 20.5917228 141.526843 12.4567212 129.563243 7.37234519 92.3997192 0 50.3998468 14.2362528 1.78181277 130.922682 0 138.295027 9.16360852 186.088161 18.5817617 219.136605 26.9817362 232.610202 94.945166 261.845364 113.630527 258.356973 146.617736 247.86333 174.363106 230.83067 177.672187 176.936285 177.672187 165.750657 172.581294 86.6886107"></polyline><polyline id="Fill-30" fill="#85BEA1" points="53.4650469 180.299236 20.9908069 197.816813 31.9001219 219.904191 104.459752 250.62342 113.950095 245.038105 79.0892519 189.819658 53.4650469 180.299236"></polyline><polyline id="Fill-31" fill="#76A98E" points="18.7417919 219.201976 31.4903883 220.471124 104.41236 251.184517 113.950095 258.362313 95.2333705 261.845364 27.1558656 232.654949 18.7417919 219.201976"></polyline><polyline id="Fill-32" fill="#587F6A" points="153.820374 243.142123 151.433679 234.728783 177.672187 176.558588 174.392374 230.410471 153.820374 243.142123"></polyline><polyline id="Fill-33" fill="#77A98E" points="113.670122 245.386512 151.215908 234.957051 177.672187 176.704692 177.672187 165.512099 156.812428 99.5012382 78.715526 190.05949 113.670122 245.386512"></polyline><polyline id="Fill-34" fill="#67937D" points="104.204363 250.919809 113.722186 245.330024 151.275695 234.912698 153.682694 243.328119 146.695781 247.616755 113.722186 258.104716 104.204363 250.919809"></polyline><polyline id="Fill-35" fill="#93D3B2" points="53.226689 180.762319 20.4718035 198.254347 9.21231156 186.08598 0 138.426542 1.7912828 131.074821 43.3359931 32.1695733 53.226689 180.762319"></polyline><polyline id="Fill-36" fill="#8FCCAA" points="9.74573179 185.536143 20.7409164 197.772219 31.4862104 219.950106 18.9916825 218.675514 9.74573179 185.536143"></polyline><polyline id="Fill-37" fill="#9ED7BA" points="53.27677 180.489133 43.4809572 31.4391772 47.0162291 22.9152002 120.439078 15.7107218 139.700721 26.2636602 156.68138 99.4985098 78.8744799 190.024921 53.27677 180.489133"></polyline><polyline id="Fill-38" fill="#85BEA1" points="141.235125 11.9700738 149.702893 20.1089299 172.540207 86.2371359 177.672187 165.336644 156.631067 99.3356075 139.438932 26.0859024 141.235125 11.9700738"></polyline><polyline id="Fill-39" fill="#A8DDC1" points="129.801586 7.48129611 141.687947 12.6339769 139.917638 26.932666 120.69714 16.2408534 129.801586 7.48129611"></polyline><polyline id="Fill-40" fill="#93D3B2" points="92.7277312 0 129.6932 7.36399641 120.578427 15.9976474 47.2293156 23.1920179 50.9516877 14.220131 92.7277312 0"></polyline><path d="M95.9579746,46.0098495 C95.9579746,48.2824167 94.11191,50.1246839 91.8346586,50.1246839 C89.5576507,50.1246839 87.7115861,48.2824167 87.7115861,46.0098495 C87.7115861,43.7375254 89.5576507,41.8952582 91.8346586,41.8952582 C94.11191,41.8952582 95.9579746,43.7375254 95.9579746,46.0098495" id="Fill-41" fill="#93D3B2"></path><path d="M91.419498,41.8952582 C91.6897184,41.8952582 91.9528278,41.9210276 92.2096162,41.9635714 C90.1252844,42.3082975 89.0688963,43.9867104 89.0688963,46.0098495 C89.0688963,48.0329886 90.1252844,49.7116446 92.2096162,50.0563708 C91.9528278,50.0986714 91.6897184,50.1246839 91.419498,50.1246839 C88.9577531,50.1246839 86.9619145,48.2824167 86.9619145,46.0098495 C86.9619145,43.7375254 88.9577531,41.8952582 91.419498,41.8952582" id="Fill-42" fill="#76A98E"></path></g></g></g></g></g></g></svg> 