<?xml version="1.0" encoding="UTF-8"?> <svg xmlns="http://www.w3.org/2000/svg" height="92" width="110"><circle cx="50" cy="45" fill="#242424" r="40.1"></circle><g fill="#fff"><circle cx="47.7" cy="12.6" r=".5"></circle><circle cx="52.3" cy="13.2" r=".5"></circle><circle cx="58.4" cy="21.3" r=".5"></circle><circle cx="25.1" cy="63.3" r=".5"></circle><circle cx="26.3" cy="66.9" r=".5"></circle><circle cx="20.7" cy="63.9" r=".3"></circle><circle cx="39" cy="70.9" r=".3"></circle><circle cx="67.7" cy="65" r=".3"></circle><circle cx="76.1" cy="55.9" r=".3"></circle><circle cx="35.2" cy="24" r=".3"></circle><circle cx="44.3" cy="17.2" r=".3"></circle><circle cx="43.4" cy="16.6" r=".3"></circle><circle cx="42.5" cy="15.9" r=".3"></circle><circle cx="36.6" cy="25.7" r=".3"></circle><circle cx="50.1" cy="8.2" r=".3"></circle><circle cx="52.4" cy="17.9" r=".3"></circle><circle cx="48.8" cy="16" r=".3"></circle><circle cx="42.8" cy="18.6" r=".3"></circle><circle cx="69.3" cy="73.9" r=".3"></circle><circle cx="24.5" cy="65.6" r=".3"></circle><circle cx="48" cy="70" r=".3"></circle><circle cx="31.5" cy="65.3" r=".3"></circle><circle cx="34.4" cy="70.1" r=".3"></circle><circle cx="55.9" cy="67.1" r=".3"></circle><circle cx="67.8" cy="60.4" r=".3"></circle><circle cx="76.7" cy="64.5" r=".3"></circle><circle cx="79.8" cy="66.5" r=".3"></circle><circle cx="80.3" cy="61.1" r=".3"></circle><circle cx="35.7" cy="53.6" r=".3"></circle><circle cx="35.8" cy="61.3" r=".5"></circle><circle cx="38.5" cy="67" r=".5"></circle><circle cx="70.8" cy="61.1" r=".5"></circle><circle cx="82.5" cy="60.4" r=".5"></circle><circle cx="76.7" cy="58" r=".5"></circle><circle cx="70.8" cy="58.2" r=".5"></circle><path d="m58.7 12.3 1.1-.1h-1c-.1-.3-.3-.5-.5-.5l-.1-1.1v1.1c-.3 0-.4.2-.5.4l-1.1.1 1.1.1c0 .2.2.3.4.4l.1 1.1.1-1.1c.2 0 .4-.2.4-.4zm-18.9 12.4h1.2l-1-.1c-.1-.2-.3-.4-.5-.4l-.1-1.2v1.2c-.3 0-.4.2-.5.4l-1.1.1h1.2c0 .3.2.4.3.4l.2 1.2v-1.3c.2 0 .4-.2.4-.4zm41.9 33 1-.1h-1c0-.3-.2-.5-.5-.5v-1.1l-.2 1c-.2 0-.4.2-.4.4l-1.2.1 1.2.1c0 .2.2.3.4.4v1.1l.2-1.1c.2 0 .3-.2.4-.4zm-45.7 17.3 1.2-.2h-1.2c0-.3-.2-.4-.4-.5v-1l-.2 1c-.2 0-.3.2-.3.5h-1.2l1.2.1c0 .2.2.4.4.4v1.2l.1-1.2c.2 0 .4-.2.4-.4zm42.1-8.5 1.1-.1h-1c-.1-.3-.3-.4-.5-.5l-.1-1v1c-.3 0-.4.2-.5.5h-1.1l1.1.1c0 .2.2.4.4.4l.1 1.1.1-1.1c.2 0 .4-.2.4-.4z"></path><path d="m59.6 35.4c-4.7 1.8-9.3 3.4-13 4.6-7.9 2.5-29.3 9-42.2 17.4l1.1.4c7.9-4.4 13-5.8 18-7.3 5.2-1.7 22.5-5.8 30.3-8 2.7-.7 5.8-1.7 9-2.9a80.4 80.4 0 0 0 -3.2-4.2zm5.7 7.8-2.8 1.8c-3.8 2.2-22.5 15-26.8 18s-16 14-19.6 17.3v1.3c11.1-10 14.7-12.6 19.1-16a454.1 454.1 0 0 1 31-21l-.2-.2zm17.5-18.5c-5.5 3.2-14 7-22.4 10.4a74.2 74.2 0 0 1 3.2 4.3 91.3 91.3 0 0 0 19.5-9.6c-2.7 2.5-11.7 9.3-17.2 13l.8 1.4c8.3-5.6 14-9.7 17.2-12.4 4.5-3.8 14.7-12.2 18.6-23.6a67.7 67.7 0 0 1 -19.7 16.5z" fill="#868686"></path><path d="m44.9 55-3-3.8a70 70 0 0 1 -3.5-4.7l-1 .3c1.3 2 2.7 3.9 4.2 5.8l2.6 3.2.6.9 1-.7a20 20 0 0 1 -1-1zm6.4 5.8c-.7-.7-2.4-1.8-4.3-3.6l-1.2.9c1.2 1.7 2.8 3.7 4 4.3 2 1 2.5-.7 1.5-1.6zm9.7-25c-10.5-13.2-23.3-20.4-29-16-4.3 3.4-2.5 13.3 3.4 23.8l1-.3c-6-10.2-7.7-19.7-3.6-23 5-4 17.3 3.3 27.5 16.1a76 76 0 0 1 5.6 8c6 10 7.8 19 3.7 22.6-1.3 1.1-5.2 1.5-10.3-.7 0 0 0 .3.2.3 4.3 1.8 8.6 2.5 10.7.8 5-4 1.2-18.4-9.3-31.6zm-45 1.6h6.7l5.6 9.6v-7.5c0-.9-1-2-1.4-2.1h4.6c-.2 0-1.2 1.2-1.2 2v11c0 .7 1 1.7 1.5 2h-6.5l-5.7-9.6v7.6c0 .7.7 1.4 1.5 2h-5c.7-.2 1.4-1.2 1.5-2s0-10.4 0-10.8c0-.9-1-1.6-1.6-2.2z"></path><path d="m77.4 52.4h9c-.5-.1-1-.7-1.4-1.5l-5-13.5h-3.4l-3.1 2.2-3 11c-.2.7-1.4 1.5-1.8 1.9h4.8c-.5-.6-.9-1.1-.8-1.7 0-.6.4-1.8.4-1.8h5l.4 1.6c.1.7-.5 1.3-1 1.8zm-3.9-5.3 1.7-5.5 2.2 5.5zm-.7-9.2.7-.5h-1.3zm-34.2 12.9.3-1.8h5l.5 1.6c0 .7-.5 1.3-1.1 1.8h7.9l.5-.3a3 3 0 0 1 -.8-1.2l-5-13.5h-7.9c.4.3 1.5 1.3 1.3 2.3-.1.9-2.8 10.5-3 11-.2.6-1.3 1.4-1.8 1.8h4.8c-.4-.6-.8-1.1-.7-1.7zm2.4-9.2 2.3 5.5h-4zm24.7 3.2-4.6 3.2c.7.4 1.3.8 1.4 1.4 0 1-2.1 1.6-4 1.4-.5 0-.8-.2-1.2-.3a600.4 600.4 0 0 1 -2.8 1.8v1.5c.4-.7 1.3-1.4 2-1.5.2 0 1.2 1 5.3.7 2 0 5.8-2.2 5.7-4.6 0-1.5-.8-2.6-1.8-3.5zm-11.2 3.8v1.6l1-.7zm9.9-4.7-1.2-.6c-1.9-1-4-1.1-4.3-2.3-.3-.9.5-1.7 2.5-1.6 2 0 4 1.2 4.5 1.6v-3.8c-.2.1-.8.9-1.4.7a32 32 0 0 0 -5.4-.5c-2.6 0-4.8 2-4.9 4.5 0 3.6 2.7 4.5 4.3 5l.6.3a90.1 90.1 0 0 1 5.3-3.3z"></path></g></svg> 