<?xml version="1.0" encoding="UTF-8"?> <svg xmlns="http://www.w3.org/2000/svg" viewBox="0 0 549.6 85.5"><path d="M0 43.4A42.4 42.4 0 0 1 43.4 0a42.6 42.6 0 1 1-.1 85A42.3 42.3 0 0 1 0 43.5zm21.1-1c0 12.5 8.6 24.3 22.7 24.3 14.9 0 22.2-13.5 22.2-24 0-10.6-7.2-24.3-22.4-24.3-14.6 0-22.5 12.4-22.5 23.9zM97.6 22h17.3v6.5s1.1-2.2 3.8-4.3c2.7-2.2 7-4.3 13.5-4.3 4.2 0 9.6 1.1 14.1 5.9a21 21 0 0 1 3.7 5.1A22.6 22.6 0 0 1 169.7 20c4.3 0 11.2 1 16.3 6.2 5.8 6.1 6.7 10.2 6.7 23.8v33.6H174V50.8c0-2.5 0-5.9-1.2-8.6-1.1-2.9-3.5-5-8.2-5-5.1 0-7.7 2.3-8.9 5.1-1.4 2.8-1.4 5.9-1.4 7.6v33.6h-18.5V50.1c0-1.7 0-4.9-1.1-7.6-1.2-2.9-3.4-5.2-8.1-5.2-5.2 0-7.8 2.4-9.1 5.4-1.4 3-1.4 6.3-1.4 8.2v32.7H97.6zm107.9 0h17.3v6.5c2.1-3 6-8.6 17-8.6 20.8 0 22.9 16.8 22.9 25.1v38.4h-18.5V50c0-6.8-1.4-12.7-9.7-12.7-9.1 0-10.6 6.5-10.6 12.8v33.4h-18.5zm70.4-20.4h18.5v14h-18.5zm0 20.4h18.5v61.5h-18.5zm94.4 38.1a32.9 32.9 0 0 1-32.4 25.4 32.7 32.7 0 0 1-33.1-32.9c0-18 14.1-32.7 32.6-32.7a32.7 32.7 0 0 1 32.8 25.8h-18.7c-2-4.2-5.7-8.6-13.4-8.6-4.3-.2-8 1.4-10.7 4.3-2.6 2.9-4 6.9-4 11.3 0 9 5.9 15.6 14.7 15.6 7.7 0 11.4-4.4 13.4-8.2zm7.2-7.5A32.2 32.2 0 0 1 410.8 20a32.2 32.2 0 0 1 33.3 32.7 32.2 32.2 0 0 1-33.3 32.7 32.2 32.2 0 0 1-33.3-32.7zm18.5.2c0 8.9 6.8 15.4 14.8 15.4s14.8-6.5 14.8-15.5-6.8-15.5-14.8-15.5S396 43.8 396 52.7zM454.6 22h17.3v6.5s1.1-2.2 3.8-4.3c2.7-2.2 7-4.3 13.5-4.3 4.2 0 9.6 1.1 14.1 5.9a21 21 0 0 1 3.7 5.1A22.6 22.6 0 0 1 526.6 20c4.3 0 11.3 1 16.3 6.2 5.8 6.1 6.7 10.2 6.7 23.8v33.6h-18.5V50.8c0-2.5 0-5.9-1.2-8.6-1.1-2.9-3.4-5-8.2-5-5.1 0-7.7 2.3-8.9 5.1-1.4 2.8-1.4 5.9-1.4 7.6v33.6h-18.5V50.1c0-1.7 0-4.9-1.1-7.6-1.2-2.9-3.4-5.2-8.1-5.2-5.2 0-7.8 2.4-9.1 5.4-1.4 3-1.4 6.3-1.4 8.2v32.7h-18.5z"></path></svg> 