<?xml version="1.0" encoding="UTF-8"?> <svg xmlns="http://www.w3.org/2000/svg" height="368.4" width="743.4"><path d="M0 367.9h375.3L743.3 0H0z"></path><path d="M440.8 69.1H368v174l-64-174h-62.5l-55.3 145.6c-5.8-36.7-43.6-49.4-74.2-58.9-18.9-6.3-40.7-15.7-39.3-26 0-8.4 10.2-16.2 32-15 14.6.7 27.7 1.9 53.9 14.4l26.2-44.4a204.3 204.3 0 0 0-83-19.6c-32 0-58.2 10.1-74.2 26.8a65.3 65.3 0 0 0-17.4 42.7 61 61 0 0 0 24.7 51.1c16 10.7 33.5 17.7 51 22.8 20.3 6.3 36.3 11.7 36.3 23.4 0 4.3-1.5 8.3-4.4 11.4-5.8 5.2-13 7.2-24.7 7.5-20.4.3-35-2.9-59.6-17.3l-23.3 44.8c24.7 14 53.8 22.1 82.9 22.1h4.4a99.5 99.5 0 0 0 62.5-21.2c1.5-.8 1.5-1.5 3-2.2l-7.3 19.5h66.9l10.2-33.8a123 123 0 0 0 39.2 6.1 120 120 0 0 0 37.9-5.9l11.6 33.6h107.6v-70.2H454c56.7 0 90.2-29.1 90.2-78 0-54.3-32-79.3-103.3-79.3zM272 218.1a66 66 0 0 1-23.2-4.1l23.2-73.2 23.3 73.4a69 69 0 0 1-23.3 4zm173.1-42h-16V117h16c21.9 0 39.3 7.1 39.3 29.2 0 22.7-17.4 29.8-39.3 29.8" fill="#fff" fill-rule="evenodd"></path></svg> 