<?xml version="1.0" encoding="UTF-8"?> <svg xmlns="http://www.w3.org/2000/svg" width="1037.8" height="165"><path fill="#222" d="M1018.9 141.3a54.8 54.8 0 0 1-20.1 4.6c-11.4 0-19.6-6.4-19.6-21.9V67.4H963V56h15.8V32.3h15v23.8h23v11.6h-23v52c0 10 2.5 13.9 9.2 13.9a42.1 42.1 0 0 0 15-4.1zm-61.6-3.4a50.8 50.8 0 0 1-29 8.2c-22.3 0-39-16.3-39-46.9 0-31.9 21.7-45.4 39.4-45.4 16 0 27.3 4 28.6 15.7v6.4h-13.7c0-7.5-4-9.3-14.1-9.3a21.4 21.4 0 0 0-10 1.5c-1.6 1-13.8 7-13.8 30.6s14.1 34.6 26.7 34.6a44 44 0 0 0 23.8-8.9zm-140-40.1v3c0 20.8 10.4 32.2 28.7 32.2a47.4 47.4 0 0 0 27.7-9.1l1.1 13.5a59.1 59.1 0 0 1-33.4 8c-22.3 0-39.4-17-39.4-45.9 0-30.2 16.4-46.4 39-46.4 27 0 35.3 14 35.3 44.7zm45.4-12c-.6-17-8.1-20-22.3-20a28.1 28.1 0 0 0-11.6 2.6 27.5 27.5 0 0 0-9.9 17.4zm-67.4-16.1-12.2 3.5c0-1.4-.6-7.5-6.1-7.5-8.5 0-15.5 14.2-18.6 21.7v55.8h-15V79.7a139.8 139.8 0 0 0-.7-17L742 56h13.8l2.5 13.9a24 24 0 0 1 20-16A14.9 14.9 0 0 1 795 66.6c0 1.4.4 2.2.4 2.3zM709 40.4a10.8 10.8 0 0 1-9.7-10.8 9.8 9.8 0 1 1 19.6 0 11.2 11.2 0 0 1-10 10.8zm-7.4 15.7h14.9v87.4h-15zM622 143.5h-40V26.3h41.8c41.3 0 55.6 31.3 55.6 58 0 25.8-14.8 59.2-57.4 59.2zm-.7-104.3h-24V131h22.3c29.8 0 42.8-17.2 42.8-46.4-.3-20-9.6-45.7-41.1-45.7zM499.6 97.8v3c0 20.8 10.3 32.2 28.7 32.2a47.4 47.4 0 0 0 27.4-9l1.2 13.5a59.1 59.1 0 0 1-33.1 7.9c-22.3 0-39.5-17-39.5-45.9 0-30.2 16.5-46.4 39.1-46.4 26.9 0 35.2 14 35.2 44.7zm45.3-12c-.6-17-8-20-22.3-20a28.1 28.1 0 0 0-11.6 2.6 27.5 27.5 0 0 0-9.5 17.4zM475.4 138a50.8 50.8 0 0 1-29 7.4c-22.3 0-39-16.2-39-46.8 0-32 21.7-45.5 39.4-45.5 16 0 27.3 4 28.6 15.7v6.4h-13.7c0-7.4-4-9.3-14.1-9.3a21.4 21.4 0 0 0-10 1.6c-1.6 1-13.8 7-13.8 30.6s14.1 34.6 26.7 34.6a44 44 0 0 0 23.8-9zm-87.8 5.5h-15s.8-20.4.7-38V86.9c-.4-13.3-1.6-20.1-14.9-20.1a36.3 36.3 0 0 0-12.2 2.3 90.1 90.1 0 0 0-14.5 15.5v58.8h-15V80a145 145 0 0 0-.7-17.4l-1-6.6h13.8l2.3 13a35 35 0 0 1 28.4-15.3c15.7 0 26.4 5 27.9 23 .7 8.7.6 17.4.6 26 0 14.3-.4 40.7-.4 40.7zm-150-45.7v3c0 20.8 10.3 32.2 28.6 32.2a47.4 47.4 0 0 0 27.5-9l1.2 13.5a59.1 59.1 0 0 1-33.3 7.9c-22.4 0-39.5-17-39.5-45.9 0-30.2 16.5-46.4 39-46.4 27 0 35.3 14 35.3 44.7zm45.2-12c-.6-17-8-20-22.3-20a28.1 28.1 0 0 0-12.1 3 27.5 27.5 0 0 0-9.2 17zm-88.4-45.4a10.8 10.8 0 0 1-9.7-10.8 9.8 9.8 0 1 1 19.6 0 11.2 11.2 0 0 1-9.9 10.8zM187 56.1h15v87.4h-15zM171.4 138a50.8 50.8 0 0 1-29 7.4c-22.4 0-39-16.2-39-46.8 0-32 21.7-45.5 39.4-45.5 16 0 27.3 4 28.6 15.7v6.4h-13.8c0-7.4-4-9.3-14.1-9.3a21.4 21.4 0 0 0-10 1.6c-1.6 1-13.8 7-13.8 30.6s14.1 34.6 26.7 34.6a44 44 0 0 0 23.8-9zm-122.3 7.4a72.9 72.9 0 0 1-30.2-6.2l2.1-15.5a53.4 53.4 0 0 0 27.7 8.1c15.9 0 22.4-9 22.4-17.7.3-22-51.2-25-51.2-58 0-17.7 11.6-32 38.7-32a67.9 67.9 0 0 1 28 5.6L86 45.2a56.4 56.4 0 0 0-27.3-7.4C42 37.8 37 46.8 37 55.5c0 22.4 51.5 27 51.5 58.1 0 17.7-14.4 31.8-39.3 31.8z"></path></svg> 