<?xml version="1.0" encoding="UTF-8"?> <svg xmlns="http://www.w3.org/2000/svg" viewBox="0 0 650 140"><path d="M31 77c-5-5-11-4-17-4l-1-1c5-5 11-9 17-11 11-4 21-2 30 3 6 4 7 8 3 13l-2 5c0 3-2 6-5 8l-5-1c-5-1-8-4-12-7z" fill="#535453"></path><path d="M44 20c17 1 31 7 37 24 1 4 2 8-2 10-5 3-12 5-18 5-3 1-7-5-8-10l-1-8c-1-8-2-15-8-21z" fill="#909090"></path><path d="M425 60c4-3 8-5 12-2 4 2 5 7 4 11-1 16-15 26-30 21-3-1-4-3-3-6l10-34c1-3 2-6-3-8l12-2c3-1 3 1 3 3l-5 15z" fill="#161616"></path><path d="M88 85c-4-1-6-4-6-8l-2-4c-4-5-4-8 0-12 9-9 23-11 35-4l9 7-1 1c-6 0-11 1-15 5-6 6-12 13-20 15z" fill="#535453"></path><path d="M347 67l9-9c2-2 5-4 8-2s3 6 3 9l-7 21c1 1 3 1 2 3l-4 2c-5 1-7-2-6-6l4-17c1-2 3-4 0-5-1-1-3 1-4 3-5 5-10 11-11 19-1 5-3 6-7 5-3 0-4 0-3-3l6-21c1-3 2-6-2-8l2-1c12-2 12-2 9 9v1l1 1zm38 19l-3 4c-5 3-9 1-11-4-1-5 0-10 2-14 2-6 5-10 10-14 4-2 7-4 11 0 2 1 2-1 3-1h7c2 1 0 4 0 5l-6 20c0 1-2 3 0 4s3-2 4-3h2c-1 3-4 6-7 7-5 3-9 1-8-6 1-1-2-2-2-3-1-2 1-4 1-6 3-6 3-8 2-12-4 7-8 13-6 21l1 1zm-98 0l-3 4c-5 3-9 1-11-4-1-5 1-10 2-14 3-6 6-11 11-14 3-2 7-4 10 0 2 1 2-1 3-1h7c2 1 0 4 0 5l-6 20c0 1-2 3 0 4s3-1 4-2l2-1c-1 4-4 6-6 7-6 3-10 1-9-5 1-2-1-2-2-3v-1c0-5 3-8 3-12 1-2 2-4-1-6-3 7-7 14-4 22zm191 1l-5 4c-2 1-5 1-7-1s-2-4-1-6l10-35c1-3 2-5-3-7l11-2c4-1 4 1 3 4l-12 39c0 2-1 5 2 4l1-1c1-1 2 0 1 1zm56-9l-1-13c0-3-1-5-5-6h1c11-3 12-6 14 8l1 16 1 2 9-15c1-3 0-4-2-6s-3-4-2-6c2-2 3-3 6-2 2 1 3 3 3 6l-2 7c-6 10-12 21-21 30-3-1-1-3-1-4zM154 92l2-14 3 7c3 4 7 6 9 3 3-2 2-5 0-8l-7-9c-2-3-3-6-1-10s5-5 9-5c4-1 7 2 11 0l1 2-1 10c-3-3-2-6-5-8-2-2-4-4-7-2-2 3-1 5 1 7l5 7c4 5 5 10 2 14s-8 6-14 5c-2-1-5-2-8 1zm69 0l2-14 3 7c3 4 6 5 9 3s2-5 0-8l-7-9c-2-3-3-7-1-10 2-4 5-5 9-6 4 0 7 2 11 1 1-1 1 1 1 2l-1 9c-2-1-2-2-2-3l-4-6c-2-1-4-1-6 1-2 1-1 3 0 5l6 8c4 4 5 10 2 14s-8 6-14 5c-3-1-5-1-8 1zm298-9c-1 5-6 8-10 8s-6-2-5-7l5-20c1-2 1-3-2-4-2 0-1-2 0-2 6-2 11-7 16-12 1 4 0 6-1 8 0 1-1 2 1 3 2 0 2 1 2 2l-2 2c-3-1-4 1-4 3l-5 18c-1 2-2 4 0 4 1 1 2-1 3-2zM273 46l-1 8c0 1-2 2 0 3 4 1 2 3 0 3-3 1-3 2-4 4l-5 19v4c2 0 3-2 4-3l2-1c-2 5-7 9-11 8-4 0-6-2-5-7l6-19c0-2 2-4-2-4-2 0-2-2-1-3 7-2 12-7 17-12zm-69 34c-3 3-5 7-9 9-2 2-5 3-8 2-3-2-3-6-2-8l5-19c1-2 1-4-2-6h1c4-1 10-4 13-2 2 2-2 8-3 12l-4 13v3c1 1 2 0 3-1l6-6 1 1zm295 5l-6 6c-2 1-4 1-7-1-2-1-2-4-1-6l6-20c0-2 1-5-3-6 4-2 8-1 11-2s4 0 3 3l-7 23c0 1-2 2 0 3 1 1 2-1 3-2 1 0 2 1 1 2zm-40 0l-6 6c-2 1-4 1-7-1-2-1-2-3-1-6l6-20c0-2 1-5-3-6 4-2 8-1 11-2s4 1 3 3l-7 23v3c2 2 2-1 3-1 1-1 2 0 1 1zm-134 0l-7 6c-2 1-4 1-6-1-3-1-3-4-2-6l6-20c1-2 1-5-3-6 4-2 8-1 12-2 2-1 3 0 2 3l-7 23v3c2 1 2-1 4-2z" fill="#161616"></path><path d="M205 77h-1l7-17c0-3 7-5 9-3v3l-6 21-1 5c3 0 4-3 7-3l-5 6c-3 2-6 3-10 1-3-2-1-5-1-8l1-3z" fill="#161616"></path><path d="M72 69c4 3 3 7 1 10-6 6-5 13-1 20 3 6 7 12 9 19 0 3 1 6-1 8-3 2-6 1-10 1l-1-2c4-9 1-18-2-26-4-8-5-15 3-21 3-2 3-6 2-9z" fill="#535453"></path><path d="M331 45c-1 3-2 5-5 6-4 0-6-2-6-6 0-3 2-5 5-5s5 2 6 5zm134 0c0 3-2 6-5 6s-5-2-5-5c0-4 2-6 5-6s5 2 5 5zm40 0c0 3-1 5-5 6-3 0-5-2-5-6 0-3 2-5 5-5s5 2 5 5zm27 57c-2 2-4 4-7 4s-5-1-6-3c0-2 0-4 2-5s4-1 6 1l4 2z" fill="#161616"></path><path d="M532 102l-1-1c2-2 3-4 3-7V77c2 5 1 10 1 15l1 6z" fill="#161616"></path><path d="M51 88l5 1c-3 3-6 3-10 0h5z" fill="#d0d0d0"></path><path d="M363 89l-2-3c2 1 3-3 6-4-1 4-3 5-4 7zm115-2l-1-1c1-2 2-3 4-3 0 2-1 3-3 4zm-153-2l-1-2 2-2c1 2 0 3-1 4zm134 0l-1-2c1-1 1-2 3-2 1 2-1 3-2 4zm40 0l-1-2c1-1 1-2 3-2 1 2-1 3-2 4z" fill="#161616"></path><path d="M13 72l1 1c-1 0-2 2-3 0z" fill="#cdcdcd"></path><path d="M476 86h-2v-3c0 2 0 4 2 3z" fill="#161616"></path><path d="M88 85h5c-2 2-3 2-5 0z" fill="#bdbdbd"></path><path d="M123 65l1-1 2 2z" fill="#c9c9c9"></path><g fill="#161616"><path d="M347 67l-1 2-1 1 1-4zm41 16l-2 1 1-2h2z"></path><path d="M388 83v-2c2 1 1 2 0 4zm-97-2v4l-1-2z"></path><path d="M291 81v2h-3c0-1 1-2 3-2zm-86-4v2h-1zm220-17v-2z"></path></g><path d="M93 85h1z" fill="#d2d2d2"></path><path d="M289 84l-1 2h-1v-1l1-1zm97 0l-1 2v-1zm-97-1h1l-1 1z" fill="#161616"></path><path d="M72 69l-1-1z" fill="#a0a0a0"></path><path d="M477 86h-1z" fill="#161616"></path><path d="M55 76c-9-5-19-8-30-7h-1v-1c11-1 22 0 31 7z" fill="#f6f6f6"></path><path d="M55 76v-1l2 1 1 2c-2 0-2-1-3-2z" fill="#d1d1d1"></path><path d="M24 68l1 1h-2c-1-1 1-1 1-1z" fill="#c9c9c9"></path><path d="M55 26c10 6 14 15 15 26-2-11-8-19-15-26zm-3-2l2 1zm3 2l-1-1z" fill="#fafafa"></path><path d="M432 69c-1 6-3 12-7 17-2 2-3 3-5 3-3 0-4 0-3-3l6-20c1-2 2-5 6-4 3 1 3 4 3 7z" fill="#fff"></path><path d="M88 69c7-7 16-10 26-8-10 0-18 3-25 8z" fill="#f6f6f6"></path><path d="M88 69h1l-4 4c0-2 2-3 3-4z" fill="#d8d8d8"></path><path d="M345 70l1-1c0 1 0 2-1 1z" fill="#161616"></path><path d="M386 84l-1 1-1 1c-3 0-4-2-4-4 1-8 3-15 8-22 0-1 2-3 3-2 2 1 2 2 2 4 1 7-2 13-5 19l-1 1z" fill="#fff"></path><path d="M384 86l1-1v1z" fill="#161616"></path><path d="M289 83v1l-1 1-2 1c-3 1-3-2-3-4 0-8 3-15 7-22 1-1 2-3 4-2l2 4c0 7-3 13-5 19z" fill="#fff"></path><path d="M286 86l2-1-1 1zm102-4v-1z" fill="#161616"></path></svg> 