<?xml version="1.0" encoding="UTF-8"?> <svg xmlns="http://www.w3.org/2000/svg" viewBox="0 0 429 167"><path d="M274 95c2 0 6-1 9-6-2-3-3-11-3-14-1-14 5-28 11-28 4-1 8 4 8 10 1 18-5 26-8 32 1 3 5 7 9 7l4-1-1-4c0-11 7-20 13-20 4 0 7 6 7 10 0 5-4 9-10 13l4 2c9 0 13-11 17-20 0-2 1-4 3-4 4 0 5 23 11 23 3 0 5-5 5-9l-1-8c0-4 3-8 6-8 2 0 3 2 3 4 0 10-7 27-17 27-8 0-7-13-10-13s-7 13-22 13c-2 0-5-1-7-3-3 2-6 3-10 3-5 0-8-5-10-5-3 0-5 5-14 5-8 0-9-9-11-9-3 0-6 9-10 9-6 0-7-16-13-16-4 0-18 17-21 16-2 0-3-1-2-3l2-10 3-11c1-1 2-3 4-2l1 2 3 7c2 0 9-13 13-13 5 0 5 21 12 21 2 0 4-3 5-6 1-6 2-14 6-14s5 7 3 14c0 7 5 9 8 9m119-18c-2 8-8 19-16 19-2 0-5-1-5-3s13-2 13-12c0-4-4-9-9-9-6 0-13 7-13 17s6 13 11 13c10 0 16-8 19-15 2 4 3 14 6 14 2 1 3 0 5-4 4-10 9-22 14-22 3 0 1 4 7 4 2 0 4-2 4-4 0-4-3-6-8-6-14 0-17 21-19 21-4 0-3-17-5-17-3 0-4 3-4 4m-99-15c0-5-1-6-3-6-3 0-5 9-4 19 0 6 1 7 2 7 2 0 6-11 5-20m-24-9c0-3-2-4-5-4-2 0-5 3-5 6s2 5 5 5 5-4 5-7m46 30c0-2-1-5-3-5-1 1-4 2-4 7l2 6c4-1 5-5 5-8m58-5c3 0 4 4 4 6-1 2-4 5-8 5-1-2-1-11 4-11M203 68l-2-7c-1-5 2-8 4-9 3-1 4 0 5 4s2 11 1 20c-1 12-7 26-22 26-13 0-19-9-19-22-1-6 0-12 2-20 2-5 3-7 7-8 3 0 3 3 2 7l-2 24c1 10 6 15 11 15 8 0 12-7 13-17 2-7 1-11 0-13m-57-22c1 6 10 14 13 14l2-14c0-3 0-6-2-6-3 5-10 6-13 6m1-2c6 0 12-6 12-10 0-2-1-4-3-4v2c0 3-5 7-10 7-3 0-3 1-3 2 0 2 2 3 4 3m-1-7c-1 0-3 0-3-2l-2-3h3l8-2 2 2c0 2-6 5-8 5M7 85c2 0 1-13 5-13l1 2-2 10 1 1c2 0 4-14 7-14l1 2-4 14h1l5-10 2-2c1 0 2 0 2 2 0 3-4 11-6 16-2 4-6 10-6 14l3 5c-4 0-6-1-7-4-7 14 12 12 6 24-2-2-11-4-11-16 0-11 9-17 9-22l-1-2-3-3c-2 0-3 2-2 5l1 2c0 2-2 6-4 6s-4-4-4-12c0-7 2-14 4-14v6c0 3 1 3 2 3"></path><path d="M22 104c3 0 5-2 5-7v-6c0-2 0-5 2-7v2c0 6 3 9 3 15 0 2-1 3-2 3-2 0-2-2-2-2v2c0 1 0 3 3 3 2 0 4-2 4-4 0-6-4-12-4-18l1-5c0 12 10 21 10 26l-2 2-2-2-2 2c0 2 2 5 5 5 4 0 6-3 6-6 0-6-13-16-13-27l1-7c-8 6-10 13-10 19 0 5-1 8-3 8s-2-2-3-2v2c0 2 2 4 3 4m108-63c3 0 5-1 5-2h-1l-6-1-5-1h-1c1 2 4 4 8 4m-13-7l8-2 2-1c2 0 1 3 3 3l5-2c2 0 5 6 5 9s-5 5-11 5c-8 0-13-7-13-12zm-93 93c-2 1-6 4-6 9 0 6 7 15 18 15 9 0 11-6 11-10 0-10-6-16-13-16-4 0-8 3-8 7s3 11 10 11c4 0 6-3 6-6s-3-6-6-6l-2 1c0 2 2 3 4 3h2v1l-4 2c-3 0-6-2-6-6 0-2 2-4 5-4 5 0 9 5 9 10 0 4-3 7-8 7-10 0-14-9-12-18m66 24l2 3c2 0 3-2 3-3s-1-2-3-2zm5 12h3l1 1c0 2-3 3-8 3-3 0-5-1-6-3-3 2-8 4-12 4-13 0-16-6-20-8-3-1-8 2-15-6l3 1c6 0 9-3 9-8v-1c2 0 6 3 7 8l4 2c2 0 5-1 6-5 7-1 12-5 13-11l7 5 3-1 7 2 2-2c2 0 1 2 2 3l2 2-2 2c-2 0-2 9-7 9-4 0-7-3-9-7l-2-2c-1 0-2 0-3 2-3 3-9 6-16 6h-4c0 1 2 2 6 2 11 0 14-6 16-6l1 1c3 6 8 7 12 7m37-39c-1 0-8 9-13 9l-2-3c0-1 1-2 3-2 10-3 8-11 17-11 5 0 11 4 11 12s-12 18-14 18l-3-3 2-2c6-2 9-8 9-11l-1-1c-1 0-6 11-11 11-3 0-7-4-7-5 0-3 11-7 11-11zm7-4l-2 2 2 4h2c2 0 3 0 3-2 1-2-2-4-5-4M23 48l2 2c2 0 3-1 3-2 0-2-1-3-3-3zm-3-6c0 2 1 3 2 3 2 0 3-1 3-3s-1-2-3-2zm-3 17c-1 1-4 3-4 6 0 2 2 3 4 3h2l-2-6zM2 60v1c0 3 2 5 4 5l5-3H8zm-2 6c0 4 1 7 4 7l8-4H6c-2 1-4 0-6-3m16-25l1-4c0-3-2-7-6-7-2 0-4 2-4 4 0 5 5 7 9 7m-5 16c-2 0-4-3-4-5l1-3 1 1c0 3 2 4 4 5v1zm6-8l1 2-1 2c-3 0-4-4-4-5l1-2h1zM2 57l1 2h1l6 1 5-2c4-2 6-8 6-9l-2-2-1-2-2-1h-1l-8 2c-5 4-4 9-5 11m21-3c-2 2-3 5-3 7 0 4 2 7 5 7s5-3 5-6c0-4-4-7-7-8M9 42s-1 2-4 2c-2 0-4-2-4-5 0-2 1-4 3-5v1c0 4 2 6 5 7m110 21c0 1 1 2 3 2 1 1 2-1 2-2 0-2-1-3-3-3zm0 8a3 3 0 1 0 6 0 3 3 0 0 0-6 0m-9 5c0 2 2 4 4 4 3 0 5-2 5-4s-2-4-5-4c-2 0-4 2-4 4m2-9c0 2 2 3 3 3s2-1 2-3l-2-2zm-8 5c0 2 1 3 3 3 1 0 2-1 2-3s-1-2-2-2c-2 0-3 1-3 2m7-14c0 2 2 4 4 4s4-2 4-4-2-4-4-4-4 2-4 4m4-8c0 1 1 2 3 2s2-1 2-2l-2-2zm-11 6l2 2c2 0 3-1 3-2l-2-2c-2 0-3 1-3 2m0 8a4 4 0 1 0 7 0 4 4 0 0 0-7 0m-8 4c0 2 2 4 3 4 2 0 4-2 4-4s-2-3-4-3c-1 0-3 1-3 3m2-9c0 2 1 3 3 3 1 0 2-1 2-3s-1-2-2-2c-2 0-3 1-3 2m22 20c0-2 1-3 2-3a2 2 0 1 1 0 5zm2 71v1c0 2 0 4-3 5l-6 2 1-5-1-1h1c5 0 7-2 8-2m0-6l1-2v-1c0-2-3-3-7-3s-7 2-7 3v2c0 2 3 3 6 3zm3 1c-1 1-5 4-11 4-4 0-5-2-6-2l-2 2c-1 2-3 5-3 8s2 5 5 5c12 0 20-7 20-13 1-3-1-4-3-4m2-53c0 2 1 4 3 4 1 0 2-2 2-5v-6l3 3 3-2-1 4 4 1-6 2-3 3c0 1 1 2 3 2 4 0 7-3 8-3v1l-2 3 4 3h-4l-1 4c-1 0-3-7-8-7l-1 1c0 3 3 6 5 7l3 2-4 1v5l-4-4-3 2 2-8c0-1 0-5-2-5l-4 5-1 7c-1 0 0-4-2-4l-3 2 1-4-4-2 3-1c4 0 8-3 8-6s-3-5-6-7l-2-1 2-1 2-1v-3l3 3 3-3 1 1zM98 74c0 5 8 3 8 9l-1 4 1 2c2 0 2-1 2-2l-1-3c1-2 2-2 3-2l8 2c-1 4-9 3-9 7 0 3 2 3 3 3l2-1v-2c2 0 9 5 9 6 0 2-8 3-10 3l1-3-4-1-2 1 3 6c0 1-1 2-3 2-1 0-4-2-4-4l2-4-1-1c-2 0-3 6-11 7l2-6v-3c0-2 1-3 2-3 2 0 3 3 5 3l2-2c0-5-9-4-9-11-1-2 0-4 2-7"></path><path d="M110 114l1 2 2-2-3-3zm-4-8c7 1 10 6 10 11 0 3-2 6-5 6s-6-2-6-6l2-8c1-1 0-2-1-3m-8 11l1 2-1 3c0 1 1 2 3 2s3-1 3-3-2-4-6-4m21-4v2l-1 5c0 2 2 4 4 4s4-2 4-5-3-6-7-6m-19-4l3 3-2 1h-3l-4 2c1 0 2 0 2 2 0 3-10 0-10 10 0 5 5 10 13 10 4 0 6-1 6-3l-2-1 1-2-1-1c-1 0-3 2-8 2-3 0-6-2-6-5v-1l2 1v-1l1-3c1 0 4 4 12 4 3 0 9 0 11-2 0 7-6 16-17 16-12 0-18-9-18-18s8-18 19-18l5 2c0 2-4 1-4 2M59 38c4 0 6 4 6 8l-1 4-1-3-1-2-1 5 1 3h1c0 2-2 5-5 5-5 0-7-6-8-10-3 3-6 6-12 6-5 0-7-4-7-7 0-2 0-4 2-4 1 0 0 5 3 5l3-3v-4l-1-2-3 1c2-5 5-7 9-7 5 0 8 5 8 9l-1 2c2-3 5-6 8-6m-4 8l-1-2-2 3 1 3zm-9 2c1 0 2 0 3-2v-3l-1-2c-2 0-3 5-3 6zm10 6c2 0 3-6 3-10v-2c-1 0-4 7-4 10zm-15-4c2 0 4-11 4-13v-1c-2 0-5 11-5 13z"></path><path d="M48 55c-3 0-3 3-3 10-2-4-5-9-9-9-3 0-4 2-4 5v2l3-2c3 0 6 2 8 5l-7-1-3 1c-2 1-4 3-4 7v2c2-4 8-7 12-7l1 1c-2 1-2 4-2 6l-1 1 1 7v1l2 7v1l4 4 1 1 3-2-1-1-2-4-1-1-1-5c-1-1-2-1-2-3l1-5-1-1 3-6c3 3 4 6 4 8v3c2-1 6-3 6-7 0-2-1-5-8-6l7-1c4 0 6 1 7 4l1-4c0-3-2-5-5-5-4 0-8 2-11 5 1-4 2-6 4-6h1c0-2-3-5-4-5m104 45c4 0 6 4 6 9s-2 10-7 14c0-8-10-6-10-12 0-2 2-4 4-4l5 1-2-3c0-3 2-5 4-5m-46-64l-3-1c-3 0-5 2-5 4v-2c0-3 2-6 6-6s6 2 6 2l2-1 1 2c0 2-2 7-4 8l-3-3-1-1zm-9 5l5 2h2l1 1-2 2h3c3 0 7-2 7-7l1 4c0 6-5 9-9 9l-5-1-2 2c-1 0-3-3-3-7zM44 1h-5c-4 0-3 3-6 3s-3-3-7-3l-5 1s3 0 3 2-6 3-6 4l1 1 5-1 2 1-3 6 5-3c4 0 2 7 3 7 2 0 1-7 4-7 2 0 4 5 5 5l1-1-2-5c0-2 1-2 2-2l4 1 1-1c0-1-6-3-6-5zm14 7l6 3 1-3c0-2 0-2-2-2zm7 12c0-4-10-10-10-13V6c2-2 9-3 9-5l-2-1c-6 0-15 2-15 5 0 2 8 7 8 9l-1 1-9-2-1 1 3 11-8-6-1 2v2l-1 3c-1 0-2-5-4-5l-3 8c-2 0 0-9-2-9s-4 6-6 6v-1l1-6-1-2-8 3h-1c0-1 7-6 7-8s-9-1-9-3 7-4 7-6-8-3-11-3C3 0 1 0 1 2l8 3c0 1-8 5-8 7s12 0 12 2S2 25 2 29l1 1c4 0 12-7 14-7l1 2v6l1 3c3 0 5-4 6-4 2 0 1 11 4 11s4-12 5-12c2 0 3 3 5 3s1-6 3-6 8 8 11 8l1-2c0-3-5-11-5-13l1-1 13 3zM8 16c0 2-5 6-6 6l-1-2 1-3 4-1zm46 7c0 2 8 13 9 13l2-4v-2c-1-1-9-8-11-8zM154 4l1 2 2-2-2-2zm-11 14c0-5-10-6-10-7l9-2c-5-6-12-5-12-6l10-2c4 0 8 1 8 3l-2 6c0 2 1 3 3 3s2-2 2-4V5c0-3 2-5 4-5l6 1-3 4c0 2 2 4 2 10 0 9-9 13-20 13l-10-1h-1c0-1 5-1 5-5l-1-4 1-1c1 0 3 4 6 4 1 0 3 0 3-3m11-7c0 6-4 10-11 11h2c8 0 12-3 12-7zm-4 81l4-9c-2-1-7-3-7-7s5-8 6-8l1 2-2 7 3 4c1 0 4-4 4-8 0-6-6-8-8-8s-5 3-12 3c-13 0-16-14-16-19v-1s1 2 6 2l7-1c7 0 11 5 15 12 3 2 10 4 10 12 0 7-8 11-9 19 2-1 4-6 7-6 2 0 2 1 2 3 0 3-1 7-4 10v-1c0-2-1-4-3-4-3 0-4 3-6 6-1-6-4-12-8-16-5-3-12-1-12-8l1-6-1-2c6 2 4 6 8 11 2 2 8 5 12 15v-1c0-9-12-18-13-22 7 1 8 2 12 12zm-2-31c0-1-3-1-4-5v-1c-2 0-1 3-2 3-3 0-4-6-5-6v3l-1 2c-2 0-3-4-5-4l1 3c0 2-4 1-4 2l1 1 5-1 1 1-2 3h1l6-3 2 1-2 4c1 0 3-3 5-3l3 1z"></path><path d="M102 24l1 4 1 1 2-3c2 0 5 3 10 3 8 0 15-5 15-14s-7-15-16-15c-4 0-7 3-8 3l-3-3-1 2-1 3c-1 0-7-5-7-3l4 7-4 3c0 1 4 1 4 3s-4 3-4 5l4 1-3 7zm2-10l-3-3h3l2-3 2 3 2-1 1 1-2 2 4 2-4 1 1 3-3-1-2 2h-1v-3h-3v-1zm12 12c-5 0-8-2-8-3l1-1 6 2v-1l-1-4h1l5 1 1-1-4-5 5-3-7-1 1-3V6l-5 1-2-1c0-1 3-3 6-3 7 0 10 5 10 12 0 9-6 11-9 11M74 133l-1 2-4-2c-6 0-4 10-10 10l-5-1v1c0 1 2 5 8 5s13-3 13-8l-1-3 2-1 2 2 2-2-1-2 1-1c0-2-1-2-2-2h-2c0-1 0-2-2-2l-1 2z"></path><path d="M57 136c-2 0-5-2-5-3l2-2c1 0 4 2 4 4zm-17-14c5 1 7 4 8 7l2 7c1 1 4 3 7 3 2 0 4-1 4-3s-3-7-7-7h-2l-2-1-3-8c-2-3-4-4-7-4s-5 1-5 3c0 1 1 2 5 3"></path><path d="M71 114c0-3-6-3-6-7l2-5c1 4 2 5 5 6 5 2 6 6 6 9 0 5-4 12-14 12-8 0-14-7-14-13 0-2 1-3 2-3l2 1c2 3 5 4 10 4 4 0 7-2 7-4m0 5c-2 1-3 1-3 3v2l1 1c2 0 6-3 6-7l-2-1zM51 87c0-4 10-6 10-11l-1-3c3 2 5 5 5 7 0 5-4 7-4 9 0 3 5 4 5 8 0 3-5 7-5 11 0 3 2 6 6 6h-3c-7 0-13-5-13-11 0-3 1-6 3-8l5 3 1-1c0-3-9-5-9-10m-36 31c0 2 2 4 5 4l2-1c0 2 2 3 4 3s4-2 4-4l-1-2h1c2 0 4-2 3-4 0-3-2-4-4-4l-2 1c-1-2-2-4-5-3-2 0-3 2-3 4v2c-2 0-4 2-4 4m12-2l-2 2c-2 0-3-1-3-2l2-3c1 0 3 1 3 3"></path></svg> 