<?xml version="1.0" encoding="UTF-8"?> <svg xmlns="http://www.w3.org/2000/svg" width="715" height="560" fill="none"><path d="M268.652 154.821h175.89c1.7 0 2.72-1.02 2.72-2.72v-43.032c0-1.7-1.02-2.72-2.72-2.72h-175.89c-1.7 0-2.72 1.02-2.72 2.72v43.032c0 1.7 1.02 2.72 2.72 2.72zm-1.36 154.554l32.874 32.875v.042c.999 1.02 2.019 1.36 3.379 1.36h141.018c1.7 0 2.72-1.02 2.72-2.72v-43.053c0-1.7-1.02-2.72-2.72-2.72h-123.72c-.34 0-.68-.34-.68-.68v-46.092c0-.34.34-.68.68-.68h123.699c1.7 0 2.72-1.02 2.72-2.72v-42.714c0-1.7-1.02-2.72-2.72-2.72h-175.89c-1.7 0-2.72 1.02-2.72 2.72v103.724c0 1.338.34 2.358 1.36 3.378z" fill="#000"></path></svg> 