<?xml version="1.0" encoding="UTF-8"?> <svg xmlns="http://www.w3.org/2000/svg" width="1920" height="1293" fill="none"><g clip-path="url(#clip0_164_9747)"><path transform="translate(0 .778)" fill="#000" d="M0 0H2520V1292H0z"></path><path d="M558.5 1122.92a.76.76 0 0 1-.233.59l-9.373 8.9c-.059.06-.059.12.058.12 6.404.82 10.305 4.83 10.305 11.76 0 7.4-5.938 12.58-15.021 12.58-7.394 0-14.032-2.91-15.895-10.19a.506.506 0 0 1 .291-.58l7.162-2.45c.291-.12.465 0 .582.23 1.281 3.44 3.493 5.36 7.743 5.36 4.134 0 6.521-1.86 6.521-5.01 0-3.37-2.503-4.89-7.103-4.89h-5.473a.553.553 0 0 1-.524-.41l-1.222-4.42c-.059-.29 0-.41.174-.58l10.597-10.19c.116-.12 0-.12-.059-.12h-16.127c-.291 0-.466-.17-.466-.46V1116c0-.3.175-.47.466-.47h27.132c.291 0 .465.17.465.47v6.92zm-53.782 25.16c0 .05.058.11.116.11h19.505c.291 0 .465.18.465.47v7.16c0 .29-.174.46-.465.46h-28.821c-.291 0-.465-.17-.465-.46v-4.54c0-16.89 20.378-13.69 20.378-23 0-3.38-2.213-5.36-5.59-5.36-4.075 0-6.521 2.33-7.278 6.17-.116.3-.291.41-.582.3l-7.045-2.16c-.291-.12-.407-.23-.349-.52 1.048-7.28 6.754-11.76 15.196-11.76 9.257 0 14.439 5.47 14.439 12.75 0 14.79-18.864 12.92-19.504 20.38zm-16.226 7.74c0 .29-.174.47-.466.47h-7.743c-.291 0-.466-.18-.466-.47v-32.37c0-.06-.058-.12-.116-.12h-8.21c-.291 0-.466-.17-.466-.46V1116c0-.3.175-.47.466-.47h16.535c.292 0 .466.17.466.47v39.82zm-34.486 1.05c-9.025 0-15.487-6-15.487-15.43s6.462-15.49 15.487-15.49c7.685 0 12.983 3.55 14.497 9.9.058.29-.058.52-.349.58l-7.103 1.34c-.233.06-.408-.06-.524-.29v-.12c-.932-2.21-3.086-3.72-6.347-3.72-4.599 0-7.277 3.2-7.277 7.8 0 4.54 2.678 7.8 7.277 7.8 3.436 0 5.648-1.69 6.405-4.13.116-.24.291-.41.582-.35l7.103 1.34c.291.05.466.23.35.46v.12c-1.572 6.52-6.871 10.19-14.614 10.19zm-37.004 0c-12.517 0-20.61-8.45-20.61-20.91 0-12.51 8.093-21.01 20.61-21.01 9.607 0 16.245 5 18.282 13.45.059.29-.058.52-.349.58l-7.22 1.51c-.291.06-.465-.06-.582-.35-.99-4.31-4.599-6.81-10.131-6.81-7.103 0-11.702 4.95-11.702 12.63 0 7.63 4.599 12.52 11.702 12.52 5.473 0 9.141-2.5 10.306-6.93.058-.29.291-.4.582-.35l7.22 1.52c.291.06.407.29.349.52-2.154 8.56-8.792 13.63-18.457 13.63zm-37.971-30.92c8.093 0 13.45 5.94 13.45 15.49 0 9.49-5.357 15.43-13.45 15.43-3.784 0-6.754-1.28-8.908-3.61-.058-.12-.116 0-.116.06v2.5c0 .29-.175.47-.466.47h-7.22c-.291 0-.466-.18-.466-.47V1116c0-.3.175-.47.466-.47h7.22c.291 0 .466.17.466.47v13.5c0 .06.058.18.116.12 2.154-2.39 5.124-3.67 8.908-3.67zm-2.038 23.29c4.367 0 7.162-3.03 7.162-7.8 0-4.78-2.795-7.8-7.162-7.8-4.425 0-7.277 3.02-7.277 7.8 0 4.77 2.852 7.8 7.277 7.8zm-27.946-13.51c-.058 0-.058.12.059.12 4.716 1.51 7.452 4.83 7.452 9.78 0 6.17-5.182 10.66-14.381 10.66h-18.34c-.291 0-.466-.18-.466-.47V1116c0-.3.175-.47.466-.47h18.34c8.792 0 13.158 4.48 13.158 10.42 0 4.89-2.387 8.15-6.288 9.78zm-2.445-8.15c0-2.44-1.747-4.02-4.774-4.02h-9.665c-.058 0-.117.06-.117.12v8.09c0 .06.059.12.117.12h9.199c3.144 0 5.24-1.69 5.24-4.31zm-14.556 20.73c0 .06.059.12.117.12h9.956c3.551 0 5.589-1.93 5.589-4.43 0-2.91-2.445-4.37-5.764-4.37h-9.781c-.058 0-.117.06-.117.12v8.56zm-15.186.93h2.212c.291 0 .466.17.466.47v6.11c0 .29-.175.47-.466.47h-7.685a.735.735 0 0 1-.582-.24l-2.446-2.38c-.058-.06-.116 0-.116 0-2.096 2.15-5.24 3.2-9.316 3.2-5.764 0-9.432-3.38-9.432-8.1 0-12.28 17.991-8.2 17.991-12.34 0-2.15-1.98-3.67-4.716-3.67-3.435 0-5.007 1.58-5.24 3.73-.058.35-.233.52-.582.41l-6.812-1.87c-.233-.05-.408-.29-.35-.58 1.165-5.7 6.463-8.5 13.217-8.5 7.918 0 12.401 4.48 12.401 11.7v10.08c0 1.1.582 1.51 1.456 1.51zm-15.779 1.57c3.668 0 6.405-2.73 6.405-5.65v-2.44c0-.06-.058-.12-.117-.12-3.784 2.04-9.606.82-9.606 5.42 0 1.69 1.397 2.79 3.318 2.79zm-13.122 4.95c.116.29-.059.53-.408.53h-8.093a.565.565 0 0 1-.524-.41l-2.562-7.63c0-.06-.116-.12-.174-.12h-16.652c-.058 0-.175.06-.175.12l-2.562 7.63a.565.565 0 0 1-.524.41h-8.092c-.35 0-.524-.24-.408-.53l14.264-39.88c.059-.23.292-.35.525-.35h10.538c.233 0 .466.12.524.35l14.323 39.88zm-20.437-31.67l-5.356 15.95c0 .06 0 .12.058.12h11.295c.059 0 .059-.06.059-.12l-5.357-15.95-.291-.7c-.058-.06-.058-.06-.116 0l-.292.7zm-41.81 5.47c.058.12.116 0 .116-.06V1116c0-.3.175-.47.466-.47h7.22c.291 0 .466.17.466.47v39.82c0 .29-.175.47-.466.47h-7.22c-.291 0-.466-.18-.466-.47v-2.5c0-.06-.058-.18-.116-.06-2.154 2.33-5.124 3.61-8.908 3.61-8.093 0-13.45-5.94-13.45-15.43 0-9.55 5.357-15.49 13.45-15.49 3.784 0 6.754 1.28 8.908 3.61zm-6.87 19.68c4.425 0 7.278-3.03 7.278-7.8 0-4.78-2.853-7.8-7.278-7.8-4.367 0-7.162 3.02-7.162 7.8 0 4.77 2.795 7.8 7.162 7.8zm-20.775 6.58c0 .29-.174.47-.466.47h-7.219c-.291 0-.466-.18-.466-.47V1116c0-.3.175-.47.466-.47h7.219c.292 0 .466.17.466.47v39.82zm-28.919 1.05c-9.025 0-15.545-6-15.545-15.43s6.52-15.49 15.545-15.49c9.024 0 15.545 6.06 15.545 15.49s-6.521 15.43-15.545 15.43zm0-7.63c4.6 0 7.22-2.85 7.22-7.8 0-4.95-2.62-7.8-7.22-7.8-4.541 0-7.161 2.85-7.161 7.8 0 4.95 2.62 7.8 7.161 7.8zm-26.723-13.51c-.058 0-.058.12.058.12 4.716 1.51 7.453 4.83 7.453 9.78 0 6.17-5.182 10.66-14.381 10.66h-18.34c-.291 0-.466-.18-.466-.47V1116c0-.3.175-.47.466-.47h18.34c8.792 0 13.158 4.48 13.158 10.42 0 4.89-2.387 8.15-6.288 9.78zm-2.445-8.15c0-2.44-1.747-4.02-4.774-4.02h-9.665c-.059 0-.117.06-.117.12v8.09c0 .06.058.12.117.12h9.199c3.144 0 5.24-1.69 5.24-4.31zm-14.556 20.73c0 .06.058.12.117.12h9.956c3.551 0 5.589-1.93 5.589-4.43 0-2.91-2.445-4.37-5.764-4.37h-9.781c-.059 0-.117.06-.117.12v8.56zm570.778-119.81c0 .17-.058.29-.174.4l-10.539 10.31c-.058.06 0 .12.058.12 7.104.58 11.354 4.77 11.354 11.82 0 7.33-5.822 12.46-14.672 12.46-7.395 0-13.799-2.97-15.662-10.08-.058-.23.058-.4.233-.46l6.171-2.22c.175-.05.408 0 .466.24 1.339 3.84 3.959 6.05 8.734 6.05 4.657 0 7.452-2.33 7.452-5.99 0-3.9-2.853-5.94-8.209-5.94h-5.124c-.175 0-.291-.06-.349-.29l-1.165-3.85c-.058-.23-.058-.29.117-.46l11.586-11.36c.116-.11 0-.11-.058-.11h-17.409c-.233 0-.349-.12-.349-.35v-6.17c0-.24.116-.35.349-.35h26.841c.175 0 .349.11.349.35v5.88zm-54.431 27.65s.058.06.117.06h20.436c.233 0 .349.12.349.35v6.11c0 .24-.116.35-.349.35h-28.296c-.175 0-.35-.11-.35-.35v-4.36c0-16.71 21.019-13.39 21.019-23.7 0-3.78-2.562-6.23-6.58-6.23-4.483 0-7.277 2.56-8.093 6.87-.058.23-.174.29-.407.23l-6.172-1.74c-.174-.06-.291-.24-.233-.47.99-7.28 6.696-11.58 14.847-11.58 8.966 0 14.09 5.35 14.09 12.46 0 15.13-20.378 12.69-20.378 21.95v.05zm-15.314 6.52c0 .18-.116.35-.349.35h-6.637c-.233 0-.35-.11-.35-.35v-33.71c0-.06-.058-.11-.116-.11h-8.384c-.175 0-.35-.12-.35-.35v-5.88c0-.18.117-.35.35-.35h15.487c.233 0 .349.11.349.35v40.05zm-33.207.94c-8.908 0-15.254-6.06-15.254-15.38 0-9.37 6.346-15.42 15.254-15.42 7.511 0 12.693 3.61 14.207 9.89.058.24-.117.35-.291.41l-6.055 1.22c-.175.06-.35-.05-.466-.29-.815-2.85-3.435-4.77-7.278-4.77-5.124 0-8.268 3.67-8.268 8.96 0 5.24 3.144 8.97 8.268 8.97 3.959 0 6.637-2.15 7.394-5.24.058-.23.233-.35.408-.29l6.113 1.22c.175.06.349.18.291.35-1.455 6.58-6.754 10.37-14.323 10.37zm-37.228 0c-12.343 0-20.436-8.5-20.436-20.91 0-12.46 8.093-21.01 20.436-21.01 9.549 0 16.244 5.12 18.224 13.5.058.24-.117.35-.291.41l-6.23 1.34c-.175.06-.349-.06-.408-.29-1.106-4.95-5.24-7.92-11.295-7.92-7.802 0-12.867 5.59-12.867 13.97 0 8.33 5.065 13.8 12.867 13.8 5.997 0 10.189-2.91 11.412-8.03.058-.23.233-.35.407-.29l6.288 1.39c.175.06.35.18.291.35-2.096 8.5-8.791 13.69-18.398 13.69zm-38.378-30.8c8.151 0 13.565 5.99 13.565 15.42 0 9.38-5.414 15.38-13.565 15.38-4.018 0-7.22-1.46-9.432-4.08-.059-.06-.117 0-.117.06v3.08c0 .24-.116.35-.349.35h-6.288c-.233 0-.35-.11-.35-.35v-40.05c0-.24.117-.35.35-.35h6.288c.233 0 .349.11.349.35v14.26c0 .06.058.18.117.06 2.212-2.62 5.414-4.13 9.432-4.13zm-1.572 24.39c4.949 0 8.093-3.55 8.093-8.97 0-5.47-3.144-8.96-8.093-8.96-5.008 0-8.268 3.49-8.268 8.96 0 5.42 3.26 8.97 8.268 8.97zm-28.642-14.79c-.116 0-.116.12 0 .12 4.891 1.45 7.802 4.77 7.802 9.72 0 6.29-5.123 10.77-14.264 10.77h-18.049c-.175 0-.35-.11-.35-.35v-40.05c0-.24.117-.35.35-.35h18.049c8.675 0 12.983 4.31 12.983 10.42 0 4.83-2.503 8.09-6.521 9.72zm-.931-8.44c0-3.09-2.096-4.95-5.881-4.95H470.08c-.058 0-.116.06-.116.12v9.9c0 .05.058.11.116.11h10.364c3.551 0 6.055-2.04 6.055-5.18zm-16.535 22.3c0 .06.058.12.116.12h10.771c4.367 0 6.871-2.27 6.871-5.48 0-3.37-2.912-5.24-6.813-5.24H470.08c-.058 0-.116.06-.116.12v10.48zm-14.728.76h2.678c.233 0 .35.11.35.35v5.29c0 .24-.117.35-.35.35h-7.045a.512.512 0 0 1-.407-.17l-2.737-2.68c-.058-.06-.116 0-.116 0-2.096 2.27-5.298 3.44-9.432 3.44-5.648 0-9.316-3.27-9.316-7.92 0-12.35 18.399-8.1 18.399-12.64 0-2.62-2.271-4.48-5.473-4.48-3.901 0-5.823 1.8-6.114 4.6 0 .29-.116.35-.349.29l-5.88-1.51c-.175-.06-.35-.18-.292-.41.932-5.82 6.056-8.73 12.809-8.73 7.628 0 12.053 4.3 12.053 11.35v11.59c0 .93.465 1.28 1.222 1.28zm-15.312 1.39c4.25 0 7.336-3.02 7.336-6.58v-3.08c0-.06-.059-.12-.117-.12-4.192 2.39-11.237.99-11.237 6.35 0 2.09 1.631 3.43 4.018 3.43zm-13.071 4.2c.058.23 0 .4-.233.4h-6.987c-.174 0-.349-.05-.407-.29l-3.203-8.91c0-.05-.116-.11-.174-.11h-17.7c-.058 0-.175.06-.175.11l-3.144 8.91c-.058.24-.232.29-.407.29h-7.045c-.233 0-.291-.17-.233-.4l14.963-40.06c.058-.23.233-.29.408-.29h8.966c.175 0 .349.06.408.29l14.963 40.06zm-20.029-33.31l-6.346 17.64c0 .06 0 .12.058.12h12.926c.058 0 .058-.06.058-.12l-6.346-17.64-.117-.23c-.058-.06-.058-.06-.116 0l-.117.23zm-41.505 7.63c.058.06.117 0 .117-.06v-14.26c0-.24.116-.35.349-.35h6.288c.233 0 .349.11.349.35v40.05c0 .24-.116.35-.349.35h-6.288c-.233 0-.349-.11-.349-.35v-3.08c0-.06-.059-.12-.117-.06-2.212 2.62-5.414 4.08-9.432 4.08-8.151 0-13.566-6-13.566-15.38 0-9.43 5.415-15.42 13.566-15.42 4.018 0 7.22 1.51 9.432 4.13zm-7.86 20.26c5.007 0 8.268-3.55 8.268-8.97 0-5.47-3.261-8.96-8.268-8.96-4.949 0-8.093 3.49-8.093 8.96 0 5.42 3.144 8.97 8.093 8.97zm-21.018 5.47c0 .18-.117.35-.35.35h-6.288c-.232 0-.349-.11-.349-.35v-40.05c0-.24.117-.35.349-.35h6.288c.233 0 .35.11.35.35v40.05zm-28.106.94c-8.849 0-15.254-6.06-15.254-15.38 0-9.37 6.405-15.42 15.254-15.42 8.908 0 15.313 6.05 15.313 15.42 0 9.32-6.405 15.38-15.313 15.38zm0-6.41c5.182 0 8.21-3.43 8.21-8.97 0-5.58-3.028-8.96-8.21-8.96-5.065 0-8.151 3.38-8.151 8.96 0 5.54 3.086 8.97 8.151 8.97zm-27.186-14.79c-.116 0-.116.12 0 .12 4.891 1.45 7.802 4.77 7.802 9.72 0 6.29-5.124 10.77-14.265 10.77h-18.049c-.174 0-.349-.11-.349-.35v-40.05c0-.24.117-.35.349-.35h18.049c8.676 0 12.984 4.31 12.984 10.42 0 4.83-2.503 8.09-6.521 9.72zm-.931-8.44c0-3.09-2.096-4.95-5.881-4.95h-10.538c-.058 0-.117.06-.117.12v9.9c0 .05.059.11.117.11h10.363c3.552 0 6.056-2.04 6.056-5.18zm-16.536 22.3c0 .06.059.12.117.12h10.771c4.367 0 6.87-2.27 6.87-5.48 0-3.37-2.911-5.24-6.812-5.24h-10.829c-.058 0-.117.06-.117.12v10.48zm-18.636-27.6c-2.387 0-4.075-1.63-4.075-4.07 0-2.39 1.688-4.02 4.075-4.02 2.446 0 4.076 1.63 4.076 4.02 0 2.44-1.63 4.07-4.076 4.07zm3.435 34c0 .24-.116.35-.349.35h-6.288c-.233 0-.349-.11-.349-.35v-28.93c0-.24.116-.35.349-.35h6.288c.233 0 .349.11.349.35v28.93zm-26.021-29.86c7.744 0 11.819 4.65 11.819 11.93v17.93c0 .24-.116.35-.349.35h-6.23c-.175 0-.349-.11-.349-.35v-16.71c0-4.42-2.737-6.92-6.696-6.92-3.901 0-7.161 2.38-7.219 7.68v15.95c0 .24-.117.35-.35.35h-6.288c-.233 0-.349-.11-.349-.35v-16.71c0-4.42-2.678-6.92-6.638-6.92-4.133 0-7.277 2.56-7.277 8.32v15.31c0 .24-.117.35-.35.35h-6.288c-.233 0-.349-.11-.349-.35v-28.93c0-.24.116-.35.349-.35h6.288c.233 0 .35.11.35.35v3.55c0 .12.058.12.116 0 2.154-3.2 5.531-4.48 9.49-4.48 4.542 0 7.686 1.86 9.549 5.12 0 .06.116.06.175 0 2.387-3.61 6.404-5.12 10.596-5.12zm-56.742 0c10.189 0 14.439 6.63 14.032 17.11 0 .24-.175.35-.35.35h-20.843c-.058 0-.117.06-.117.12.583 5.06 3.203 7.63 7.744 7.63 3.26 0 5.706-1.34 6.754-3.73.058-.17.233-.23.407-.17l5.357 1.51c.233.06.291.23.233.46-2.038 4.78-6.638 7.52-12.809 7.52-9.199 0-14.905-5.83-14.905-15.38 0-9.37 5.822-15.42 14.497-15.42zm.233 5.53c-4.076 0-6.637 2.03-7.394 6.75 0 .06.058.12.116.12h14.09c.058 0 .117-.06.117-.18-.583-4.71-3.028-6.69-6.929-6.69zm-34.064 25.27c-9.373 0-15.603-4.37-17.001-11.77-.058-.23.117-.34.292-.4l6.404-1.4c.175-.06.349.06.408.29.873 4.54 4.425 6.99 10.305 6.99 5.124 0 8.035-2.04 8.035-5.42 0-9.95-24.861-.75-24.861-17.7 0-7.51 5.647-12.51 15.312-12.51 8.501 0 14.032 3.9 15.313 10.59.058.23-.117.35-.291.41l-6.172 1.34c-.175.06-.349-.06-.408-.29-1.048-3.96-3.726-5.82-8.675-5.82-4.89 0-7.802 2.15-7.802 5.47 0 10.77 24.629.99 24.629 17.52 0 7.69-5.357 12.7-15.488 12.7zM658.44 933.956a.446.446 0 0 1-.117.291l-11.761 11.819c-.058.058 0 .117.058.117 7.977.407 12.518 4.774 12.518 11.76 0 7.337-5.764 12.402-14.439 12.402-7.394 0-13.508-3.144-15.312-10.014-.059-.175.058-.233.174-.292l5.182-1.979c.117-.058.233 0 .291.175 1.281 4.366 4.483 6.812 9.665 6.812 5.182 0 8.384-2.795 8.384-7.045 0-4.367-3.144-6.929-9.199-6.929h-4.774c-.117 0-.233 0-.291-.174l-.932-3.319c0-.117 0-.233.058-.291l12.576-12.576c.117-.117 0-.117-.058-.117h-18.864a.25.25 0 0 1-.233-.233v-5.123a.25.25 0 0 1 .233-.233h26.608a.25.25 0 0 1 .233.233v4.716zm-54.907 30.1c0 .058.058.117.116.117h21.31c.116 0 .233.116.233.232v5.124c0 .116-.117.233-.233.233h-27.772a.25.25 0 0 1-.233-.233v-4.134c0-16.651 21.659-13.1 21.659-24.453 0-4.192-2.97-7.045-7.628-7.045-4.89 0-8.093 2.62-8.791 7.452-.058.117-.117.175-.233.175h-.117l-5.181-1.397c-.117-.059-.233-.117-.233-.292 1.048-7.277 6.637-11.411 14.555-11.411 8.676 0 13.741 5.24 13.741 12.227 0 15.137-21.193 12.401-21.193 22.998v.407zm-14.458 5.474a.25.25 0 0 1-.233.233h-5.647a.25.25 0 0 1-.233-.233v-34.992c0-.058-.058-.116-.117-.116h-8.558a.25.25 0 0 1-.233-.233v-4.949a.25.25 0 0 1 .233-.233h14.555a.25.25 0 0 1 .233.233v40.29zm-32.044.814c-8.734 0-14.964-6.113-14.964-15.312 0-9.258 6.23-15.429 14.964-15.429 7.277 0 12.517 3.668 13.915 9.956.058.116 0 .233-.117.291h-.116l-5.007 1.106c-.117 0-.233 0-.291-.175-.874-3.61-3.959-5.938-8.21-5.938-5.706 0-9.257 4.133-9.257 10.189 0 5.938 3.551 10.072 9.257 10.072 4.425 0 7.569-2.504 8.326-6.346.058-.175.175-.175.291-.175l5.066 1.106h.116c.117.059.175.175.117.291-1.34 6.463-6.58 10.364-14.09 10.364zm-37.224 0c-12.285 0-20.32-8.559-20.32-20.902 0-12.401 8.035-21.018 20.32-21.018 9.49 0 16.186 5.123 18.049 13.566.058.116 0 .233-.116.291h-.117l-5.24 1.106c-.116 0-.233 0-.291-.175-1.164-5.705-5.764-9.024-12.285-9.024-8.501 0-14.09 6.113-14.09 15.254 0 9.025 5.589 15.138 14.09 15.138 6.521 0 11.179-3.377 12.401-9.141.059-.175.175-.175.292-.175l5.298 1.048h.116c.117.059.175.175.117.292-1.98 8.5-8.675 13.74-18.224 13.74zm-38.843-30.741c8.209 0 13.682 6.114 13.682 15.429 0 9.2-5.473 15.313-13.682 15.313-4.309 0-7.744-1.689-10.015-4.716-.058-.058-.116-.058-.116.058v3.843c0 .116-.117.233-.233.233h-5.24a.25.25 0 0 1-.233-.233v-40.29a.25.25 0 0 1 .233-.233h5.24a.25.25 0 0 1 .233.233v15.079c0 .117.058.117.116.059 2.271-3.028 5.706-4.775 10.015-4.775zm-1.107 25.502c5.59 0 8.967-4.018 8.967-10.073 0-6.113-3.377-10.189-8.967-10.189-5.589 0-9.199 4.076-9.199 10.189 0 6.055 3.61 10.073 9.199 10.073zm-29.22-16.07c-.116 0-.116.117 0 .117 5.007 1.455 7.977 4.891 7.977 9.723 0 6.463-5.066 10.888-14.149 10.888h-17.758c-.116 0-.232-.117-.232-.233v-40.29c0-.117.116-.233.232-.233h17.817c8.442 0 12.692 4.192 12.692 10.363 0 4.716-2.503 8.035-6.579 9.665zm.466-8.675c0-3.726-2.504-5.88-6.987-5.88h-11.47a.125.125 0 0 0-.116.116v11.703c0 .058.058.116.116.116h11.528c4.018 0 6.929-2.387 6.929-6.055zm-18.573 23.872c0 .058.058.116.116.116h11.645c5.24 0 8.151-2.562 8.151-6.463 0-3.901-3.377-6.113-7.802-6.113h-11.994a.125.125 0 0 0-.116.116v12.344zm-14.097.639h3.086c.116 0 .233.117.233.233v4.425c0 .116-.117.233-.233.233h-6.288c-.117 0-.175 0-.291-.117l-3.028-2.969c-.058-.058-.116 0-.116.058-2.155 2.387-5.473 3.61-9.665 3.61-5.532 0-9.083-3.202-9.083-7.744 0-12.401 18.748-7.976 18.748-12.925 0-3.144-2.504-5.24-6.289-5.24-4.192 0-6.52 1.98-6.87 5.473 0 .116-.058.175-.174.175h-.117l-4.949-1.223c-.116-.058-.174-.117-.174-.233v-.116c.873-5.764 5.647-8.908 12.401-8.908 7.336 0 11.703 4.25 11.703 11.062v13.1c0 .757.407 1.106 1.106 1.106zm-14.963 1.223c4.89 0 8.326-3.377 8.326-7.569v-3.668c0-.058-.059-.117-.117-.117-4.483 2.679-12.867 1.107-12.867 7.278 0 2.446 1.863 4.076 4.658 4.076zm-12.843 3.378c.059.116 0 .291-.174.291h-5.881c-.116 0-.174 0-.233-.175l-3.842-10.131c0-.058-.117-.116-.175-.116h-18.748c-.058 0-.174.058-.174.116l-3.843 10.131c-.058.175-.116.175-.233.175h-5.88c-.175 0-.233-.175-.175-.291l15.72-40.291c.058-.174.116-.174.233-.174h7.452c.117 0 .175 0 .233.174l15.72 40.291zm-19.679-34.876l-7.336 19.214c0 .058 0 .116.058.116h14.556c.058 0 .058-.058.058-.116l-7.278-19.214h-.058zm-46.658 5.007c7.568 0 11.761 4.599 11.761 11.877v18.049c0 .116-.117.233-.233.233h-5.24a.25.25 0 0 1-.233-.233V952.47c0-4.891-2.911-7.744-7.395-7.744-4.308 0-7.918 2.562-8.093 8.442v16.361c0 .116-.116.233-.232.233h-5.24a.25.25 0 0 1-.233-.233V952.47c0-4.891-2.911-7.744-7.453-7.744-4.483 0-8.093 2.795-8.093 9.199v15.604a.25.25 0 0 1-.233.233h-5.24c-.116 0-.233-.117-.233-.233v-29.111a.25.25 0 0 1 .233-.233h5.24a.25.25 0 0 1 .233.233v4.017c0 .116.058.175.117.058 2.212-3.435 5.705-4.89 9.781-4.89 4.658 0 7.977 2.037 9.84 5.531 0 .058.116.058.174 0 2.329-3.843 6.463-5.531 10.772-5.531zm-50.398 16.418v-15.604c0-.116.116-.232.233-.232h5.24c.116 0 .233.116.233.232v29.112c0 .116-.117.233-.233.233h-5.24a.25.25 0 0 1-.233-.233v-3.377c0-.117-.058-.117-.117-.058-2.212 2.969-5.531 4.25-9.49 4.25-7.452 0-11.644-4.6-11.644-11.819v-18.108c0-.116.116-.232.233-.232h5.24a.25.25 0 0 1 .232.232v17.118c0 4.832 2.912 7.744 7.395 7.744s8.151-2.795 8.151-9.258zM241.8 935.003c-2.096 0-3.493-1.456-3.493-3.552 0-2.037 1.397-3.493 3.493-3.493s3.552 1.456 3.552 3.493c0 2.096-1.456 3.552-3.552 3.552zm2.795 34.526c0 .116-.117.233-.233.233h-5.24a.25.25 0 0 1-.233-.233v-29.111a.25.25 0 0 1 .233-.233h5.24a.25.25 0 0 1 .233.233v29.111zm-19.921-25.151c.058.058.117.058.117-.059V929.24c0-.117.116-.233.232-.233h5.241c.116 0 .232.116.232.233v40.29c0 .116-.116.233-.232.233h-5.241c-.116 0-.232-.117-.232-.233v-3.843c0-.116-.059-.116-.117-.058-2.271 3.027-5.706 4.716-10.014 4.716-8.21 0-13.682-6.113-13.682-15.313 0-9.315 5.472-15.429 13.682-15.429 4.25 0 7.743 1.747 10.014 4.775zm-8.908 20.727c5.589 0 9.199-4.018 9.199-10.073 0-6.113-3.61-10.189-9.199-10.189s-8.966 4.076-8.966 10.189c0 6.055 3.377 10.073 8.966 10.073zm-33.162-25.502c9.782 0 14.207 6.462 13.799 16.768 0 .174-.116.233-.233.233h-21.775a.125.125 0 0 0-.116.116c.524 5.939 3.609 9.025 8.791 9.025 3.785 0 6.579-1.689 7.86-4.658.058-.175.175-.233.291-.175l4.367 1.397c.116.059.233.117.175.291-1.922 4.891-6.638 7.744-12.751 7.744-9.025 0-14.672-5.88-14.672-15.312 0-9.258 5.764-15.429 14.264-15.429zm.175 4.599c-4.658 0-7.627 2.62-8.384 8.035 0 .058.058.116.116.116h16.128c.058 0 .117-.058.117-.174-.641-5.473-3.436-7.977-7.977-7.977zm-43.148 17.235c.058.058.058.058.116 0l12.635-32.256c.058-.174.116-.174.232-.174h9.025a.25.25 0 0 1 .233.233v40.29c0 .116-.117.233-.233.233h-5.648c-.116 0-.232-.117-.232-.233v-33.187c0-.117-.059-.058-.117 0l-12.809 33.245c-.058.175-.116.175-.233.175h-5.764c-.116 0-.175 0-.233-.175l-12.809-33.245c-.058-.058-.116-.117-.116 0v33.187c0 .116-.117.233-.233.233h-5.648c-.116 0-.233-.117-.233-.233v-40.29a.25.25 0 0 1 .233-.233h9.025c.116 0 .175 0 .233.174l12.576 32.256zM635.233 839.53c0 .058-.058.116-.058.116l-12.867 13.275c-.058.058 0 .116.058.116 8.733.175 13.508 4.716 13.508 11.761 0 7.278-5.648 12.285-14.09 12.285-7.395 0-13.333-3.202-15.08-9.898 0-.058 0-.116.117-.174l4.192-1.689h.116c.058 0 .058 0 .116.058 1.223 4.891 4.891 7.628 10.597 7.628 5.706 0 9.316-3.261 9.316-8.093 0-4.833-3.494-7.977-10.306-7.977h-4.425c-.058 0-.116 0-.174-.058v-.117l-.816-2.561c0-.059.059-.117.059-.175l13.507-13.799c.059-.058 0-.116-.058-.116H608.8c-.058 0-.116-.058-.116-.117v-4.133c0-.059.058-.117.116-.117h26.317c.058 0 .116.058.116.117v3.668zm-55.555 32.546c0 .058.058.117.116.117h22.241c.058 0 .117.058.117.116v4.076c0 .058-.059.116-.117.116h-27.248c-.058 0-.117-.058-.117-.116v-3.959c0-16.477 22.242-12.809 22.242-25.094 0-4.658-3.261-7.977-8.559-7.977-5.24 0-8.908 2.853-9.665 8.151a.125.125 0 0 1-.117.117l-4.308-1.048c-.058 0-.117-.059-.117-.117.99-7.394 6.638-11.295 14.149-11.295 8.384 0 13.449 5.124 13.449 11.936 0 15.254-22.066 12.226-22.066 24.162v.815zm-13.489 4.309c0 .058-.058.116-.117.116h-4.541a.125.125 0 0 1-.116-.116v-36.331c0-.059-.059-.117-.117-.117h-8.733c-.059 0-.117-.058-.117-.116v-3.959c0-.059.058-.117.117-.117h13.507c.059 0 .117.058.117.117v40.523zm-30.707.698c-8.675 0-14.789-6.171-14.789-15.254 0-9.199 6.114-15.371 14.789-15.371 7.103 0 12.227 3.784 13.624 10.014 0 .059-.058.117-.116.117l-4.134.99c-.058 0-.117-.059-.117-.117-.931-4.25-4.366-6.987-9.141-6.987-6.229 0-10.247 4.6-10.247 11.354 0 6.637 4.018 11.237 10.247 11.237 4.949 0 8.501-2.97 9.316-7.453 0-.058.058-.116.116-.116l4.134.99c.058 0 .117.058.117.116-1.281 6.521-6.521 10.48-13.799 10.48zm-37.395 0c-12.11 0-20.203-8.617-20.203-20.902 0-12.343 8.093-21.018 20.203-21.018 9.374 0 16.186 5.24 17.991 13.682a.125.125 0 0 1-.117.117l-4.308.873a.125.125 0 0 1-.116-.116c-1.281-6.347-6.463-10.131-13.45-10.131-9.199 0-15.254 6.754-15.254 16.593 0 9.782 6.055 16.419 15.254 16.419 6.987 0 12.169-3.784 13.45-10.247 0-.058.058-.116.116-.116l4.425.931c.058 0 .116.058.116.117-1.863 8.5-8.675 13.798-18.107 13.798zm-39.191-30.625c8.21 0 13.799 6.172 13.799 15.371 0 9.083-5.589 15.254-13.799 15.254-4.541 0-8.209-1.921-10.538-5.182-.058-.116-.116-.116-.116 0v4.484c0 .058-.059.116-.117.116h-4.308c-.059 0-.117-.058-.117-.116v-40.523c0-.059.058-.117.117-.117h4.308c.058 0 .117.058.117.117v15.778c0 .116.058.116.116.058 2.271-3.319 5.939-5.24 10.538-5.24zm-.698 26.608c6.229 0 9.956-4.542 9.956-11.237 0-6.812-3.727-11.354-9.956-11.354-6.172 0-10.131 4.542-10.131 11.354 0 6.695 3.959 11.237 10.131 11.237zm-29.975-17.409c-.117 0-.117.117 0 .117 5.181 1.397 8.384 4.89 8.384 9.781 0 6.521-5.007 10.946-14.032 10.946H405.05a.125.125 0 0 1-.116-.116v-40.523c0-.059.058-.117.116-.117h17.583c8.326 0 12.518 4.017 12.518 10.364 0 4.658-2.678 8.034-6.928 9.548zm2.096-8.908c0-4.308-2.853-6.812-8.152-6.812h-12.284a.125.125 0 0 0-.117.117v13.565c0 .059.058.117.117.117h12.692c4.425 0 7.744-2.795 7.744-6.987zm-20.553 25.502c0 .058.058.116.117.116h12.459c6.055 0 9.374-2.969 9.374-7.569 0-4.308-3.784-6.986-8.792-6.986h-13.041c-.059 0-.117.058-.117.116v14.323zm-13.637.407h3.551c.058 0 .117.058.117.117v3.609c0 .059-.059.117-.117.117h-5.647c-.059 0-.117-.058-.117-.058l-3.318-3.261c-.059-.058-.117 0-.117.058-2.154 2.562-5.589 3.843-9.781 3.843-5.415 0-8.967-3.086-8.967-7.569 0-12.401 19.097-7.86 19.097-13.158 0-3.668-2.736-6.114-6.986-6.114-4.6 0-7.336 2.271-7.686 6.405a.125.125 0 0 1-.116.116l-4.076-.989c-.058 0-.116-.059-.116-.117.64-5.939 5.356-9.199 12.052-9.199 7.045 0 11.353 4.076 11.353 10.713v14.614c0 .64.291.873.874.873zm-14.498 1.048c5.415 0 9.199-3.668 9.199-8.5v-4.192c0-.059-.058-.117-.116-.117-4.774 2.795-14.439 1.165-14.439 8.093 0 2.853 2.096 4.716 5.356 4.716zm-12.618 2.679c0 .058-.059.116-.117.116h-4.658c-.058 0-.116 0-.116-.058-.058-.058-.058-.117-.058-.117l-4.542-11.295c0-.058-.116-.116-.174-.116h-19.621c-.059 0-.175.058-.175.116l-4.541 11.295s0 .117-.059.117c0 .058-.058.058-.116.058h-4.774c-.058 0-.117-.058-.117-.116l16.536-40.465s0-.117.058-.117c0-.058.058-.058.116-.058h5.706c.058 0 .116 0 .116.058.059.059.059.117.059.117l16.477 40.465zm-19.447-36.099c-.058-.058-.058-.058-.116 0l-8.151 20.437c0 .058 0 .116.058.116h16.302c.059 0 .117-.058.117-.116l-8.21-20.437zm-43.015 11.644c0 .116.058.116.117.058 2.387-4.308 6.288-6.055 11.644-5.24.058 0 .117.058.117.117v4.133c0 .059-.059.117-.117.117-8.442-1.514-11.761 3.377-11.761 12.925v12.344a.125.125 0 0 1-.116.116h-4.309a.125.125 0 0 1-.116-.116v-29.228c0-.058.058-.117.116-.117h4.309c.058 0 .116.059.116.117v4.774zm-12.88 20.728h3.551c.058 0 .117.058.117.117v3.609c0 .059-.059.117-.117.117h-5.647c-.059 0-.117-.058-.117-.058l-3.318-3.261c-.059-.058-.117 0-.117.058-2.154 2.562-5.589 3.843-9.781 3.843-5.415 0-8.967-3.086-8.967-7.569 0-12.401 19.097-7.86 19.097-13.158 0-3.668-2.736-6.114-6.986-6.114-4.6 0-7.336 2.271-7.686 6.405a.125.125 0 0 1-.116.116l-4.076-.989c-.058 0-.116-.059-.116-.117.64-5.939 5.356-9.199 12.052-9.199 7.045 0 11.353 4.076 11.353 10.713v14.614c0 .64.291.873.874.873zm-14.498 1.048c5.415 0 9.199-3.668 9.199-8.5v-4.192c0-.059-.058-.117-.116-.117-4.774 2.795-14.439 1.165-14.439 8.093 0 2.853 2.096 4.716 5.356 4.716zm-17.199 2.679a.125.125 0 0 1-.116.116h-4.309a.125.125 0 0 1-.116-.116v-40.523c0-.059.058-.117.116-.117h4.309c.058 0 .116.058.116.117v40.523zm-18.088-13.334v-15.895c0-.058.058-.116.116-.116h4.25c.059 0 .117.058.117.116v29.228c0 .058-.058.117-.117.117h-4.25c-.058 0-.116-.059-.116-.117V872.6c0-.117-.058-.117-.117 0-2.27 3.144-5.764 4.483-9.781 4.483-7.336 0-11.703-4.483-11.703-11.703v-18.224c0-.058.058-.116.117-.116h4.25c.058 0 .116.058.116.116v17.409c0 5.357 3.203 8.617 8.21 8.617 4.832 0 8.908-3.028 8.908-10.131zm-34.827-11.469c.059.116.117.116.117 0v-4.425c0-.059.058-.117.116-.117h4.309c.058 0 .116.058.116.117v37.204c0 .058-.058.116-.058.116l-3.61 3.61s-.058.058-.116.058H189.38a.125.125 0 0 1-.116-.116v-3.552c0-.058.058-.116.116-.116h19.679c.059 0 .117-.058.117-.116v-12.984c0-.117-.058-.117-.117 0-2.329 3.26-5.938 5.182-10.596 5.182-8.21 0-13.799-6.055-13.799-14.964 0-9.024 5.589-15.021 13.799-15.021 4.599 0 8.267 1.863 10.596 5.124zm-9.897 20.902c6.171 0 10.188-4.425 10.188-11.005 0-6.637-4.017-11.12-10.188-11.12-6.172 0-9.898 4.483-9.898 11.12 0 6.58 3.726 11.005 9.898 11.005zm-33.046-26.026c9.257 0 13.857 6.346 13.624 16.302a.125.125 0 0 1-.117.117H156.8a.125.125 0 0 0-.116.116c.407 6.754 4.017 10.422 9.839 10.422 4.25 0 7.569-1.921 8.908-5.531.058-.058.058-.116.175-.058l3.493 1.164c.059.058.117.058.117.117 0 .058-.058.116-.058.116-1.922 5.007-6.58 7.86-12.635 7.86-8.791 0-14.439-5.88-14.439-15.254 0-9.083 5.648-15.371 14.032-15.371zm.116 3.668c-5.24 0-8.675 3.144-9.432 9.199 0 .058.058.117.116.117h18.224c.058 0 .117-.059.117-.175-.583-6.113-3.96-9.141-9.025-9.141zm-18.1 26.259c.058.116 0 .116-.059.116H142.426c-.058 0-.117-.116-.117-.116l-11.761-15.604c0-.058-.116-.058-.174-.058h-7.511a.125.125 0 0 0-.116.116v15.546c0 .058-.059.116-.117.116h-4.599c-.059 0-.117-.058-.117-.116v-40.523c0-.059.058-.117.117-.117h16.127c8.442 0 13.624 5.065 13.624 12.46 0 6.812-4.483 11.644-11.877 12.343-.117 0-.117 0-.058.116l12.285 15.721zm-14.731-36.448h-10.538c-.058 0-.116.058-.116.117v16.36c0 .058.058.117.116.117h10.538c5.997 0 9.491-3.086 9.491-8.326 0-5.066-3.436-8.268-9.491-8.268zm418.311-80.103c-.058.058 0 .116.059.116h.291c9.374 0 14.323 4.774 14.323 11.703 0 7.22-5.532 12.168-13.799 12.168-7.394 0-12.984-3.318-14.731-9.781 0-.058.059-.058.059-.058l3.202-1.456.058.059c1.223 5.298 5.357 8.325 11.528 8.325 6.23 0 10.247-3.726 10.247-9.082 0-5.357-3.784-9.025-11.353-9.025h-4.017l-.059-.058-.698-1.98.058-.116 14.323-14.905c.058-.058 0-.117-.058-.117h-21.368l-.058-.058v-3.027l.058-.059h25.967l.058.059v2.561l-14.09 14.731zm-42.058 20.261c0 .059.059.117.117.117h23.114l.058.058v2.911l-.058.058h-26.607l-.059-.058v-3.668c0-16.36 22.882-12.518 22.882-25.851 0-5.065-3.668-8.791-9.607-8.791-5.648 0-9.723 3.027-10.364 8.733 0 .058-.058.058-.058.058l-3.318-.582-.059-.058c.932-7.394 6.521-11.121 13.799-11.121 8.093 0 13.1 5.008 13.1 11.703 0 15.313-22.94 11.994-22.94 25.269v1.222zm-12.577 3.086l-.058.058h-3.377l-.058-.058v-37.554a.125.125 0 0 0-.116-.116h-8.85l-.058-.058v-2.911l.058-.059h12.401l.058.059v40.639zm-29.485.64c-8.5 0-14.497-6.23-14.497-15.196 0-9.083 5.997-15.313 14.497-15.313 6.929 0 11.936 3.843 13.333 9.957 0 .058-.058.058-.058.058l-3.028.873-.058-.058c-.99-4.891-4.774-8.035-10.072-8.035-6.754 0-11.237 5.066-11.237 12.518 0 7.336 4.483 12.401 11.237 12.401 5.473 0 9.373-3.376 10.247-8.558 0-.058.058-.058.058-.058l3.028.873.058.058c-1.165 6.405-6.346 10.48-13.508 10.48zm-37.448.001c-11.994 0-20.029-8.676-20.029-20.902 0-12.285 8.035-21.019 20.029-21.019 9.315 0 16.127 5.357 17.874 13.683 0 .058-.058.058-.058.058l-3.261.64-.058-.058c-1.397-6.987-6.986-11.179-14.497-11.179-9.898 0-16.419 7.336-16.419 17.875 0 10.48 6.521 17.758 16.419 17.758 7.511 0 13.158-4.251 14.497-11.296 0-.058.058-.058.058-.058l3.377.641.059.058c-1.747 8.384-8.617 13.799-17.991 13.799zm-39.598-30.509c8.268 0 13.915 6.23 13.915 15.312 0 8.967-5.647 15.196-13.915 15.196-4.891 0-8.792-2.154-11.121-5.88-.058-.116-.116-.058-.116.058v5.182l-.058.058h-3.203l-.058-.058v-40.639l.058-.059h3.203l.058.059v16.593c0 .117.058.175.116.058 2.271-3.668 6.23-5.88 11.121-5.88zm-.233 27.714c6.812 0 10.829-5.066 10.829-12.402 0-7.452-4.017-12.518-10.829-12.518-6.754 0-11.121 5.066-11.121 12.518 0 7.336 4.367 12.402 11.121 12.402zm-30.728-18.69c-.117 0-.117.117 0 .117 5.298 1.339 8.733 4.89 8.733 9.723 0 6.696-4.949 11.062-13.915 11.062h-17.176l-.058-.058v-40.639l.058-.059h17.234c8.151 0 12.285 3.901 12.285 10.364 0 4.541-2.795 8.035-7.161 9.49zm3.668-9.199c0-4.949-3.261-7.743-9.258-7.743h-13.216c-.058 0-.117.058-.117.116v15.371c0 .058.059.116.117.116h13.857c4.89 0 8.617-3.144 8.617-7.86zm-22.591 27.074c0 .058.059.116.117.116h13.333c6.87 0 10.654-3.26 10.654-8.559 0-4.832-4.25-7.86-9.839-7.86h-14.148c-.058 0-.117.059-.117.117v16.186zm-13.064.29h3.959l.058.059v2.62l-.058.058h-4.832s-.059 0-.117-.058l-3.551-3.494c-.059-.058-.117 0-.117.059-2.212 2.678-5.706 4.075-9.956 4.075-5.298 0-8.792-2.969-8.792-7.394 0-12.46 19.505-7.744 19.505-13.45 0-4.133-3.028-6.87-7.802-6.87-4.949 0-8.093 2.446-8.442 7.162 0 .058-.058.058-.058.058l-3.086-.582-.058-.059c.524-5.938 4.949-9.374 11.644-9.374 6.754 0 11.004 3.96 11.004 10.364v16.128c0 .466.233.698.699.698zm-14.09.874c6.055 0 10.189-4.018 10.189-9.49v-4.717a.125.125 0 0 0-.116-.116c-5.008 3.028-16.07 1.164-16.07 8.966 0 3.203 2.329 5.357 5.997 5.357zm-12.45 1.805l-.058.058h-3.494l-.058-.058-5.298-12.518c0-.058-.117-.116-.175-.116h-20.494c-.058 0-.175.058-.175.116l-5.298 12.518-.058.058h-3.552l-.058-.058 17.292-40.639.058-.059h4.076l.058.059 17.234 40.639zm-19.272-37.204c-.058-.058-.058-.058-.116 0l-9.083 21.659c0 .058.058.116.116.116h18.049c.059 0 .117-.058.117-.116l-9.083-21.659zm-44.795 10.655c-.059 0-.117.058-.117.116v23.639c0 .058.058.116.117.116h11.528l.058.058v2.62l-.058.059h-11.878l-.116-.059-2.795-2.794-.058-.117v-35.05l.058-.058h3.086l.058.058v8.559c0 .058.058.117.117.117h11.469l.059.058v2.62l-.059.058h-11.469zm-24.264-3.319c7.278 0 11.703 4.425 11.703 11.644v18.224l-.058.058h-3.203l-.058-.058v-17.7c0-5.764-3.377-9.432-8.908-9.432-5.24 0-9.723 3.319-9.723 11.063v16.069l-.058.058h-3.203l-.058-.058v-40.639l.058-.059h3.203l.058.059v15.72c0 .116.058.116.116 0 2.271-3.377 5.939-4.949 10.131-4.949zm-26.73 5.764c.058.116.116.058.116-.059v-5.065l.058-.058h3.203l.058.058v37.961s0 .058-.058.117l-2.795 2.794c-.058.058-.117.058-.117.058h-20.727l-.058-.058v-2.62l.058-.058h20.262a.125.125 0 0 0 .116-.116v-14.44c0-.116-.058-.174-.116-.058-2.329 3.668-6.23 5.764-11.121 5.764-8.267 0-13.915-6.113-13.915-14.963 0-8.908 5.648-15.022 13.915-15.022 4.891 0 8.792 2.097 11.121 5.765zm-10.888 21.484c6.754 0 11.121-5.007 11.121-12.227 0-7.336-4.367-12.285-11.121-12.285-6.812 0-10.829 4.949-10.829 12.285 0 7.22 4.017 12.227 10.829 12.227zm-23.441-32.953c-1.397 0-2.387-1.048-2.387-2.445 0-1.398.99-2.388 2.387-2.388 1.398 0 2.446.99 2.446 2.388 0 1.397-1.048 2.445-2.446 2.445zm1.631 35.574l-.059.058h-3.202l-.058-.058v-29.228l.058-.058h3.202l.059.058v29.228zm-31.543-40.699l.059.059v37.67c0 .058.058.116.116.116h22.183l.058.058v2.795l-.058.058H118.38l-.059-.058v-40.639l.059-.059h3.376zM267.2 142.661c.268 0 .537.268.537.537v18.268c0 .269-.269.538-.537.538H160.814c-.269 0-.537.268-.537.537v62.595c0 .269.268.538.537.538h94.296c.269 0 .538.268.538.537v18.268c0 .269-.269.537-.538.537h-94.296c-.269 0-.537.269-.537.538v65.013c0 .269.268.537.537.537H267.2c.268 0 .537.269.537.538v18.537c0 .268-.269.537-.537.537H138.516c-.268 0-.537-.269-.537-.537V143.198c0-.269.269-.537.537-.537H267.2zm197.315 49.431c34.118 0 53.998 20.955 53.998 54.268v83.819c0 .268-.268.537-.537.537h-19.612c-.268 0-.537-.269-.537-.537v-80.327c0-24.447-14.776-39.76-37.879-39.76-21.224 0-39.761 13.164-40.835 42.715v77.372c0 .268-.269.537-.538.537h-19.88c-.268 0-.537-.269-.537-.537v-80.327c0-24.447-14.507-39.76-37.611-39.76-22.567 0-41.103 14.238-41.103 47.014v73.073c0 .268-.269.537-.538.537h-19.88c-.268 0-.537-.269-.537-.537V195.316c0-.268.269-.537.537-.537h19.88c.269 0 .538.269.538.537v20.149c0 .537.268.806.537.269 10.477-16.657 26.865-23.642 45.939-23.642 22.835 0 38.417 10.209 46.745 27.671 0 .538.537.538.806 0 10.477-19.074 30.089-27.671 51.044-27.671zm152.532 141.31c-39.76 0-68.237-28.477-68.237-70.386 0-42.447 28.477-70.924 68.237-70.924 39.76 0 67.968 28.477 67.968 70.924 0 41.909-28.208 70.386-67.968 70.386zm0-18.537c28.745 0 47.014-20.686 47.014-51.849 0-31.432-18.269-52.387-47.014-52.387-28.477 0-46.745 20.955-46.745 52.387 0 31.163 18.268 51.849 46.745 51.849zM737.885 212.51c-.269 0-.537.268-.537.537v99.401c0 .268.268.537.537.537h51.043c.269 0 .538.269.538.537v16.657c0 .268-.269.537-.538.537h-54.804c-.269 0-.538-.269-.538-.269l-16.387-16.656s-.269-.269-.269-.537V155.019c0-.269.269-.538.537-.538h19.343c.269 0 .538.269.538.538v39.223c0 .268.268.537.537.537h50.775c.268 0 .537.269.537.537v16.657c0 .268-.269.537-.537.537h-50.775zm89.492-44.327c-7.791 0-13.433-5.642-13.433-13.702 0-8.059 5.642-13.432 13.433-13.432 8.059 0 13.97 5.373 13.97 13.432 0 8.06-5.911 13.702-13.97 13.702zm10.477 161.996c0 .268-.269.537-.537.537h-19.88c-.269 0-.538-.269-.538-.537V195.316c0-.268.269-.537.538-.537h19.88c.268 0 .537.269.537.537v134.863zm93.06-21.492c.269.268.269.268.537 0l46.477-113.102s0-.537.268-.537c0-.269.269-.269.538-.269h19.88c.269 0 .537.269.537.537L943.003 329.91s0 .537-.268.537c0 .269-.269.269-.538.269h-22.298c-.268 0-.537 0-.537-.269-.269-.268-.269-.537-.269-.537l-56.416-134.594c0-.268.269-.537.537-.537H883.9c.269 0 .538 0 .538.269.268.268.268.537.268.537l46.208 113.102zm145.176-116.595c42.72 0 63.94 29.283 62.86 75.222 0 .269-.26.538-.53.538h-105.31c-.27 0-.54.268-.54.537 1.88 31.163 18.54 48.088 45.4 48.088 19.61 0 34.93-8.865 41.1-25.521.27-.269.27-.538.81-.269l16.12 5.373c.27.269.54.269.54.537 0 .269-.27.538-.27.538-8.87 23.103-30.36 36.267-58.3 36.267-40.57 0-66.62-27.133-66.62-70.386 0-41.909 26.05-70.924 64.74-70.924zm.54 16.925c-24.18 0-40.03 14.507-43.52 42.447 0 .269.26.537.53.537h84.09c.27 0 .54-.268.54-.806-2.69-28.208-18.27-42.178-41.64-42.178zM203.261 588.402c-42.716 0-71.998-21.492-77.64-56.685 0-.268.269-.537.537-.537l20.418-4.299c.268 0 .537.269.537.538 3.761 26.596 24.984 41.909 57.491 41.909 29.552 0 46.208-12.895 46.208-33.581 0-55.611-121.699-8.328-121.699-87.043 0-32.238 26.597-53.73 67.7-53.73 38.686 0 63.402 18.537 69.043 48.626 0 .269-.268.537-.537.537l-19.88 4.03c-.269 0-.537-.269-.537-.537-4.299-21.761-20.418-33.85-48.357-33.85-27.94 0-45.671 12.626-45.671 32.775 0 59.909 121.161 11.015 121.161 86.237 0 33.85-25.253 55.61-68.774 55.61zm204.717-20.417h16.388c.269 0 .537.269.537.537v16.657c0 .268-.268.537-.537.537h-26.059c-.269 0-.537-.269-.537-.269l-15.313-15.044c-.269-.269-.538 0-.538.268-9.94 11.821-25.79 17.731-45.133 17.731-24.984 0-41.372-14.238-41.372-34.924 0-57.223 88.117-36.268 88.117-60.715 0-16.925-12.626-28.208-32.238-28.208-21.223 0-33.85 10.477-35.462 29.551 0 .269-.268.537-.537.537l-18.805-4.567c-.269 0-.538-.268-.538-.537 2.956-27.402 24.716-42.447 55.611-42.447 32.507 0 52.387 18.806 52.387 49.432v67.431c0 2.955 1.343 4.03 4.029 4.03zm-66.893 4.836c24.984 0 42.446-16.925 42.446-39.223v-19.343c0-.269-.268-.537-.537-.537-22.029 12.895-66.625 5.373-66.625 37.342 0 13.164 9.671 21.761 24.716 21.761zM513.35 447.092c33.85 0 53.73 20.955 53.73 54.268v83.819c0 .268-.269.537-.537.537h-19.88c-.269 0-.538-.269-.538-.537v-80.327c0-24.447-14.507-39.76-37.611-39.76-22.566 0-41.103 14.238-41.103 47.014v73.073c0 .268-.269.537-.537.537h-19.88c-.269 0-.538-.269-.538-.537V450.316c0-.268.269-.537.538-.537h19.88c.268 0 .537.269.537.537v18.537c0 .537.269.537.537 0 10.209-15.044 26.597-21.761 45.402-21.761zm140.68 141.31c-30.626 0-52.118-13.164-58.565-37.342 0-.269.268-.806.537-.806l18.537-4.836c.268 0 .537.269.537.538 4.298 18.268 19.074 26.327 39.76 26.327 19.074 0 31.97-5.91 31.97-23.641 0-38.148-87.58-4.03-87.58-61.252 0-28.477 23.372-40.298 51.312-40.298 29.82 0 48.088 12.09 53.999 34.925 0 .269-.269.806-.538.806L686 487.39c-.269 0-.538 0-.538-.269-4.029-16.387-16.387-23.641-35.461-23.641-15.582 0-31.164 5.91-31.164 22.835 0 37.88 88.386 3.761 88.386 60.447 0 27.402-21.492 41.64-53.193 41.64z" fill="#fff"></path><path d="M1816.96 788.391c-.6 0-1.2.602-1.2 1.203V1033.7c0 .61.6 1.21 1.2 1.21h118.94l.6.6v27.06l-.6.6h-122.54l-1.2-.6-28.84-28.87-.6-1.2V670.545l.6-.602h31.84l.6.602v88.385c0 .601.6 1.202 1.2 1.202h118.34l.6.601v27.057l-.6.601h-118.34zm-168.87 25.256c.61 1.202 1.21.601 1.21-.602v-52.309l.6-.601h33.04l.6.601v392.024s0 .6-.6 1.2l-28.84 28.86c-.6.6-1.2.6-1.2.6h-213.85l-.6-.6v-27.06l.6-.6h209.04c.61 0 1.21-.6 1.21-1.2v-149.11c0-1.21-.6-1.81-1.21-.6-24.02 37.87-64.27 59.52-114.73 59.52-85.3 0-143.57-63.13-143.57-154.523 0-91.993 58.27-155.125 143.57-155.125 50.46 0 90.71 21.645 114.73 59.525zm-112.33 221.863c69.68 0 114.74-51.707 114.74-126.263 0-75.759-45.06-126.866-114.74-126.866-70.28 0-111.73 51.107-111.73 126.866 0 74.556 41.45 126.263 111.73 126.263zm-162.39-411.264l.6.601v27.057l-.6.601h-118.94c-.6 0-1.2.601-1.2 1.203v105.22c0 .601.6 1.203 1.2 1.203h118.34l.6.601v27.056l-.6.602h-118.34c-.6 0-1.2.601-1.2 1.202v272.968l-.6.6h-33.04l-.6-.6V654.91l.6-1.202 28.83-28.861 1.21-.601h123.74zm-247.71 410.664h40.85l.6.6v27.05l-.6.61h-49.86s-.6 0-1.2-.61l-36.64-36.07c-.61-.6-1.21 0-1.21.6-22.82 27.66-58.87 42.09-102.717 42.09-54.665 0-90.707-30.67-90.707-76.362 0-128.67 201.234-79.968 201.234-138.891 0-42.689-31.23-70.948-80.49-70.948-51.062 0-83.5 25.252-87.105 73.954 0 .602-.6.602-.6.602l-31.838-6.013-.601-.601c5.407-61.329 51.061-96.803 120.144-96.803 69.68 0 113.53 40.886 113.53 107.024v166.548c0 4.81 2.41 7.22 7.21 7.22zm-145.371 9.01c62.471 0 105.121-41.48 105.121-98v-48.702c0-.602-.6-1.203-1.2-1.203-51.66 31.266-165.794 12.025-165.794 92.594 0 33.071 24.029 55.311 61.873 55.311z" fill="#5E616A" fill-opacity=".8"></path><path fill-rule="evenodd" clip-rule="evenodd" d="M1079.03 1103.85c37.43 0 67.78-30.38 67.78-67.85 0-37.473-30.35-67.845-67.78-67.845s-67.78 30.372-67.78 67.845c0 37.47 30.35 67.85 67.78 67.85zm0 4.43c39.89 0 72.22-32.36 72.22-72.28 0-39.917-32.33-72.277-72.22-72.277-39.88 0-72.21 32.36-72.21 72.277 0 39.92 32.33 72.28 72.21 72.28zm153.63-396.669c37.43 0 67.78-30.371 67.78-67.845 0-37.474-30.35-67.846-67.78-67.846s-67.78 30.372-67.78 67.846c0 37.474 30.35 67.845 67.78 67.845zm0 4.433c39.88 0 72.21-32.36 72.21-72.278 0-39.919-32.33-72.279-72.21-72.279-39.88 0-72.21 32.36-72.21 72.279 0 39.918 32.33 72.278 72.21 72.278zm424.07 505.666c37.43 0 67.78-30.37 67.78-67.85 0-37.47-30.35-67.84-67.78-67.84s-67.78 30.37-67.78 67.84c0 37.48 30.35 67.85 67.78 67.85zm0 4.43c39.88 0 72.21-32.36 72.21-72.28s-32.33-72.28-72.21-72.28c-39.88 0-72.21 32.36-72.21 72.28s32.33 72.28 72.21 72.28zm137.99-118.61c37.43 0 67.78-30.37 67.78-67.84 0-37.48-30.35-67.85-67.78-67.85s-67.78 30.37-67.78 67.85c0 37.47 30.35 67.84 67.78 67.84zm0 4.43c39.88 0 72.21-32.36 72.21-72.27 0-39.923-32.33-72.283-72.21-72.283-39.88 0-72.21 32.36-72.21 72.283 0 39.91 32.33 72.27 72.21 72.27z" fill="#00F890"></path></g><defs><clipPath id="clip0_164_9747"><path fill="#fff" transform="translate(0 .778)" d="M0 0H1919.72V1292H0z"></path></clipPath></defs></svg> 