<?xml version="1.0" encoding="UTF-8"?> <svg xmlns="http://www.w3.org/2000/svg" width="715" height="560" fill="none"><path d="M150.543 259.551H72.211c-.757 0-1.211-.453-1.211-1.209v-19.133c0-.755.454-1.209 1.211-1.209h78.332c.757 0 1.211.454 1.211 1.209v19.133c0 .756-.454 1.209-1.211 1.209zm-64.297 83.333l-14.64-14.617c-.455-.453-.606-.907-.606-1.502v-46.116c0-.756.454-1.21 1.211-1.21h78.332c.757 0 1.211.454 1.211 1.21v18.991c0 .755-.454 1.209-1.211 1.209H95.454c-.151 0-.302.151-.302.302v20.493c0 .151.151.303.302.303h55.098c.758 0 1.212.453 1.212 1.209v19.142c0 .756-.454 1.209-1.212 1.209H87.751c-.606 0-1.06-.151-1.505-.604v-.019zm205.127-46.712v46.116c0 .756-.454 1.21-1.211 1.21h-18.719c-.757 0-1.212-.454-1.212-1.21v-42.346c0-10.251-6.34-15.675-15.397-15.675s-16.6 5.575-16.6 17.782v40.239c0 .756-.454 1.21-1.211 1.21h-18.719c-.758 0-1.212-.454-1.212-1.21v-42.346c0-10.251-6.341-15.675-15.397-15.675-9.663 0-16.751 5.877-16.751 19.142v38.879c0 .756-.454 1.21-1.212 1.21h-18.719c-.757 0-1.211-.454-1.211-1.21v-74.602c0-.756.454-1.209 1.211-1.209h18.719c.758 0 1.212.453 1.212 1.209v8.135c0 .302.151.302.303 0 5.432-7.681 13.883-10.847 24-10.847 11.167 0 19.325 4.517 24 12.207 0 .152.303.152.454 0 6.341-8.588 16.458-12.207 26.868-12.207 20.527 0 30.795 12.359 30.795 31.198h.009zm93.588 8.891c0 23.204-17.811 39.937-42.266 39.937-24.454 0-42.265-16.723-42.265-39.937s17.811-40.089 42.265-40.089c24.455 0 42.266 16.875 42.266 40.089zm-21.587 0c0-11.754-8.754-20.191-20.679-20.191-11.924 0-20.527 8.437-20.527 20.191 0 11.753 8.603 20.19 20.527 20.19 11.925 0 20.679-8.437 20.679-20.19zm76.372-20.04h-24.303c-.151 0-.302.151-.302.303v39.635c0 .151.151.302.302.302h24.909c.757 0 1.202.453 1.202 1.209v15.826c0 .756-.454 1.209-1.202 1.209h-29.584c-.605 0-1.06-.151-1.514-.604l-14.64-14.617c-.455-.453-.606-.907-.606-1.502v-81.547c0-.756.454-1.209 1.211-1.209h18.72c.757 0 1.211.453 1.211 1.209v20.947c0 .151.151.302.303.302h24.303c.757 0 1.211.454 1.211 1.209v16.128c0 .756-.454 1.21-1.211 1.21l-.01-.01zm29.735 58.465h-18.719c-.757 0-1.211-.453-1.211-1.209v-74.593c0-.756.454-1.209 1.211-1.209h18.719c.758 0 1.212.453 1.212 1.209v74.593c0 .756-.454 1.209-1.212 1.209zm51.323-26.067l23.091-50.028c.303-.605.909-.907 1.514-.907h19.477c.908 0 1.202.605.908 1.361l-34.561 74.744c-.303.604-.909.907-1.515.907h-18.265c-.605 0-1.211-.303-1.514-.907l-35.016-74.744c-.303-.756 0-1.361.909-1.361h20.224c.605 0 1.202.302 1.504.907l22.941 50.028c.101.101.202.101.303 0zm121.514-6.935c0 .756-.454 1.209-1.211 1.209h-57.36c-.151 0-.303.152-.303.303 2.262 10.846 10.117 15.825 21.89 15.825 10.864 0 15.549-3.316 20.83-7.983.605-.454 1.211-.303 1.665.151l10.42 10.393c.454.453.606 1.209.151 1.804C631.151 339.87 620.287 345 603.981 345c-25.96 0-42.72-14.919-42.72-39.786 0-24.868 16.751-40.23 41.205-40.23 28.979 0 41.357 17.479 39.852 45.511v-.009zm-58.713-14.314c0 .151.151.302.303.302h37.136c.151 0 .303-.151.303-.302-1.959-10.393-8.451-14.314-18.114-14.314-10.713 0-17.357 3.921-19.618 14.314h-.01z" fill="#000"></path></svg> 