<?xml version="1.0" encoding="UTF-8"?> <svg xmlns="http://www.w3.org/2000/svg" width="715" height="715" fill="none"><path d="M184.57 320.977l-14.263 14.109h-6.475l-14.315-14.161v-8.344h7v5.47l6.983 6.908v-24.497h7v24.635l7.035-6.959-.035-5.54 7-.035.07 8.414zm-7.07 21.034v-6.925h7v13.85h-35v-13.85h7v6.925h21zm93.75-13.843v-6.475l-15.942-15.943h-8.558v7h5.653l12.18 12.18-12.18 12.18h-5.653v7h8.558l15.942-15.942zM333.5 346h35v-12.25l-7-7h-21l-7 7V346zm8.75-33.25a8.744 8.744 0 0 0 5.402 8.084 8.755 8.755 0 0 0 9.535-1.897 8.753 8.753 0 0 0 1.897-9.535A8.746 8.746 0 0 0 351 304a8.749 8.749 0 0 0-8.75 8.75zm85.718 32.218l15.033-15.015 15.015 15.015 4.952-4.935L447.936 325l15.032-15.032-4.952-4.935-15.015 15.015-15.033-15.015-4.952 4.935L438.048 325l-15.032 15.033 4.952 4.935zm-251.762 57.98V396h-10.395l-7.56 7.56V438h8.05v-22.26h9.905v-7.105h-9.905v-5.687h9.905zm74.762 10.552h16.065l14-14h-44.065l14 14zm-1.435 3.5L234.5 401.968V427.5l7 7h42v-32.532L268.468 417h-18.935zm97.966 21h7v-17.5h17.5v-7h-17.5V396h-7v17.5h-17.5v7h17.5V438zm74.57-22.785a21.001 21.001 0 0 1 20.248-19.25l-9.748 9.782v9.468h-10.5zm14 11.532l7 7 7-7v-8.032h-14v8.032zm7.77-30.782l9.73 9.782v9.468h10.343a21 21 0 0 0-20.073-19.25zm6.23 11.217l-7-7-7 7v8.033h14v-8.033zm13.843 11.533h-10.343v9.467l-9.73 9.783a21.004 21.004 0 0 0 20.073-19.25zm-21.595 19.25l-9.748-9.783v-9.467h-10.5a20.999 20.999 0 0 0 20.248 19.25zM149.5 503.75a17.5 17.5 0 1 1 31.973 9.852L169.87 531.75h-5.74l-11.602-18.148a17.495 17.495 0 0 1-3.028-9.852zm12.25 5.25h10.5v-10.5h-10.5V509zm108.345 6.143l12.373 12.39-4.935 4.935-12.39-12.373a17.498 17.498 0 0 1-27.126-15.481 17.5 17.5 0 1 1 32.078 10.529zm-5.845-18.393h-17.5v17.5h17.5v-17.5zm76.25 36.75l-7-7v-22.75h5.25v-7a12.242 12.242 0 0 1 3.749-8.596 12.254 12.254 0 0 1 19.906 4.346c.588 1.497.875 3.096.845 4.705v6.545h5.25v29.75h-28zm12.25-19.25h-3.5V523h3.5v-8.75zm-7-10.5h10.5v-6.545A5.374 5.374 0 0 0 351 491.5a5.25 5.25 0 0 0-5.25 5.25v7zm76.249 8.75h42v-7h-42v7zm0-14h42v-7h-42v7zm0 28h42v-7h-42v7z" fill="#000"></path><circle cx="199.871" cy="182.129" r="8.129" fill="#000"></circle><path fill="#000" d="M148 174.774H163.871V190.645H148z"></path><path d="M171.613 174.774l15.871 15.871h-15.871v-15.871zm-16.809 36.214c-.009 0-.014.005-.014.014 0 .009.005.014.014.014.635.168 1.129.457 1.484.868s.532.905.532 1.484c0 .803-.299 1.442-.896 1.918-.588.476-1.414.714-2.478.714h-4.214c-.019 0-.028-.009-.028-.028v-9.744c0-.019.009-.028.028-.028h4.228c.98 0 1.727.219 2.24.658.513.439.77 1.05.77 1.834 0 .551-.149 1.027-.448 1.428-.289.392-.695.681-1.218.868zm.504-2.142c0-.523-.168-.924-.504-1.204-.336-.289-.821-.434-1.456-.434h-2.954c-.019 0-.028.009-.028.028v3.262c0 .019.009.028.028.028h3.052c.541 0 .985-.154 1.33-.462.355-.317.532-.723.532-1.218zm-4.942 6.132c0 .019.009.028.028.028h2.996c.719 0 1.274-.163 1.666-.49.392-.327.588-.77.588-1.33 0-.513-.201-.919-.602-1.218-.392-.308-.896-.462-1.512-.462h-3.136c-.019 0-.028.009-.028.028v3.444zm16.56.098c.018 0 .028.009.028.028v.868c0 .019-.01.028-.028.028h-1.358l-.028-.014-.798-.784c-.01-.009-.019-.009-.028 0v.014a2.364 2.364 0 0 1-.98.7 3.928 3.928 0 0 1-1.372.224c-.644 0-1.167-.168-1.568-.504-.392-.336-.588-.775-.588-1.316 0-.56.144-.999.434-1.316a2.492 2.492 0 0 1 1.036-.672c.401-.131.914-.257 1.54-.378.541-.093.938-.191 1.19-.294.261-.112.392-.28.392-.504 0-.439-.154-.793-.462-1.064-.299-.271-.705-.406-1.218-.406-.551 0-.99.135-1.316.406-.318.261-.495.639-.532 1.134 0 .019-.01.028-.028.028l-.98-.238c-.019 0-.028-.009-.028-.028.074-.7.368-1.241.882-1.624.522-.392 1.194-.588 2.016-.588.849 0 1.516.229 2.002.686.485.457.728 1.087.728 1.89v3.514c0 .14.07.21.21.21h.854zm-4.34.252c.429 0 .812-.089 1.148-.266a1.97 1.97 0 0 0 .784-.728c.186-.317.28-.667.28-1.05v-1.008c0-.019-.01-.028-.028-.028a2.643 2.643 0 0 1-.616.252c-.224.065-.5.126-.826.182a8.948 8.948 0 0 0-1.092.28 1.573 1.573 0 0 0-.672.42c-.178.196-.266.467-.266.812 0 .345.116.621.35.826.233.205.546.308.938.308zm10.041.812c-.803 0-1.47-.168-2.002-.504a2.37 2.37 0 0 1-1.05-1.442c0-.028.009-.042.028-.042l.966-.252c.018 0 .028.009.028.028.112.467.345.812.7 1.036.354.224.812.336 1.372.336.532 0 .942-.093 1.232-.28.289-.196.434-.513.434-.952 0-.28-.084-.495-.252-.644a1.41 1.41 0 0 0-.63-.336 10.388 10.388 0 0 0-1.05-.196 10.15 10.15 0 0 1-1.372-.28 1.971 1.971 0 0 1-.896-.56c-.243-.28-.364-.672-.364-1.176 0-.7.247-1.223.742-1.568.504-.355 1.148-.532 1.932-.532.774 0 1.395.154 1.862.462.476.308.793.761.952 1.358 0 .028-.01.042-.028.042l-.938.238c-.019 0-.028-.005-.028-.014-.206-.821-.822-1.232-1.848-1.232-.458 0-.845.098-1.162.294-.308.187-.462.485-.462.896 0 .28.084.495.252.644.177.149.396.261.658.336.261.065.611.126 1.05.182.56.075 1.017.163 1.372.266.354.103.653.289.896.56.252.271.378.658.378 1.162 0 .7-.252 1.237-.756 1.61-.495.373-1.167.56-2.016.56zm7.059-8.61a.682.682 0 0 1-.504-.196.73.73 0 0 1-.196-.518c0-.205.065-.373.196-.504a.682.682 0 0 1 .504-.196c.215 0 .387.065.518.196a.66.66 0 0 1 .21.504c0 .205-.07.378-.21.518a.699.699 0 0 1-.518.196zm.546 8.442c0 .019-.009.028-.028.028h-1.036c-.019 0-.028-.009-.028-.028v-7.028c0-.019.009-.028.028-.028h1.036c.019 0 .028.009.028.028v7.028zm7.328.168c-.691 0-1.307-.154-1.848-.462a3.34 3.34 0 0 1-1.26-1.288c-.299-.56-.448-1.199-.448-1.918 0-.728.149-1.372.448-1.932.308-.56.728-.994 1.26-1.302.541-.308 1.157-.462 1.848-.462.849 0 1.563.215 2.142.644.588.429.966 1.017 1.134 1.764 0 .019-.01.028-.028.028l-.994.238c-.019 0-.028-.009-.028-.028-.112-.513-.364-.919-.756-1.218-.392-.308-.873-.462-1.442-.462-.747 0-1.344.252-1.792.756-.448.504-.672 1.162-.672 1.974 0 .803.224 1.456.672 1.96.448.495 1.045.742 1.792.742.588 0 1.082-.163 1.484-.49.401-.327.653-.761.756-1.302 0-.019.009-.028.028-.028l.994.238c.018 0 .028.009.028.028-.15.784-.523 1.4-1.12 1.848-.588.448-1.321.672-2.198.672zm14.713 0c-.803 0-1.47-.168-2.002-.504a2.37 2.37 0 0 1-1.05-1.442c0-.028.009-.042.028-.042l.966-.252c.019 0 .028.009.028.028.112.467.345.812.7 1.036.355.224.812.336 1.372.336.532 0 .943-.093 1.232-.28.289-.196.434-.513.434-.952 0-.28-.084-.495-.252-.644a1.41 1.41 0 0 0-.63-.336 10.388 10.388 0 0 0-1.05-.196 10.183 10.183 0 0 1-1.372-.28 1.977 1.977 0 0 1-.896-.56c-.243-.28-.364-.672-.364-1.176 0-.7.247-1.223.742-1.568.504-.355 1.148-.532 1.932-.532.775 0 1.395.154 1.862.462.476.308.793.761.952 1.358 0 .028-.009.042-.028.042l-.938.238c-.019 0-.028-.005-.028-.014-.205-.821-.821-1.232-1.848-1.232-.457 0-.845.098-1.162.294-.308.187-.462.485-.462.896 0 .28.084.495.252.644.177.149.397.261.658.336.261.065.611.126 1.05.182.56.075 1.017.163 1.372.266.355.103.653.289.896.56.252.271.378.658.378 1.162 0 .7-.252 1.237-.756 1.61-.495.373-1.167.56-2.016.56zm9.999-7.364c.877 0 1.563.252 2.058.756.495.504.742 1.195.742 2.072v4.368c0 .019-.009.028-.028.028h-1.036c-.019 0-.028-.009-.028-.028v-4.186c0-.635-.177-1.139-.532-1.512-.345-.373-.821-.56-1.428-.56-.625 0-1.139.205-1.54.616-.401.411-.602 1.022-.602 1.834v3.808c0 .019-.009.028-.028.028h-1.036c-.019 0-.028-.009-.028-.028v-9.744c0-.019.009-.028.028-.028h1.036c.019 0 .028.009.028.028V209.924c.009 0 .019-.005.028-.014a2.43 2.43 0 0 1 .994-.854c.411-.187.868-.28 1.372-.28zm13.281 6.3c.019 0 .028.009.028.028v.868c0 .019-.009.028-.028.028h-1.358l-.028-.014-.798-.784c-.009-.009-.018-.009-.028 0v.014a2.358 2.358 0 0 1-.98.7 3.92 3.92 0 0 1-1.372.224c-.644 0-1.166-.168-1.568-.504-.392-.336-.588-.775-.588-1.316 0-.56.145-.999.434-1.316a2.498 2.498 0 0 1 1.036-.672c.402-.131.915-.257 1.54-.378.542-.093.938-.191 1.19-.294.262-.112.392-.28.392-.504 0-.439-.154-.793-.462-1.064-.298-.271-.704-.406-1.218-.406-.55 0-.989.135-1.316.406-.317.261-.494.639-.532 1.134 0 .019-.009.028-.028.028l-.98-.238c-.018 0-.028-.009-.028-.028.075-.7.369-1.241.882-1.624.523-.392 1.195-.588 2.016-.588.85 0 1.517.229 2.002.686.486.457.728 1.087.728 1.89v3.514c0 .14.07.21.21.21h.854zm-4.34.252c.43 0 .812-.089 1.148-.266.336-.177.598-.42.784-.728.187-.317.28-.667.28-1.05v-1.008c0-.019-.009-.028-.028-.028a2.608 2.608 0 0 1-.616.252 7.651 7.651 0 0 1-.826.182 9.047 9.047 0 0 0-1.092.28 1.585 1.585 0 0 0-.672.42c-.177.196-.266.467-.266.812 0 .345.117.621.35.826.234.205.546.308.938.308zm11.246-6.552c.653 0 1.227.154 1.722.462.504.308.896.742 1.176 1.302.28.56.42 1.204.42 1.932 0 .719-.14 1.358-.42 1.918a3.14 3.14 0 0 1-1.176 1.288c-.495.308-1.069.462-1.722.462a3.291 3.291 0 0 1-1.47-.322 2.817 2.817 0 0 1-1.064-.924c-.01-.009-.019-.014-.028-.014v3.892c0 .019-.01.028-.028.028h-1.036c-.019 0-.028-.009-.028-.028v-9.828c0-.019.009-.028.028-.028h1.036c.018 0 .028.009.028.028v1.078c0 .028.009.033.028.014.28-.401.634-.709 1.064-.924.429-.224.919-.336 1.47-.336zm-.168 6.398c.737 0 1.32-.247 1.75-.742.429-.495.644-1.148.644-1.96 0-.831-.215-1.493-.644-1.988-.43-.495-1.013-.742-1.75-.742-.738 0-1.33.252-1.778.756-.439.495-.658 1.153-.658 1.974 0 .812.219 1.465.658 1.96.448.495 1.04.742 1.778.742zm10.165-6.398c1.092 0 1.918.35 2.478 1.05.56.691.826 1.647.798 2.87 0 .019-.009.028-.028.028h-5.488c-.018 0-.028.009-.028.028.047.803.276 1.423.686 1.862.42.429.98.644 1.68.644.514 0 .957-.112 1.33-.336.383-.233.654-.565.812-.994.019-.019.033-.023.042-.014l.84.28.028.028-.014.028a2.829 2.829 0 0 1-1.148 1.4c-.532.327-1.162.49-1.89.49-.7 0-1.311-.149-1.834-.448a3.093 3.093 0 0 1-1.218-1.274c-.28-.551-.42-1.199-.42-1.946 0-.719.14-1.358.42-1.918.28-.56.677-.994 1.19-1.302.514-.317 1.102-.476 1.764-.476zm.028.882c-.634 0-1.148.191-1.54.574-.392.373-.634.919-.728 1.638 0 .019.01.028.028.028h4.382c.019 0 .028-.014.028-.042-.065-.719-.289-1.265-.672-1.638-.373-.373-.872-.56-1.498-.56zm9.459 6.482c-.803 0-1.47-.168-2.002-.504a2.37 2.37 0 0 1-1.05-1.442c0-.028.009-.042.028-.042l.966-.252c.018 0 .028.009.028.028.112.467.345.812.7 1.036.354.224.812.336 1.372.336.532 0 .942-.093 1.232-.28.289-.196.434-.513.434-.952 0-.28-.084-.495-.252-.644a1.41 1.41 0 0 0-.63-.336 10.388 10.388 0 0 0-1.05-.196 10.15 10.15 0 0 1-1.372-.28 1.971 1.971 0 0 1-.896-.56c-.243-.28-.364-.672-.364-1.176 0-.7.247-1.223.742-1.568.504-.355 1.148-.532 1.932-.532.774 0 1.395.154 1.862.462.476.308.793.761.952 1.358 0 .028-.01.042-.028.042l-.938.238c-.019 0-.028-.005-.028-.014-.206-.821-.822-1.232-1.848-1.232-.458 0-.845.098-1.162.294-.308.187-.462.485-.462.896 0 .28.084.495.252.644.177.149.396.261.658.336.261.065.611.126 1.05.182.56.075 1.017.163 1.372.266.354.103.653.289.896.56.252.271.378.658.378 1.162 0 .7-.252 1.237-.756 1.61-.495.373-1.167.56-2.016.56z" fill="#000"></path></svg> 