<?xml version="1.0" encoding="UTF-8"?> <svg xmlns="http://www.w3.org/2000/svg" id="Layer_1" width="1680" height="1722.667" viewBox="0 0 1260 1292"><defs><style>.st0{fill:#5e616a}.st1{stroke-dasharray:2.32 2.32}.st1,.st2,.st3{fill:none;stroke:#b5b9c7}.st1,.st3{stroke-width:.75px}.st4{fill:#f7f7fb}.st2{stroke-dasharray:6.67 6.67;stroke-width:1.598px}</style></defs><path class="st4" d="M0 0h1260v1292H0V0z"></path><path class="st3" d="M102.766 638.831h1045.445M102.766 779.85h1045.445M102.766 922.436h1045.445M102.766 1065.023h1045.445"></path><path class="st1" d="M102.766 1167.713h1045.445"></path><path class="st2" d="M106.766 537.289h1041.445M106.766 598.507h1041.445M106.766 739.525h1041.445M106.766 678.307h1041.445M106.766 882.114h1041.445M106.766 819.327h1041.445M106.766 961.913h1041.445m-1041.445 62.79h1041.445m-1041.445 79.8h1041.445"></path><path d="M222.366 536.633l.088.089v57.357c0 .088.089.177.178.177h33.775l.089.089v4.255l-.089.088h-39.183l-.089-.088v-61.878l.089-.089h5.142zm45.542 7.802c-2.127 0-3.634-1.596-3.634-3.724s1.507-3.634 3.634-3.634 3.724 1.507 3.724 3.634-1.596 3.724-3.724 3.724zm2.483 54.165l-.089.088h-4.876l-.088-.088v-44.503l.088-.088h4.876l.089.088V598.6zm49.786-36.701c.089.177.178.088.178-.089v-7.713l.088-.088h4.876l.089.088v57.8s0 .089-.089.178l-4.255 4.255c-.089.088-.178.088-.178.088h-31.559l-.089-.088v-3.99l.089-.088h30.85c.089 0 .178-.089.178-.177v-21.986c0-.177-.089-.266-.178-.088-3.546 5.585-9.485 8.776-16.932 8.776-12.588 0-21.187-9.308-21.187-22.783 0-13.563 8.599-22.872 21.187-22.872 7.447 0 13.386 3.192 16.932 8.777zM303.6 594.61c10.283 0 16.932-7.623 16.932-18.616 0-11.17-6.649-18.705-16.932-18.705-10.372 0-16.489 7.535-16.489 18.705 0 10.993 6.117 18.616 16.489 18.616zm57.278-41.488c11.081 0 17.819 6.738 17.819 17.73V598.6l-.089.088h-4.876l-.088-.088v-26.95c0-8.776-5.142-14.361-13.564-14.361-7.978 0-14.804 5.053-14.804 16.843V598.6l-.089.088h-4.876l-.088-.088v-61.878l.088-.089h4.876l.089.089v23.936c0 .177.088.177.177 0 3.457-5.142 9.042-7.536 15.425-7.536zm36.943 5.053a.191.191 0 0 0-.178.178v35.992c0 .088.089.177.178.177h17.552l.089.088v3.99l-.089.088h-18.084l-.177-.088-4.256-4.255-.088-.178V540.8l.088-.089h4.699l.088.089v13.031c0 .089.089.178.178.178h17.464l.088.088v3.99l-.088.088h-17.464zm97.551 40.425l-.089.088h-5.319l-.089-.088-8.067-19.06c0-.089-.177-.177-.266-.177h-31.204c-.089 0-.266.088-.266.177l-8.068 19.06-.088.088h-5.408l-.088-.088 26.329-61.878.088-.089h6.206l.088.089 26.241 61.878zm-29.343-56.648q-.089-.088-.178 0l-13.829 32.978c0 .089.089.177.177.177h27.482c.088 0 .177-.088.177-.177l-13.829-32.978zm69.752 52.57h6.028l.089.088v3.99l-.089.088h-7.358s-.088 0-.177-.088l-5.408-5.319c-.088-.089-.177 0-.177.088-3.369 4.078-8.688 6.206-15.159 6.206-8.067 0-13.386-4.521-13.386-11.259 0-18.971 29.697-11.79 29.697-20.478 0-6.294-4.609-10.461-11.879-10.461-7.535 0-12.322 3.724-12.854 10.904 0 .089-.089.089-.089.089l-4.698-.886-.089-.089c.798-9.042 7.536-14.273 17.73-14.273 10.284 0 16.755 6.028 16.755 15.78v24.556c0 .709.355 1.064 1.064 1.064zm-21.453 1.33c9.219 0 15.513-6.117 15.513-14.45v-7.181a.19.19 0 0 0-.177-.177c-7.624 4.609-24.467 1.773-24.467 13.652 0 4.876 3.546 8.156 9.131 8.156zm70.154-28.989c-.177 0-.177.177 0 .177 8.067 2.039 13.298 7.447 13.298 14.805 0 10.195-7.535 16.843-21.188 16.843h-26.151l-.089-.088v-61.878l.089-.089h26.24c12.411 0 18.705 5.94 18.705 15.78 0 6.915-4.255 12.234-10.904 14.45zm5.585-14.007c0-7.535-4.964-11.79-14.095-11.79h-20.124c-.088 0-.177.089-.177.177v23.404c0 .088.089.177.177.177h21.099c7.447 0 13.12-4.787 13.12-11.968zm-34.396 41.223c0 .088.089.177.177.177h20.301c10.461 0 16.223-4.965 16.223-13.032 0-7.358-6.471-11.967-14.982-11.967h-21.542c-.088 0-.177.088-.177.177v24.645zm75.954-40.957c12.588 0 21.187 9.486 21.187 23.315 0 13.652-8.599 23.138-21.187 23.138-7.447 0-13.386-3.28-16.932-8.954-.089-.177-.178-.088-.178.089v7.89l-.088.088h-4.876l-.089-.088v-61.878l.089-.089h4.876l.088.089v25.265c0 .178.089.266.178.089 3.457-5.585 9.485-8.954 16.932-8.954zm-.355 42.198c10.372 0 16.489-7.713 16.489-18.883 0-11.347-6.117-19.06-16.489-19.06-10.283 0-16.932 7.713-16.932 19.06 0 11.17 6.649 18.883 16.932 18.883zm60.647 4.255c-18.262 0-30.495-13.209-30.495-31.825s12.233-32.003 30.495-32.003c14.184 0 24.556 8.156 27.216 20.833 0 .088-.089.088-.089.088l-4.964.975-.089-.088c-2.128-10.638-10.638-17.021-22.074-17.021-15.07 0-24.999 11.17-24.999 27.216 0 15.957 9.929 27.038 24.999 27.038 11.436 0 20.035-6.472 22.074-17.198 0-.089.089-.089.089-.089l5.141.975.089.089c-2.659 12.765-13.12 21.01-27.393 21.01zm57.019 0c-12.943 0-22.074-9.486-22.074-23.138 0-13.829 9.131-23.315 22.074-23.315 10.549 0 18.173 5.851 20.301 15.159 0 .089-.089.089-.089.089l-4.61 1.33-.089-.089c-1.507-7.446-7.269-12.234-15.336-12.234-10.283 0-17.109 7.713-17.109 19.06 0 11.17 6.826 18.883 17.109 18.883 8.333 0 14.273-5.142 15.602-13.032 0-.089.089-.089.089-.089l4.61 1.33.088.089c-1.773 9.751-9.662 15.957-20.566 15.957zm44.895-.975l-.089.088H788.6l-.088-.088v-57.18c0-.088-.089-.177-.178-.177H774.86l-.089-.088v-4.433l.089-.089h18.882l.089.089V598.6zm19.149-4.699c0 .089.088.178.177.178h35.194l.089.088v4.433l-.089.088h-40.513l-.089-.088v-5.585c0-24.911 34.84-19.06 34.84-39.361 0-7.712-5.585-13.386-14.627-13.386-8.599 0-14.805 4.61-15.78 13.298 0 .088-.089.088-.089.088l-5.053-.886-.088-.089c1.418-11.259 9.928-16.932 21.01-16.932 12.322 0 19.946 7.624 19.946 17.819 0 23.314-34.928 18.261-34.928 38.474v1.861zm64.037-30.85c-.089.089 0 .177.089.177h.443c14.273 0 21.808 7.27 21.808 17.819 0 10.993-8.422 18.528-21.01 18.528-11.259 0-19.769-5.053-22.429-14.893 0-.089.089-.089.089-.089l4.876-2.216.088.088c1.862 8.068 8.156 12.677 17.553 12.677 9.486 0 15.602-5.673 15.602-13.829s-5.762-13.741-17.286-13.741h-6.117l-.089-.088-1.064-3.015.089-.177 21.808-22.694c.089-.089 0-.178-.089-.178h-32.534l-.089-.088v-4.61l.089-.089h39.538l.088.089v3.901l-21.453 22.428zm-614.493 177.46c.089.177 0 .177-.088.177h-8.599c-.089 0-.178-.177-.178-.177l-17.907-23.758c0-.089-.177-.089-.266-.089H224.05c-.088 0-.177.089-.177.178v23.669c0 .089-.089.177-.177.177h-7.004c-.088 0-.177-.088-.177-.177v-61.7c0-.089.089-.178.177-.178h24.556c12.855 0 20.744 7.713 20.744 18.971 0 10.373-6.826 17.73-18.084 18.794q-.178 0-.089.178l18.705 23.935zm-22.428-55.495H224.05c-.088 0-.177.089-.177.177v24.911c0 .089.089.177.177.177h16.046c9.131 0 14.45-4.698 14.45-12.677 0-7.712-5.231-12.588-14.45-12.588zm49.811 9.929c14.095 0 21.098 9.663 20.744 24.822 0 .089-.089.177-.177.177h-34.751a.191.191 0 0 0-.178.178c.621 10.283 6.117 15.868 14.982 15.868 6.472 0 11.525-2.926 13.564-8.422.088-.088.088-.177.266-.088l5.319 1.773c.088.088.177.088.177.177 0 .088-.089.177-.089.177-2.925 7.624-10.017 11.968-19.237 11.968-13.386 0-21.985-8.954-21.985-23.226 0-13.83 8.599-23.404 21.365-23.404zm.177 5.585c-7.978 0-13.209 4.787-14.361 14.007 0 .088.088.177.177.177h27.747c.089 0 .178-.089.178-.266-.887-9.308-6.028-13.918-13.741-13.918zm65.21 2.216c.089.177.178.177.178 0v-6.737c0-.089.088-.178.177-.178h6.56c.089 0 .177.089.177.178v56.647c0 .089-.088.177-.088.177l-5.497 5.497s-.088.088-.177.088h-31.293c-.089 0-.178-.088-.178-.177v-5.408c0-.088.089-.177.178-.177h29.963c.089 0 .178-.089.178-.177V732.71c0-.177-.089-.177-.178 0-3.546 4.964-9.042 7.89-16.134 7.89-12.5 0-21.01-9.22-21.01-22.783 0-13.741 8.51-22.872 21.01-22.872 7.003 0 12.588 2.837 16.134 7.801zm-15.07 31.826c9.397 0 15.514-6.738 15.514-16.755 0-10.106-6.117-16.932-15.514-16.932s-15.071 6.826-15.071 16.932c0 10.017 5.674 16.755 15.071 16.755zm68.096-14.362v-24.201c0-.089.088-.178.177-.178h6.471c.089 0 .178.089.178.178v44.502c0 .089-.089.177-.178.177h-6.471a.19.19 0 0 1-.177-.177v-5.762c0-.177-.089-.177-.178 0-3.457 4.787-8.776 6.826-14.893 6.826-11.17 0-17.819-6.826-17.819-17.819v-27.747c0-.089.089-.178.178-.178h6.471c.089 0 .177.089.177.178v26.506c0 8.156 4.876 13.12 12.5 13.12 7.358 0 13.564-4.609 13.564-15.425zm27.541 20.301a.19.19 0 0 1-.177.177h-6.56a.19.19 0 0 1-.177-.177v-61.7c0-.089.088-.178.177-.178h6.56c.089 0 .177.089.177.178v61.7zm48.261-5.674h5.408c.089 0 .177.089.177.178v5.496a.19.19 0 0 1-.177.177h-8.599c-.089 0-.177-.088-.177-.088l-5.054-4.965c-.088-.088-.177 0-.177.089-3.28 3.901-8.51 5.851-14.893 5.851-8.244 0-13.652-4.699-13.652-11.525 0-18.882 29.077-11.967 29.077-20.035 0-5.584-4.166-9.308-10.638-9.308-7.003 0-11.17 3.458-11.702 9.752 0 .088-.088.177-.177.177l-6.206-1.507c-.088 0-.177-.089-.177-.177.975-9.043 8.156-14.007 18.351-14.007 10.726 0 17.286 6.205 17.286 16.312v22.251c0 .975.444 1.329 1.33 1.329zm-22.074 1.596c8.245 0 14.007-5.585 14.007-12.943v-6.383c0-.088-.089-.177-.177-.177-7.27 4.255-21.985 1.773-21.985 12.323 0 4.343 3.191 7.18 8.155 7.18zm41.686-33.155c0 .177.089.177.177.089 3.635-6.56 9.574-9.22 17.73-7.979.089 0 .178.089.178.178v6.294c0 .088-.089.177-.178.177-12.854-2.305-17.907 5.142-17.907 19.68v18.794c0 .089-.089.177-.177.177h-6.56c-.089 0-.178-.088-.178-.177v-44.502c0-.089.089-.178.178-.178h6.56c.088 0 .177.089.177.178v7.269zm95.104 37.233c0 .089-.089.177-.177.177h-7.092c-.089 0-.177 0-.177-.088-.089-.089-.089-.178-.089-.178l-6.915-17.198c0-.088-.177-.177-.266-.177h-29.875c-.088 0-.266.089-.266.177l-6.914 17.198s0 .178-.089.178c0 .088-.089.088-.177.088h-7.27c-.088 0-.177-.088-.177-.177l25.177-61.612s0-.177.088-.177c0-.089.089-.089.178-.089h8.687c.089 0 .178 0 .178.089a.276.276 0 0 1 .088.177l25.088 61.612zm-29.609-54.963q-.089-.089-.177 0l-12.411 31.116c0 .089 0 .178.088.178h24.822a.191.191 0 0 0 .178-.178l-12.5-31.116zm70.896 49.289h5.408c.089 0 .177.089.177.178v5.496a.19.19 0 0 1-.177.177h-8.599c-.089 0-.177-.088-.177-.088l-5.053-4.965c-.089-.088-.178 0-.178.089-3.28 3.901-8.51 5.851-14.893 5.851-8.244 0-13.652-4.699-13.652-11.525 0-18.882 29.077-11.967 29.077-20.035 0-5.584-4.166-9.308-10.638-9.308-7.003 0-11.17 3.458-11.701 9.752 0 .088-.089.177-.178.177l-6.205-1.507c-.089 0-.178-.089-.178-.177.976-9.043 8.156-14.007 18.351-14.007 10.727 0 17.287 6.205 17.287 16.312v22.251c0 .975.443 1.329 1.329 1.329zm-22.073 1.596c8.244 0 14.006-5.585 14.006-12.943v-6.383c0-.088-.088-.177-.177-.177-7.269 4.255-21.985 1.773-21.985 12.323 0 4.343 3.191 7.18 8.156 7.18zm70.94-27.481c-.178 0-.178.177 0 .177 7.89 2.128 12.765 7.447 12.765 14.893 0 9.929-7.624 16.666-21.364 16.666h-26.684a.19.19 0 0 1-.177-.177v-61.7c0-.089.088-.178.177-.178h26.772c12.677 0 19.06 6.117 19.06 15.78 0 7.092-4.078 12.234-10.549 14.539zm3.191-13.564c0-6.56-4.344-10.372-12.411-10.372h-18.705c-.089 0-.177.089-.177.177v20.656a.19.19 0 0 0 .177.177h19.326c6.737 0 11.79-4.255 11.79-10.638zm-31.293 38.829a.19.19 0 0 0 .177.177h18.971c9.22 0 14.273-4.521 14.273-11.524 0-6.56-5.763-10.638-13.386-10.638h-19.858a.19.19 0 0 0-.177.177v21.808zm74.805-39.272c12.5 0 21.01 9.397 21.01 23.404 0 13.829-8.51 23.226-21.01 23.226-6.915 0-12.5-2.926-16.046-7.89-.088-.177-.177-.177-.177 0v6.826c0 .089-.089.177-.177.177h-6.56c-.089 0-.178-.088-.178-.177v-61.7c0-.089.089-.178.178-.178h6.56c.088 0 .177.089.177.178v24.024c0 .177.089.177.177.088 3.458-5.053 9.043-7.978 16.046-7.978zm-1.064 40.513c9.486 0 15.159-6.915 15.159-17.109 0-10.372-5.673-17.287-15.159-17.287-9.397 0-15.425 6.915-15.425 17.287 0 10.194 6.028 17.109 15.425 17.109zm60.738 6.117c-18.439 0-30.762-13.12-30.762-31.825s12.323-32.003 30.762-32.003c14.273 0 24.645 7.978 27.393 20.833 0 .088-.089.177-.178.177l-6.56 1.33c-.088 0-.177-.089-.177-.178-1.95-9.662-9.84-15.425-20.478-15.425-14.007 0-23.226 10.284-23.226 25.266 0 14.893 9.219 24.999 23.226 24.999 10.638 0 18.528-5.762 20.478-15.603 0-.088.089-.177.177-.177l6.738 1.419c.088 0 .177.088.177.177-2.837 12.943-13.209 21.01-27.57 21.01zm56.936 0c-13.209 0-22.517-9.397-22.517-23.226 0-14.007 9.308-23.404 22.517-23.404 10.815 0 18.617 5.762 20.744 15.248 0 .088-.088.177-.177.177l-6.294 1.507c-.089 0-.178-.089-.178-.177-1.418-6.472-6.648-10.638-13.918-10.638-9.485 0-15.602 7.003-15.602 17.287 0 10.106 6.117 17.109 15.602 17.109 7.536 0 12.943-4.521 14.184-11.347 0-.089.089-.177.178-.177l6.294 1.507a.19.19 0 0 1 .177.177c-1.95 9.929-9.929 15.957-21.01 15.957zm46.755-1.064c0 .089-.089.177-.178.177h-6.914c-.089 0-.178-.088-.178-.177v-55.318c0-.088-.088-.177-.177-.177h-13.297c-.089 0-.178-.088-.178-.177v-6.028c0-.089.089-.178.178-.178h20.566c.089 0 .178.089.178.178v61.7zm20.538-6.56c0 .089.089.177.177.177h33.865c.088 0 .177.089.177.178v6.205c0 .089-.089.177-.177.177h-41.489c-.088 0-.177-.088-.177-.177v-6.028c0-25.088 33.864-19.503 33.864-38.208 0-7.092-4.964-12.145-13.031-12.145-7.979 0-13.564 4.344-14.716 12.411 0 .088-.089.177-.177.177l-6.56-1.596c-.089 0-.178-.088-.178-.177 1.507-11.259 10.106-17.198 21.542-17.198 12.766 0 20.478 7.801 20.478 18.173 0 23.226-33.598 18.617-33.598 36.79v1.241zm84.593-49.555c0 .088-.09.177-.09.177l-19.59 20.212c-.09.089 0 .177.08.177 13.3.266 20.57 7.181 20.57 17.908 0 11.081-8.6 18.705-21.45 18.705-11.26 0-20.303-4.876-22.962-15.071 0-.088 0-.177.177-.266l6.383-2.57h.177q.089 0 .178.088c1.861 7.447 7.446 11.613 16.137 11.613s14.18-4.964 14.18-12.322-5.32-12.145-15.69-12.145h-6.737c-.089 0-.178 0-.266-.089v-.177l-1.242-3.901c0-.088.089-.177.089-.266l20.566-21.01c.09-.088 0-.177-.09-.177H963.94c-.088 0-.177-.089-.177-.177v-6.294c0-.089.089-.178.177-.178h40.071c.09 0 .18.089.18.178v5.585zm-754.61 185.615q.089.089.178 0l19.237-49.112c.088-.266.177-.266.354-.266h13.741c.177 0 .355.178.355.355v61.346c0 .177-.178.354-.355.354h-8.599c-.177 0-.355-.177-.355-.354v-50.531c0-.177-.088-.088-.177 0l-19.503 50.619c-.089.266-.177.266-.354.266h-8.777c-.177 0-.266 0-.354-.266l-19.503-50.619c-.089-.088-.178-.177-.178 0v50.531a.38.38 0 0 1-.354.354h-8.599c-.178 0-.355-.177-.355-.354v-61.346c0-.177.177-.355.355-.355h13.74c.178 0 .266 0 .355.266l19.148 49.112zm65.432-33.243c14.893 0 21.63 9.84 21.01 25.531 0 .266-.178.354-.355.354h-33.155c-.089 0-.177.089-.177.178.798 9.042 5.496 13.741 13.386 13.741 5.762 0 10.017-2.571 11.968-7.092.088-.266.266-.355.443-.266l6.649 2.127c.177.089.354.177.266.443-2.926 7.447-10.107 11.791-19.415 11.791-13.741 0-22.34-8.954-22.34-23.315 0-14.095 8.777-23.492 21.72-23.492zm.266 7.003c-7.092 0-11.614 3.989-12.766 12.234 0 .088.089.177.177.177h24.556c.089 0 .178-.089.178-.266-.975-8.333-5.231-12.145-12.145-12.145zm63.79.266c.088.089.177.089.177-.089v-22.96c0-.177.177-.355.354-.355h7.979c.177 0 .355.178.355.355v61.346c0 .177-.178.354-.355.354H379.6a.38.38 0 0 1-.354-.354v-5.851c0-.177-.089-.177-.177-.089-3.458 4.61-8.688 7.181-15.248 7.181-12.5 0-20.833-9.308-20.833-23.315 0-14.184 8.333-23.492 20.833-23.492 6.471 0 11.79 2.659 15.248 7.269zm-13.564 31.559c8.51 0 14.007-6.116 14.007-15.336 0-9.308-5.497-15.514-14.007-15.514s-13.652 6.206-13.652 15.514c0 9.22 5.142 15.336 13.652 15.336zm39.639-45.832c-3.191 0-5.319-2.216-5.319-5.407 0-3.103 2.128-5.319 5.319-5.319s5.408 2.216 5.408 5.319c0 3.191-2.217 5.407-5.408 5.407zm4.255 52.57a.38.38 0 0 1-.354.354h-7.979a.38.38 0 0 1-.354-.354v-44.325c0-.178.177-.355.354-.355h7.979c.177 0 .354.177.354.355v44.325zm44.608-20.567v-23.758c0-.178.177-.355.354-.355h7.979c.177 0 .355.177.355.355v44.325c0 .177-.178.354-.355.354h-7.979a.38.38 0 0 1-.354-.354v-5.142c0-.177-.089-.177-.177-.089-3.369 4.522-8.422 6.472-14.45 6.472-11.348 0-17.73-7.003-17.73-17.996v-27.57c0-.178.177-.355.354-.355h7.979c.177 0 .354.177.354.355v26.063c0 7.358 4.433 11.79 11.259 11.79s12.411-4.255 12.411-14.095zm76.736-24.999c11.525 0 17.907 7.003 17.907 18.084v27.482a.38.38 0 0 1-.354.354h-7.979a.38.38 0 0 1-.354-.354v-25.975c0-7.446-4.433-11.79-11.259-11.79-6.56 0-12.056 3.9-12.322 12.854v24.911c0 .177-.177.354-.355.354h-7.978c-.178 0-.355-.177-.355-.354v-25.975c0-7.446-4.432-11.79-11.347-11.79-6.826 0-12.322 4.255-12.322 14.007v23.758c0 .177-.178.354-.355.354h-7.979a.38.38 0 0 1-.354-.354v-44.325c0-.178.177-.355.354-.355h7.979c.177 0 .355.177.355.355v6.117c0 .177.088.266.177.088 3.369-5.23 8.688-7.446 14.893-7.446 7.092 0 12.145 3.102 14.982 8.421 0 .089.177.089.266 0 3.546-5.85 9.84-8.421 16.4-8.421zm101.005 45.477c.089.177 0 .443-.266.443h-8.954c-.177 0-.265 0-.354-.266l-5.851-15.425c0-.088-.177-.177-.266-.177h-28.545c-.089 0-.266.089-.266.177l-5.851 15.425c-.089.266-.177.266-.355.266h-8.953c-.266 0-.355-.266-.266-.443l23.935-61.346c.089-.266.177-.266.355-.266h11.347c.177 0 .266 0 .355.266l23.935 61.346zm-29.964-53.101l-11.17 29.254c0 .089 0 .178.089.178h22.163c.088 0 .088-.089.088-.178l-11.081-29.254h-.089zm72.303 46.098h4.698c.177 0 .355.177.355.354v6.738c0 .177-.178.354-.355.354h-9.574c-.177 0-.266 0-.443-.177l-4.61-4.521c-.089-.089-.177 0-.177.089-3.28 3.634-8.333 5.496-14.716 5.496-8.422 0-13.83-4.876-13.83-11.791 0-18.882 28.546-12.145 28.546-19.68 0-4.787-3.812-7.978-9.575-7.978-6.382 0-9.928 3.014-10.46 8.333 0 .177-.089.266-.266.266h-.178l-7.535-1.862c-.177-.089-.266-.177-.266-.355v-.177c1.33-8.776 8.599-13.563 18.883-13.563 11.17 0 17.818 6.471 17.818 16.843v19.946c0 1.153.621 1.685 1.685 1.685zm-22.783 1.861c7.446 0 12.677-5.141 12.677-11.524v-5.585c0-.089-.089-.177-.178-.177-6.826 4.078-19.591 1.684-19.591 11.081 0 3.723 2.836 6.205 7.092 6.205zm71.816-25.974c-.177 0-.177.177 0 .177 7.624 2.217 12.145 7.447 12.145 14.805 0 9.84-7.713 16.577-21.542 16.577h-27.038c-.178 0-.355-.177-.355-.354v-61.346c0-.177.177-.355.355-.355h27.127c12.854 0 19.325 6.383 19.325 15.78 0 7.181-3.812 12.234-10.017 14.716zm.709-13.209c0-5.673-3.812-8.954-10.638-8.954h-17.464c-.089 0-.177.089-.177.178v17.818c0 .089.088.178.177.178h17.553c6.117 0 10.549-3.635 10.549-9.22zm-28.279 36.347c0 .088.088.177.177.177h17.73c7.979 0 12.411-3.901 12.411-9.84s-5.142-9.308-11.879-9.308h-18.262a.19.19 0 0 0-.177.177v18.794zm73.745-37.499c12.5 0 20.833 9.308 20.833 23.492 0 14.007-8.333 23.315-20.833 23.315-6.56 0-11.79-2.571-15.247-7.181-.089-.088-.178-.088-.178.089v5.851a.38.38 0 0 1-.354.354h-7.979a.38.38 0 0 1-.354-.354v-61.346c0-.177.177-.355.354-.355h7.979c.177 0 .354.178.354.355v22.96c0 .178.089.178.178.089 3.457-4.61 8.687-7.269 15.247-7.269zm-1.684 38.828c8.51 0 13.652-6.116 13.652-15.336 0-9.308-5.142-15.514-13.652-15.514s-14.007 6.206-14.007 15.514c0 9.22 5.497 15.336 14.007 15.336zm60.826 7.979c-18.705 0-30.938-13.032-30.938-31.825s12.233-32.003 30.938-32.003c14.45 0 24.645 7.801 27.482 20.655.089.178 0 .355-.177.444h-.178l-7.978 1.684c-.177 0-.355 0-.443-.266-1.773-8.688-8.777-13.741-18.706-13.741-12.942 0-21.453 9.308-21.453 23.227 0 13.74 8.511 23.049 21.453 23.049 9.929 0 17.021-5.142 18.883-13.919.089-.265.266-.265.443-.265l8.067 1.595h.178c.177.089.266.266.177.443-3.014 12.943-13.209 20.922-27.748 20.922zm56.679 0c-13.298 0-22.783-9.308-22.783-23.315 0-14.095 9.485-23.492 22.783-23.492 11.081 0 19.06 5.585 21.187 15.159.089.177 0 .354-.177.443h-.177l-7.624 1.684c-.177 0-.355 0-.443-.266-1.33-5.496-6.029-9.042-12.5-9.042-8.688 0-14.095 6.294-14.095 15.514 0 9.042 5.407 15.336 14.095 15.336 6.737 0 11.524-3.812 12.677-9.662.089-.266.266-.266.443-.266l7.713 1.684h.177c.177.089.266.266.177.443-2.039 9.84-10.017 15.78-21.453 15.78zm48.789-1.241a.38.38 0 0 1-.354.354h-8.599c-.178 0-.355-.177-.355-.354v-53.279c0-.089-.089-.177-.177-.177h-13.032c-.177 0-.354-.177-.354-.355v-7.535c0-.177.177-.355.354-.355h22.163c.177 0 .354.178.354.355v61.346zm22.015-8.333c0 .088.088.177.177.177h32.444c.18 0 .36.177.36.355v7.801c0 .177-.18.354-.36.354h-42.284c-.178 0-.355-.177-.355-.354v-6.294c0-25.354 32.978-19.947 32.978-37.233 0-6.383-4.521-10.727-11.613-10.727-7.447 0-12.323 3.989-13.386 11.347-.089.177-.178.266-.355.266h-.177l-7.89-2.127c-.177-.089-.355-.178-.355-.444 1.596-11.081 10.106-17.375 22.163-17.375 13.209 0 20.924 7.978 20.924 18.616 0 23.049-32.271 18.883-32.271 35.017v.621zm83.601-45.832c0 .177-.09.354-.18.443l-17.9 17.996c-.09.088 0 .177.08.177 12.15.621 19.06 7.269 19.06 17.907 0 11.17-8.77 18.883-21.98 18.883-11.26 0-20.57-4.787-23.32-15.248-.08-.266.09-.355.27-.443l7.89-3.014c.18-.089.35 0 .44.266 1.95 6.648 6.83 10.372 14.72 10.372s12.76-4.255 12.76-10.727c0-6.649-4.78-10.549-14-10.549h-7.27c-.18 0-.36 0-.44-.266l-1.42-5.053c0-.178 0-.355.09-.444l19.14-19.148c.18-.177 0-.177-.08-.177h-28.73c-.17 0-.35-.178-.35-.355v-7.801c0-.177.18-.355.35-.355h40.52c.17 0 .35.178.35.355v7.181zm-801.73 197.404c-14.273 0-23.758-6.65-25.886-17.91-.089-.35.177-.53.443-.62l9.752-2.12c.266-.09.532.09.62.44 1.33 6.91 6.738 10.64 15.691 10.64 7.802 0 12.234-3.11 12.234-8.25 0-15.156-37.853-1.15-37.853-26.946 0-11.436 8.599-19.06 23.315-19.06 12.942 0 21.364 5.939 23.315 16.134.088.355-.178.532-.444.621l-9.397 2.039c-.266.088-.532-.089-.62-.444-1.596-6.028-5.674-8.865-13.209-8.865-7.447 0-11.879 3.28-11.879 8.334 0 16.4 37.499 1.507 37.499 26.687 0 11.7-8.156 19.32-23.581 19.32zm51.51-46.894c15.513 0 21.985 10.106 21.364 26.064 0 .35-.266.53-.532.53h-31.736c-.089 0-.178.09-.178.18.887 7.71 4.876 11.61 11.791 11.61 4.964 0 8.688-2.04 10.283-5.67.089-.27.355-.36.621-.27l8.156 2.31c.354.09.443.35.354.71-3.102 7.27-10.106 11.43-19.503 11.43-14.006 0-22.694-8.86-22.694-23.402 0-14.272 8.865-23.492 22.074-23.492zm.354 8.422c-6.205 0-10.106 3.103-11.258 10.283a.19.19 0 0 0 .177.177h21.453c.089 0 .178-.088.178-.265-.887-7.181-4.61-10.195-10.55-10.195zm86.041-8.422c11.791 0 17.996 7.092 17.996 18.173v27.301c0 .36-.177.54-.532.54h-9.485a.515.515 0 0 1-.532-.54v-25.439c0-6.737-4.167-10.549-10.195-10.549-5.939 0-10.904 3.634-10.992 11.701v24.287c0 .36-.178.54-.532.54h-9.574c-.355 0-.532-.18-.532-.54v-25.439c0-6.737-4.078-10.549-10.106-10.549-6.295 0-11.082 3.9-11.082 12.677v23.311c0 .36-.177.54-.532.54h-9.574c-.354 0-.532-.18-.532-.54v-44.056c0-.354.178-.531.532-.531h9.574c.355 0 .532.177.532.531v5.408c0 .177.089.177.178 0 3.28-4.876 8.421-6.826 14.45-6.826 6.914 0 11.701 2.837 14.538 7.801 0 .089.177.089.266 0 3.635-5.496 9.752-7.801 16.134-7.801zm34.391-6.294c-3.635 0-6.205-2.482-6.205-6.206 0-3.634 2.57-6.116 6.205-6.116 3.723 0 6.206 2.482 6.206 6.116 0 3.724-2.483 6.206-6.206 6.206zm5.23 51.768c0 .36-.177.54-.532.54h-9.574c-.354 0-.532-.18-.532-.54v-44.056c0-.354.178-.531.532-.531h9.574c.355 0 .532.177.532.531v44.056zm49.741-30.847c-.177 0-.177.178 0 .178 7.447 2.216 11.879 7.269 11.879 14.809 0 9.57-7.801 16.4-21.719 16.4h-27.481a.515.515 0 0 1-.532-.54v-60.988c0-.354.177-.532.532-.532h27.481c13.209 0 19.769 6.56 19.769 15.869 0 7.358-3.812 12.322-9.929 14.804zm-1.418-12.854c0-4.698-3.191-7.535-8.954-7.535h-16.045c-.089 0-.178.088-.178.177v15.071c0 .088.089.177.178.177h15.779c5.408 0 9.22-3.103 9.22-7.89zm-25.177 33.951c0 .09.089.18.178.18h16.4c6.649 0 10.461-3.46 10.461-8.33 0-5.146-4.433-7.982-10.372-7.982h-16.489c-.089 0-.178.088-.178.177v15.955zm67.988 11.17c-13.475 0-23.226-9.22-23.226-23.402 0-14.272 9.751-23.492 23.226-23.492 13.563 0 23.315 9.22 23.315 23.492 0 14.182-9.752 23.402-23.315 23.402zm0-9.75c7.89 0 12.5-5.23 12.5-13.652 0-8.51-4.61-13.652-12.5-13.652-7.713 0-12.411 5.142-12.411 13.652 0 8.422 4.698 13.652 12.411 13.652zm42.794 8.33c0 .27-.178.54-.532.54h-9.574c-.355 0-.532-.18-.532-.54v-60.988c0-.354.177-.532.532-.532h9.574c.354 0 .532.178.532.532v60.988zm43.97-39.18c.089.089.177 0 .177-.088v-21.72c0-.354.178-.532.532-.532h9.574c.355 0 .532.178.532.532v60.988c0 .36-.177.54-.532.54h-9.574c-.354 0-.532-.18-.532-.54v-4.69c0-.09-.088-.18-.177-.09-3.369 3.99-8.244 6.2-14.361 6.2-12.411 0-20.656-9.13-20.656-23.402 0-14.361 8.245-23.492 20.656-23.492 6.117 0 10.992 2.305 14.361 6.294zm-11.968 30.85c7.624 0 12.589-5.41 12.589-13.652 0-8.333-4.965-13.652-12.589-13.652-7.535 0-12.322 5.319-12.322 13.652 0 8.242 4.787 13.652 12.322 13.652zm105.66 8.24c.089.36 0 .63-.355.63h-10.638c-.266 0-.531-.09-.62-.45l-4.876-13.56c0-.09-.177-.18-.266-.18h-26.949c-.089 0-.266.09-.266.18l-4.787 13.56c-.089.36-.355.45-.621.45h-10.727c-.354 0-.443-.27-.354-.63l22.783-60.986c.088-.355.354-.444.62-.444h13.652c.266 0 .532.089.621.444l22.783 60.986zm-30.496-50.703l-9.662 26.861c0 .089 0 .177.088.177h19.681c.088 0 .088-.088.088-.177l-9.663-26.861-.177-.355q-.089-.088-.177 0l-.178.355zm73.711 42.193h4.078c.354 0 .532.18.532.54v8.06c0 .36-.178.54-.532.54h-10.727c-.266 0-.443-.09-.62-.27l-4.167-4.08c-.089-.09-.177 0-.177 0-3.192 3.46-8.067 5.23-14.362 5.23-8.599 0-14.184-4.96-14.184-12.05 0-18.798 28.014-12.327 28.014-19.242 0-3.989-3.458-6.826-8.333-6.826-5.94 0-8.865 2.749-9.309 7.004 0 .443-.177.532-.531.443l-8.954-2.305c-.266-.089-.532-.266-.443-.62 1.418-8.865 9.219-13.298 19.503-13.298 11.613 0 18.35 6.56 18.35 17.287v17.637c0 1.42.709 1.95 1.862 1.95zm-23.315 2.13c6.471 0 11.17-4.61 11.17-10.02v-4.694c0-.089-.089-.177-.178-.177-6.382 3.631-17.109 1.511-17.109 9.661 0 3.19 2.482 5.23 6.117 5.23zm72.336-24.377c-.178 0-.178.178 0 .178 7.446 2.216 11.879 7.269 11.879 14.809 0 9.57-7.802 16.4-21.72 16.4h-27.481a.515.515 0 0 1-.532-.54v-60.988c0-.354.177-.532.532-.532h27.481c13.209 0 19.769 6.56 19.769 15.869 0 7.358-3.812 12.322-9.928 14.804zm-1.419-12.854c0-4.698-3.191-7.535-8.954-7.535h-16.045a.19.19 0 0 0-.177.177v15.071c0 .088.088.177.177.177h15.78c5.407 0 9.219-3.103 9.219-7.89zm-25.176 33.951c0 .09.088.18.177.18h16.4c6.649 0 10.461-3.46 10.461-8.33 0-5.146-4.433-7.982-10.372-7.982h-16.489a.19.19 0 0 0-.177.177v15.955zm72.597-35.724c12.411 0 20.655 9.131 20.655 23.492 0 14.272-8.244 23.402-20.655 23.402-6.117 0-10.993-2.21-14.361-6.2-.089-.09-.178 0-.178.09v4.69c0 .36-.177.54-.532.54H800.5c-.354 0-.532-.18-.532-.54v-60.988c0-.354.178-.532.532-.532h9.574c.355 0 .532.178.532.532v21.72c0 .088.089.265.178.088 3.368-3.989 8.244-6.294 14.361-6.294zm-2.394 37.144c7.536 0 12.323-5.41 12.323-13.652 0-8.333-4.787-13.652-12.323-13.652-7.623 0-12.588 5.319-12.588 13.652 0 8.242 4.965 13.652 12.588 13.652zm60.829 9.75c-18.794 0-31.116-12.94-31.116-31.823s12.322-32.003 31.116-32.003c14.538 0 24.733 7.801 27.747 20.567.089.354-.177.532-.443.62l-9.485 2.039c-.266.089-.532-.088-.621-.443-1.684-7.535-7.979-12.056-17.198-12.056-11.879 0-19.592 8.51-19.592 21.276 0 12.673 7.713 21.013 19.592 21.013 9.131 0 15.514-4.44 17.375-12.237.089-.355.355-.532.621-.443l9.574 2.13c.266.09.532.26.443.53-3.191 12.94-13.386 20.83-28.013 20.83zm56.685 0c-13.564 0-23.227-9.22-23.227-23.402 0-14.272 9.663-23.492 23.227-23.492 11.435 0 19.325 5.496 21.63 15.071.089.354-.177.531-.443.62l-9.22 1.862c-.266.088-.532-.089-.709-.444-1.241-4.343-5.23-7.269-11.081-7.269-7.801 0-12.588 5.585-12.588 13.652 0 7.982 4.787 13.652 12.588 13.652 6.028 0 10.106-3.28 11.258-7.98.089-.35.355-.53.621-.44l9.308 1.86c.266.09.532.27.444.53-2.217 10.02-10.284 15.78-21.808 15.78zm50.556-1.42c0 .27-.17.54-.53.54h-10.104c-.355 0-.532-.18-.532-.54v-51.325c0-.089-.089-.177-.177-.177h-12.766c-.266 0-.532-.177-.532-.532v-8.954c0-.266.177-.532.532-.532h23.579c.36 0 .53.178.53.532v60.988zm23.32-9.93s.09.09.18.09h31.11c.36 0 .54.18.54.54v9.3c0 .36-.18.54-.54.54h-43.08c-.27 0-.53-.18-.53-.54v-6.65c0-25.438 32-20.385 32-36.076 0-5.762-3.9-9.485-10.02-9.485-6.82 0-11.08 3.9-12.32 10.46-.09.355-.26.444-.62.355l-9.4-2.66c-.26-.088-.44-.354-.35-.709 1.51-11.081 10.19-17.641 22.61-17.641 13.65 0 21.45 8.156 21.45 18.971 0 23.045-31.03 19.326-31.03 33.425v.08zm82.88-42.104c0 .266-.09.443-.27.62l-16.04 15.692c-.09.088 0 .177.08.177 10.82.886 17.29 7.269 17.29 17.995 0 11.17-8.86 18.97-22.34 18.97-11.26 0-21.01-4.52-23.85-15.33-.08-.36.09-.63.36-.71l9.4-3.37c.26-.09.62 0 .7.35 2.04 5.85 6.03 9.22 13.3 9.22 7.09 0 11.35-3.54 11.35-9.13 0-5.939-4.34-9.042-12.5-9.042h-7.8c-.27 0-.44-.088-.53-.443l-1.78-5.851c-.08-.354-.08-.443.18-.709l17.64-17.287c.18-.177 0-.177-.09-.177h-26.5c-.36 0-.53-.177-.53-.532v-9.397c0-.354.17-.532.53-.532h40.86c.27 0 .54.178.54.532v8.954zm-843.184 163.274c-.089 0-.089.18.088.18 7.181 2.3 11.347 7.36 11.347 14.89 0 9.4-7.889 16.23-21.896 16.23h-27.925c-.443 0-.709-.27-.709-.71v-60.64c0-.44.266-.71.709-.71h27.925c13.386 0 20.035 6.83 20.035 15.87 0 7.45-3.635 12.41-9.574 14.89zm-3.724-12.41c0-3.72-2.659-6.12-7.269-6.12h-14.716c-.089 0-.177.09-.177.18v12.32c0 .09.088.18.177.18h14.007c4.787 0 7.978-2.57 7.978-6.56zm-22.162 31.56c0 .09.088.18.177.18h15.159c5.408 0 8.511-2.93 8.511-6.74 0-4.43-3.724-6.65-8.777-6.65h-14.893c-.089 0-.177.09-.177.18v13.03zm66.573 13.03c-13.741 0-23.669-9.13-23.669-23.49s9.928-23.58 23.669-23.58 23.67 9.22 23.67 23.58-9.929 23.49-23.67 23.49zm0-11.61c7.003 0 10.993-4.35 10.993-11.88s-3.99-11.88-10.993-11.88c-6.915 0-10.904 4.34-10.904 11.88s3.989 11.88 10.904 11.88zm44.033 10.02c0 .44-.266.71-.709.71h-10.993c-.443 0-.709-.27-.709-.71v-60.64c0-.44.266-.71.709-.71h10.993c.443 0 .709.27.709.71v60.64zm42.092-39.98c.089.17.177 0 .177-.09v-20.57c0-.44.266-.71.709-.71h10.993c.443 0 .709.27.709.71v60.64c0 .44-.266.71-.709.71h-10.993c-.443 0-.709-.27-.709-.71v-3.82c0-.08-.088-.26-.177-.08-3.28 3.54-7.801 5.49-13.563 5.49-12.323 0-20.479-9.04-20.479-23.49 0-14.54 8.156-23.58 20.479-23.58 5.762 0 10.283 1.95 13.563 5.5zm-10.461 29.96c6.738 0 11.082-4.61 11.082-11.88s-4.344-11.88-11.082-11.88c-6.648 0-10.904 4.61-10.904 11.88s4.256 11.88 10.904 11.88zm105.238 9.93c.177.44-.089.8-.621.8h-12.322a.853.853 0 0 1-.798-.63l-3.901-11.61c0-.09-.177-.18-.266-.18h-25.354c-.088 0-.266.09-.266.18l-3.9 11.61a.854.854 0 0 1-.798.63h-12.322c-.532 0-.798-.36-.621-.8l21.719-60.73c.089-.35.444-.53.798-.53h16.046c.354 0 .709.18.798.53l21.808 60.73zm-31.117-48.23l-8.155 24.29c0 .09 0 .18.088.18h17.198c.089 0 .089-.09.089-.18l-8.156-24.29-.443-1.06q-.089-.09-.177 0l-.444 1.06zm75.121 38.3h3.369c.443 0 .709.26.709.71v9.31c0 .44-.266.71-.709.71h-11.702c-.355 0-.621-.09-.887-.36l-3.723-3.63c-.089-.09-.177 0-.177 0-3.192 3.28-7.979 4.87-14.184 4.87-8.777 0-14.362-5.14-14.362-12.32 0-18.71 27.393-12.5 27.393-18.79 0-3.28-3.014-5.59-7.18-5.59-5.231 0-7.624 2.39-7.979 5.67-.089.54-.355.8-.886.62l-10.372-2.83a.743.743 0 0 1-.532-.89c1.773-8.69 9.84-12.94 20.123-12.94 12.057 0 18.883 6.82 18.883 17.82v15.33c0 1.69.886 2.31 2.216 2.31zm-24.024 2.39c5.585 0 9.751-4.16 9.751-8.6v-3.72c0-.09-.088-.18-.177-.18-5.762 3.11-14.627 1.24-14.627 8.25 0 2.57 2.127 4.25 5.053 4.25zm73.034-22.96c-.088 0-.088.18.089.18 7.18 2.3 11.347 7.36 11.347 14.89 0 9.4-7.89 16.23-21.897 16.23h-27.924c-.444 0-.709-.27-.709-.71v-60.64c0-.44.265-.71.709-.71h27.924c13.387 0 20.035 6.83 20.035 15.87 0 7.45-3.634 12.41-9.574 14.89zm-3.723-12.41c0-3.72-2.66-6.12-7.269-6.12h-14.716c-.089 0-.178.09-.178.18v12.32c0 .09.089.18.178.18h14.006c4.787 0 7.979-2.57 7.979-6.56zm-22.163 31.56c0 .09.089.18.178.18h15.159c5.407 0 8.51-2.93 8.51-6.74 0-4.43-3.723-6.65-8.776-6.65h-14.893c-.089 0-.178.09-.178.18v13.03zm71.538-34.04c12.323 0 20.478 9.04 20.478 23.58 0 14.45-8.155 23.49-20.478 23.49-5.762 0-10.283-1.95-13.563-5.49-.089-.18-.178 0-.178.08v3.82c0 .44-.266.71-.709.71H588.65c-.444 0-.71-.27-.71-.71v-60.64c0-.44.266-.71.71-.71h10.992c.443 0 .709.27.709.71v20.57c0 .09.089.26.178.17 3.28-3.63 7.801-5.58 13.563-5.58zm-3.103 35.46c6.649 0 10.904-4.61 10.904-11.88s-4.255-11.88-10.904-11.88c-6.737 0-11.081 4.61-11.081 11.88s4.344 11.88 11.081 11.88zm60.92 11.61c-19.06 0-31.383-12.85-31.383-31.82s12.323-32.01 31.383-32.01c14.627 0 24.733 7.63 27.836 20.48.088.45-.089.8-.532.89l-10.993 2.3c-.443.09-.709-.09-.886-.53-1.507-6.56-7.004-10.37-15.425-10.37-10.816 0-17.819 7.53-17.819 19.24 0 11.61 7.003 19.06 17.819 19.06 8.333 0 13.918-3.82 15.691-10.55.088-.45.443-.62.886-.53l10.993 2.3c.443.09.62.44.532.8-3.28 13.03-13.387 20.74-28.102 20.74zm56.34 0c-13.741 0-23.581-9.13-23.581-23.49s9.84-23.58 23.581-23.58c11.702 0 19.769 5.41 22.074 15.07.089.44-.089.8-.532.89l-10.815 2.03c-.355.09-.621-.08-.798-.44v-.18c-1.418-3.36-4.699-5.67-9.663-5.67-7.003 0-11.081 4.88-11.081 11.88 0 6.91 4.078 11.88 11.081 11.88 5.23 0 8.599-2.57 9.752-6.3.177-.35.443-.62.886-.53l10.815 2.04c.444.09.71.36.532.71v.18c-2.393 9.93-10.46 15.51-22.251 15.51zm52.509-1.59c0 .44-.266.71-.71.71h-11.79c-.443 0-.709-.27-.709-.71v-49.29c0-.09-.089-.18-.178-.18h-12.499c-.443 0-.709-.27-.709-.71v-10.46c0-.44.266-.71.709-.71h25.176c.444 0 .71.27.71.71v60.64zm24.706-11.79c0 .08.089.17.177.17h29.698c.443 0 .709.27.709.71v10.91c0 .44-.266.71-.709.71h-43.882c-.443 0-.709-.27-.709-.71v-6.92c0-25.71 31.028-20.83 31.028-35.02 0-5.14-3.369-8.15-8.511-8.15-6.205 0-9.929 3.54-11.081 9.4-.177.44-.443.62-.887.44l-10.726-3.28c-.443-.18-.621-.36-.532-.8 1.596-11.08 10.283-17.91 23.138-17.91 14.095 0 21.985 8.34 21.985 19.42 0 22.52-28.723 19.68-29.698 31.03zm81.888-38.3c0 .35-.088.62-.354.89l-14.273 13.56c-.089.09-.089.18.089.18 9.751 1.24 15.691 7.35 15.691 17.9 0 11.26-9.043 19.15-22.872 19.15-11.258 0-21.365-4.43-24.201-15.51-.089-.36.088-.71.443-.89l10.904-3.72c.443-.18.709 0 .886.35 1.951 5.23 5.319 8.16 11.791 8.16 6.294 0 9.929-2.84 9.929-7.63 0-5.14-3.812-7.44-10.816-7.44h-8.333a.858.858 0 0 1-.798-.62l-1.861-6.74c-.089-.44 0-.62.266-.89l16.134-15.51c.177-.18 0-.18-.089-.18h-24.556c-.443 0-.709-.26-.709-.71v-10.9c0-.44.266-.71.709-.71h41.311c.443 0 .709.27.709.71v10.55z"></path><path class="st0" d="M119.27 561.048c0 .024-.024.048-.024.048l-5.304 5.472c-.024.024 0 .048.024.048 3.6.072 5.568 1.944 5.568 4.848 0 3-2.328 5.064-5.808 5.064-3.048 0-5.496-1.32-6.216-4.08 0-.024 0-.048.048-.072l1.728-.696h.048q.024 0 .048.024c.504 2.016 2.016 3.144 4.368 3.144s3.84-1.344 3.84-3.336-1.44-3.288-4.248-3.288h-1.824c-.024 0-.048 0-.072-.024v-.048l-.336-1.056c0-.024.024-.048.024-.072l5.568-5.688c.024-.024 0-.048-.024-.048h-8.304a.052.052 0 0 1-.048-.048v-1.704c0-.024.024-.048.048-.048h10.848c.024 0 .048.024.048.048v1.512zm12.72-1.8c3.84 0 6.216 2.472 6.216 6.744v3.648c0 4.368-2.352 6.888-6.216 6.888-3.816 0-6.168-2.52-6.168-6.888v-3.648c0-4.272 2.376-6.744 6.168-6.744zm0 1.824c-2.616 0-4.152 1.728-4.152 4.968v3.552c0 3.336 1.536 5.088 4.152 5.088 2.64 0 4.2-1.752 4.2-5.088v-3.552c0-3.24-1.56-4.968-4.2-4.968zm18.928-1.824c3.84 0 6.216 2.472 6.216 6.744v3.648c0 4.368-2.352 6.888-6.216 6.888-3.816 0-6.168-2.52-6.168-6.888v-3.648c0-4.272 2.376-6.744 6.168-6.744zm0 1.824c-2.616 0-4.152 1.728-4.152 4.968v3.552c0 3.336 1.536 5.088 4.152 5.088 2.64 0 4.2-1.752 4.2-5.088v-3.552c0-3.24-1.56-4.968-4.2-4.968zM118.094 712.44c0 .024.024.048.048.048h2.568c.024 0 .048.024.048.048v1.608a.052.052 0 0 1-.048.048h-2.568a.052.052 0 0 0-.048.048v4.2a.052.052 0 0 1-.048.048h-1.752a.052.052 0 0 1-.048-.048v-4.2a.052.052 0 0 0-.048-.048h-8.424a.052.052 0 0 1-.048-.048v-1.512c0-.024.024-.048.024-.048l7.728-10.848s.024-.048.048-.048h2.52c.024 0 .048.024.048.048v10.704zm-1.848-8.784c0-.048-.024-.048-.048-.024l-6.264 8.808c-.024.048 0 .048.024.048h6.24a.052.052 0 0 0 .048-.048v-8.784zm16.494-2.208c3.84 0 6.216 2.472 6.216 6.744v3.648c0 4.368-2.352 6.888-6.216 6.888-3.816 0-6.168-2.52-6.168-6.888v-3.648c0-4.272 2.376-6.744 6.168-6.744zm0 1.824c-2.616 0-4.152 1.728-4.152 4.968v3.552c0 3.336 1.536 5.088 4.152 5.088 2.64 0 4.2-1.752 4.2-5.088v-3.552c0-3.24-1.56-4.968-4.2-4.968zm18.928-1.824c3.84 0 6.216 2.472 6.216 6.744v3.648c0 4.368-2.352 6.888-6.216 6.888-3.816 0-6.168-2.52-6.168-6.888v-3.648c0-4.272 2.376-6.744 6.168-6.744zm0 1.824c-2.616 0-4.152 1.728-4.152 4.968v3.552c0 3.336 1.536 5.088 4.152 5.088 2.64 0 4.2-1.752 4.2-5.088v-3.552c0-3.24-1.56-4.968-4.2-4.968zm-37.198 145.19c3.216 0 5.4 2.184 5.4 5.544 0 3.504-2.328 5.784-6.048 5.784-3.144 0-5.448-1.656-6.048-4.392 0-.024.024-.048.048-.048l1.824-.432c.024 0 .048.024.048.048.48 2.208 2.136 3.192 4.128 3.192 2.616 0 4.128-1.728 4.128-4.128 0-2.496-1.632-4.032-3.888-4.032-1.8 0-3.288.984-3.84 2.592-.024.024-.048.048-.072.048l-1.8-.432c-.024 0-.048 0-.048-.048l1.152-9.36c0-.048.024-.048.048-.048h9.72c.024 0 .048.024.048.048v1.68a.052.052 0 0 1-.048.048h-8.136c-.024 0-.048 0-.048.048l-.72 5.664c0 .048 0 .072.024.048.864-1.128 2.352-1.824 4.128-1.824zm17.731-5.952c3.84 0 6.216 2.472 6.216 6.744v3.648c0 4.368-2.352 6.888-6.216 6.888-3.816 0-6.168-2.52-6.168-6.888v-3.648c0-4.272 2.376-6.744 6.168-6.744zm0 1.824c-2.616 0-4.152 1.728-4.152 4.968v3.552c0 3.336 1.536 5.088 4.152 5.088 2.64 0 4.2-1.752 4.2-5.088v-3.552c0-3.24-1.56-4.968-4.2-4.968zm18.928-1.824c3.84 0 6.216 2.472 6.216 6.744v3.648c0 4.368-2.352 6.888-6.216 6.888-3.816 0-6.168-2.52-6.168-6.888v-3.648c0-4.272 2.376-6.744 6.168-6.744zm0 1.824c-2.616 0-4.152 1.728-4.152 4.968v3.552c0 3.336 1.536 5.088 4.152 5.088 2.64 0 4.2-1.752 4.2-5.088v-3.552c0-3.24-1.56-4.968-4.2-4.968zm-36.755 147.515c3.336 0 5.736 2.304 5.736 5.568 0 3.432-2.52 5.712-6.12 5.712s-6.096-2.28-6.096-5.688c0-1.512.504-2.928 1.512-4.296l5.184-7.008s.024-.048.048-.048h2.328c.024 0 .048 0 .024.048l-4.728 6.048c-.024.024 0 .072.048.048.648-.288 1.368-.384 2.064-.384zm-.384 9.552c2.496 0 4.152-1.488 4.152-3.936 0-2.472-1.656-3.984-4.032-3.984-2.592 0-4.224 1.608-4.224 3.984 0 2.448 1.632 3.936 4.104 3.936zm18.141-15.552c3.84 0 6.216 2.472 6.216 6.744v3.648c0 4.368-2.352 6.888-6.216 6.888-3.816 0-6.168-2.52-6.168-6.888v-3.648c0-4.272 2.376-6.744 6.168-6.744zm0 1.824c-2.616 0-4.152 1.728-4.152 4.968v3.552c0 3.336 1.536 5.088 4.152 5.088 2.64 0 4.2-1.752 4.2-5.088v-3.552c0-3.24-1.56-4.968-4.2-4.968zm18.928-1.824c3.84 0 6.216 2.472 6.216 6.744v3.648c0 4.368-2.352 6.888-6.216 6.888-3.816 0-6.168-2.52-6.168-6.888v-3.648c0-4.272 2.376-6.744 6.168-6.744zm0 1.824c-2.616 0-4.152 1.728-4.152 4.968v3.552c0 3.336 1.536 5.088 4.152 5.088 2.64 0 4.2-1.752 4.2-5.088v-3.552c0-3.24-1.56-4.968-4.2-4.968zm-43.669 142.42c-.024 0-.048-.03-.048-.05v-1.71c0-.02.024-.04.048-.04h11.448c.024 0 .048.02.048.04v1.35c0 .02-.024.02-.024.05l-7.488 15.31c0 .02-.024.05-.048.05h-2.016c-.024 0-.072 0-.048-.05l7.416-14.91c.024-.04-.024-.04-.048-.04h-9.24zm23.171-2.04c3.84 0 6.216 2.47 6.216 6.74v3.65c0 4.37-2.352 6.89-6.216 6.89-3.816 0-6.168-2.52-6.168-6.89v-3.65c0-4.27 2.376-6.74 6.168-6.74zm0 1.82c-2.616 0-4.152 1.73-4.152 4.97v3.55c0 3.34 1.536 5.09 4.152 5.09 2.64 0 4.2-1.75 4.2-5.09v-3.55c0-3.24-1.56-4.97-4.2-4.97zm18.928-1.82c3.84 0 6.216 2.47 6.216 6.74v3.65c0 4.37-2.352 6.89-6.216 6.89-3.816 0-6.168-2.52-6.168-6.89v-3.65c0-4.27 2.376-6.74 6.168-6.74zm0 1.82c-2.616 0-4.152 1.73-4.152 4.97v3.55c0 3.34 1.536 5.09 4.152 5.09 2.64 0 4.2-1.75 4.2-5.09v-3.55c0-3.24-1.56-4.97-4.2-4.97z"></path><path d="M153.474 134.545c.354 0 .532.178.532.532v9.309c0 .354-.178.532-.532.532h-32.801c-.088 0-.177.088-.177.177v14.804c0 .089.089.178.177.178h28.812c.354 0 .531.177.531.532v9.219c0 .355-.177.532-.531.532h-28.812c-.088 0-.177.089-.177.177v15.425c0 .089.089.178.177.178h32.801c.354 0 .532.177.532.532v9.397c0 .354-.178.532-.532.532h-43.705c-.266 0-.532-.178-.532-.532v-60.992c0-.354.178-.532.532-.532h43.705zm65.539 16.046c11.791 0 17.996 7.092 17.996 18.173v27.305c0 .354-.177.532-.532.532h-9.485c-.266 0-.532-.178-.532-.532v-25.443c0-6.737-4.167-10.549-10.195-10.549-5.94 0-10.904 3.634-10.993 11.701v24.291c0 .354-.177.532-.531.532h-9.575c-.354 0-.532-.178-.532-.532v-25.443c0-6.737-4.077-10.549-10.106-10.549-6.294 0-11.081 3.9-11.081 12.677v23.315c0 .354-.177.532-.532.532h-9.574c-.355 0-.532-.178-.532-.532V152.01c0-.355.177-.532.532-.532h9.574c.355 0 .532.177.532.532v5.407c0 .177.089.177.177 0 3.28-4.876 8.422-6.826 14.45-6.826 6.915 0 11.702 2.837 14.539 7.801 0 .089.177.089.266 0 3.635-5.496 9.751-7.801 16.134-7.801zm49.55 46.896c-13.475 0-23.226-9.22-23.226-23.404 0-14.272 9.751-23.492 23.226-23.492 13.563 0 23.315 9.22 23.315 23.492 0 14.184-9.752 23.404-23.315 23.404zm0-9.752c7.89 0 12.5-5.23 12.5-13.652 0-8.51-4.61-13.652-12.5-13.652-7.713 0-12.411 5.142-12.411 13.652 0 8.422 4.698 13.652 12.411 13.652zm42.616-27.038c-.088 0-.177.089-.177.178v26.417c0 .089.089.178.177.178h15.425c.355 0 .532.177.532.531v8.068c0 .354-.177.532-.532.532h-17.641a.804.804 0 0 1-.62-.266l-7.536-7.536a.804.804 0 0 1-.266-.62v-49.467c0-.266.178-.532.532-.532h9.397c.355 0 .532.177.532.532V151.3c0 .089.089.178.177.178h15.16c.354 0 .531.177.531.532v8.155c0 .355-.177.532-.531.532h-15.16zm29.317-16.4c-3.635 0-6.206-2.482-6.206-6.206 0-3.634 2.571-6.116 6.206-6.116 3.723 0 6.205 2.482 6.205 6.116 0 3.724-2.482 6.206-6.205 6.206zm5.23 51.772c0 .354-.177.532-.532.532h-9.574c-.355 0-.532-.178-.532-.532V152.01c0-.355.177-.532.532-.532h9.574c.355 0 .532.177.532.532v44.059zm30.584-11.436q.089.088.177 0l12.855-32.712c.088-.355.354-.443.62-.443h9.663c.355 0 .621.177.443.62l-17.818 44.059c-.089.355-.355.444-.621.444h-10.461c-.266 0-.531-.089-.62-.444l-17.996-44.059c-.177-.443.089-.62.443-.62h10.018c.266 0 .532.088.62.443l12.677 32.712zm48.229-34.042c15.514 0 21.985 10.106 21.365 26.063 0 .355-.266.532-.532.532h-31.737c-.088 0-.177.089-.177.177.886 7.713 4.876 11.614 11.79 11.614 4.965 0 8.688-2.039 10.284-5.674.088-.266.354-.355.62-.266l8.156 2.305c.355.089.443.355.355.709-3.103 7.269-10.106 11.436-19.503 11.436-14.007 0-22.695-8.865-22.695-23.404 0-14.272 8.865-23.492 22.074-23.492zm.355 8.422c-6.206 0-10.106 3.103-11.259 10.283 0 .089.089.178.178.178h21.453c.088 0 .177-.089.177-.266-.886-7.181-4.61-10.195-10.549-10.195zm71.414 38.474c-14.272 0-23.758-6.649-25.886-17.907-.088-.355.178-.532.444-.621l9.751-2.127c.266-.089.532.088.621.443 1.33 6.914 6.737 10.638 15.691 10.638 7.801 0 12.234-3.103 12.234-8.245 0-15.159-37.854-1.152-37.854-26.949 0-11.436 8.599-19.06 23.315-19.06 12.943 0 21.365 5.94 23.315 16.134.089.355-.177.532-.443.621l-9.397 2.039c-.266.088-.532-.089-.621-.443-1.596-6.029-5.673-8.865-13.209-8.865-7.446 0-11.879 3.28-11.879 8.333 0 16.4 37.499 1.507 37.499 26.683 0 11.702-8.156 19.326-23.581 19.326zm69.772-10.017h4.078c.354 0 .532.177.532.531v8.068c0 .354-.178.532-.532.532h-10.727a.804.804 0 0 1-.62-.266l-4.167-4.078c-.089-.089-.177 0-.177 0-3.192 3.457-8.067 5.23-14.361 5.23-8.6 0-14.184-4.964-14.184-12.056 0-18.794 28.013-12.323 28.013-19.237 0-3.99-3.457-6.827-8.333-6.827-5.94 0-8.865 2.749-9.308 7.004 0 .443-.178.532-.532.443l-8.954-2.305c-.266-.088-.532-.266-.443-.62 1.418-8.865 9.219-13.298 19.503-13.298 11.613 0 18.35 6.56 18.35 17.287v17.641c0 1.419.71 1.951 1.862 1.951zm-23.315 2.127c6.471 0 11.17-4.61 11.17-10.017v-4.699c0-.088-.089-.177-.177-.177-6.383 3.635-17.11 1.507-17.11 9.663 0 3.191 2.482 5.23 6.117 5.23zm58.861-39.006c11.258 0 17.375 7.092 17.375 18.173v27.305c0 .354-.177.532-.532.532h-9.574c-.354 0-.532-.178-.532-.532v-25.443c0-6.737-4.078-10.549-10.106-10.549-6.294 0-11.081 3.9-11.081 12.677v23.315c0 .354-.177.532-.532.532h-9.574c-.355 0-.532-.178-.532-.532V152.01c0-.355.177-.532.532-.532h9.574c.355 0 .532.177.532.532v4.964c0 .177.089.177.177.089 3.192-4.522 8.245-6.472 14.273-6.472zm44.993 46.896c-10.372 0-17.464-4.255-19.68-11.879-.089-.355.089-.532.354-.621l8.865-2.216c.266-.089.532.089.621.443 1.33 4.521 4.698 6.472 10.283 6.472 4.965 0 8.156-1.33 8.156-5.762 0-9.929-27.481.265-27.481-19.149 0-9.574 7.446-14.184 17.996-14.184 10.017 0 16.4 3.901 18.528 11.259v.177c.088.266-.089.443-.355.532l-8.51 2.127c-.266.089-.532-.088-.71-.443-1.152-4.078-4.166-5.673-9.042-5.673-4.344 0-7.978 1.507-7.978 5.585 0 10.106 27.836-.266 27.836 18.793 0 9.397-7.27 14.539-18.883 14.539z"></path></svg> 