<?xml version="1.0" encoding="UTF-8"?> <svg xmlns="http://www.w3.org/2000/svg" xmlns:xlink="http://www.w3.org/1999/xlink" id="Layer_1" width="444.182mm" height="454.731mm" version="1.1" viewBox="0 0 1259.1 1289"><defs><style> .st0, .st1, .st2 { fill: none; } .st3 { fill: #010101; } .st1 { stroke: #478279; stroke-dasharray: 6.67 6.67; stroke-width: 1.598px; } .st4 { fill: #00f890; } .st2 { stroke: #00f890; stroke-width: 3.196px; } .st5 { fill: #fff; } .st6 { fill: #478279; } .st7 { clip-path: url(#clippath); } </style><clipPath id="clippath"><rect class="st0" x=".468" y="646" width="1260" height="643"></rect></clipPath></defs><rect class="st4" width="1259.1" height="1289"></rect><path class="st3" d="M508.3,529.7h0Z"></path><g class="st7"><path d="M.468,646h1260v643H.468v-643Z"></path><path class="st5" d="M1092.658,986.187v-102.74l.44-.434h23.82l.43.434v282.643s0,.44-.43.87l-20.79,20.81c-.43.43-.87.43-.87.43h-146.39l-.43-.43v-19.51l.43-.43h142.93c.43,0,.86-.44.86-.87v-114.45c0-.86-.43-1.3-.86-.43-17.76,27.31-45.05,39.88-77.1,39.88-48.94,0-87.48-29.04-87.48-86.26v-122.253l.43-.434h23.39l.43.434v120.943c0,46.82,30.32,67.2,66.7,67.2,41.14,0,74.49-27.75,74.49-85.403h0Z"></path><path class="st5" d="M798.008,903.388c-.44,0-.87.433-.87.867v176.005c0,.43.43.86.87.86h85.75l.44.44v19.51l-.44.43h-88.35l-.87-.43-20.79-20.81-.43-.87v-260.969l.43-.434h22.96l.43.434v63.725c0,.434.43.867.87.867h85.32l.43.434v19.507l-.43.434h-85.32Z"></path><path class="st5" d="M676.248,921.595c.44.867.87.434.87-.433v-37.715l.43-.434h23.82l.44.434v282.643s0,.44-.44.87l-20.78,20.81c-.44.43-.87.43-.87.43h-154.19l-.43-.43v-19.51l.43-.43h150.72c.44,0,.87-.44.87-.87v-107.51c0-.87-.43-1.3-.87-.43-17.32,27.31-46.34,42.91-82.72,42.91-61.5,0-103.51-45.51-103.51-111.408,0-66.326,42.01-111.844,103.51-111.844,36.38,0,65.4,15.606,82.72,42.917h0ZM595.258,1081.56c50.24,0,82.73-37.28,82.73-91.038,0-54.621-32.49-91.469-82.73-91.469-50.67,0-80.55,36.848-80.55,91.469,0,53.758,29.88,91.038,80.55,91.038Z"></path><path class="st5" d="M478.178,785.039l.43.434v19.507l-.43.434h-85.75c-.44,0-.87.433-.87.867v75.863c0,.434.43.867.87.867h85.32l.43.434v19.507l-.43.434h-85.32c-.44,0-.87.433-.87.867v196.807l-.43.44h-23.82l-.44-.44v-293.912l.44-.867,20.78-20.808.87-.434h89.22Z"></path><path class="st5" d="M299.578,1081.12h29.45l.44.44v19.5l-.44.44h-35.95s-.43,0-.86-.44l-26.42-26.01c-.43-.43-.87,0-.87.44-16.46,19.94-42.44,30.34-74.06,30.34-39.41,0-65.4-22.11-65.4-55.05,0-92.773,145.09-57.659,145.09-100.142,0-30.779-22.52-51.154-58.03-51.154-36.82,0-60.21,18.207-62.8,53.321,0,.434-.44.434-.44.434l-22.95-4.335-.43-.434c3.89-44.217,36.81-69.794,86.62-69.794,50.24,0,81.85,29.478,81.85,77.164v120.08c0,3.47,1.74,5.2,5.2,5.2h0ZM194.768,1087.63c45.04,0,75.79-29.92,75.79-70.67v-35.11c0-.434-.43-.867-.86-.867-37.25,22.547-119.54,8.67-119.54,66.757,0,23.85,17.32,39.89,44.61,39.89Z"></path><path class="st2" d="M316.428,1081.91c0,27.9-22.59,50.52-50.46,50.52s-50.47-22.62-50.47-50.52,22.6-50.51,50.47-50.51,50.46,22.61,50.46,50.51Z"></path><path class="st2" d="M427.188,799.112c0,27.9-22.59,50.515-50.46,50.515s-50.47-22.615-50.47-50.515,22.6-50.514,50.47-50.514,50.46,22.615,50.46,50.514Z"></path><path class="st2" d="M732.948,1166.89c0,27.9-22.6,50.51-50.47,50.51s-50.46-22.61-50.46-50.51,22.59-50.52,50.46-50.52,50.47,22.62,50.47,50.52Z"></path><path class="st2" d="M1147.478,1166.89c0,27.9-22.6,50.51-50.47,50.51s-50.47-22.61-50.47-50.51,22.6-50.52,50.47-50.52,50.47,22.62,50.47,50.52Z"></path><path class="st2" d="M832.438,1084.57c0,27.9-22.6,50.51-50.47,50.51s-50.47-22.61-50.47-50.51,22.6-50.52,50.47-50.52,50.47,22.62,50.47,50.52Z"></path><path class="st1" d="M-12.932,882.427h1276.08"></path><path class="st1" d="M-12.932,784.84h1276.08"></path><path class="st1" d="M-12.932,1101.5h1276.08"></path><path class="st4" d="M.468,714.387l71.03-68.387H.468v68.387Z"></path></g><path d="M165.858,213.809c0,.064-.06.129-.12.129h-5.12c-.07,0-.13,0-.13-.065-.07-.064-.07-.128-.07-.128l-4.99-12.416c0-.064-.13-.128-.19-.128h-21.57c-.06,0-.19.064-.19.128l-4.99,12.416s0,.128-.07.128c0,.065-.06.065-.12.065h-5.25c-.07,0-.13-.065-.13-.129l18.18-44.48s0-.128.06-.128c0-.064.06-.064.13-.064h6.27c.06,0,.13,0,.13.064.06.064.06.128.06.128l18.109,44.48ZM144.488,174.129q-.07-.064-.13,0l-8.96,22.464c0,.064,0,.128.06.128h17.92c.07,0,.13-.064.13-.128l-9.02-22.464ZM208.468,209.714h3.9c.07,0,.13.063.13.127v3.968c0,.064-.06.129-.13.129h-6.2c-.07,0-.13-.065-.13-.065l-3.65-3.584c-.06-.064-.13,0-.13.064-2.37,2.816-6.14,4.225-10.75,4.225-5.95,0-9.86-3.393-9.86-8.321,0-13.632,21-8.64,21-14.464,0-4.032-3.01-6.72-7.68-6.72-5.06,0-8.07,2.496-8.45,7.04,0,.064-.07.128-.13.128l-4.48-1.088c-.06,0-.13-.064-.13-.128.71-6.528,5.89-10.112,13.25-10.112,7.74,0,12.48,4.48,12.48,11.776v16.064c0,.704.32.961.96.961h0ZM192.528,210.865c5.96,0,10.12-4.032,10.12-9.344v-4.608c0-.064-.07-.128-.13-.128-5.25,3.072-15.87,1.28-15.87,8.896,0,3.136,2.3,5.184,5.88,5.184ZM256.548,191.025c-.13,0-.13.128,0,.128,5.7,1.536,9.22,5.376,9.22,10.752,0,7.168-5.51,12.033-15.43,12.033h-19.26c-.07,0-.13-.065-.13-.129v-44.544c0-.064.06-.128.13-.128h19.32c9.16,0,13.76,4.416,13.76,11.392,0,5.12-2.94,8.832-7.61,10.496h0ZM258.848,181.233c0-4.736-3.13-7.488-8.96-7.488h-13.5c-.07,0-.13.064-.13.128v14.912c0,.064.06.128.13.128h13.95c4.87,0,8.51-3.072,8.51-7.68h0ZM236.258,209.265c0,.064.06.128.13.128h13.69c6.66,0,10.31-3.264,10.31-8.32,0-4.736-4.16-7.68-9.67-7.68h-14.33c-.07,0-.13.064-.13.128v15.744ZM303.068,180.913c9.02,0,15.16,6.784,15.16,16.896,0,9.984-6.14,16.769-15.16,16.769-5,0-9.03-2.113-11.59-5.697-.06-.128-.13-.128-.13,0v4.928c0,.064-.06.129-.12.129h-4.74c-.06,0-.13-.065-.13-.129v-44.544c0-.064.07-.128.13-.128h4.74c.06,0,.12.064.12.128v17.344c0,.128.07.128.13.064,2.5-3.648,6.53-5.76,11.59-5.76h0ZM302.298,210.161c6.85,0,10.94-4.992,10.94-12.352,0-7.488-4.09-12.48-10.94-12.48-6.79,0-11.14,4.992-11.14,12.48,0,7.36,4.35,12.352,11.14,12.352ZM358.948,214.578c-13.32,0-22.21-9.473-22.21-22.977s8.89-23.104,22.21-23.104c10.3,0,17.79,5.76,19.77,15.04,0,.064-.06.128-.13.128l-4.73.96c-.07,0-.13-.064-.13-.128-1.41-6.976-7.1-11.136-14.78-11.136-10.12,0-16.77,7.424-16.77,18.24,0,10.752,6.65,18.048,16.77,18.048,7.68,0,13.37-4.159,14.78-11.264,0-.064.06-.128.13-.128l4.86,1.024c.07,0,.13.064.13.128-2.05,9.344-9.54,15.169-19.9,15.169h0ZM412.848,214.578c-9.53,0-16.25-6.785-16.25-16.769,0-10.112,6.72-16.896,16.25-16.896,7.81,0,13.44,4.16,14.98,11.008,0,.064-.07.128-.13.128l-4.54,1.088c-.07,0-.13-.064-.13-.128-1.03-4.672-4.8-7.68-10.05-7.68-6.85,0-11.26,5.056-11.26,12.48,0,7.296,4.41,12.352,11.26,12.352,5.44,0,9.34-3.264,10.24-8.192,0-.064.06-.128.13-.128l4.54,1.088c.07,0,.13.064.13.128-1.41,7.168-7.17,11.521-15.17,11.521h0ZM448.458,169.265c0-.064.07-.128.13-.128h16.06c13.89,0,22.53,9.024,22.53,22.336s-8.64,22.465-22.53,22.465h-16.06c-.06,0-.13-.065-.13-.129v-44.544ZM453.768,209.137c0,.064.07.128.13.128h10.75c10.63,0,17.16-7.104,17.16-17.792s-6.53-17.664-17.16-17.664h-10.75c-.06,0-.13.064-.13.129v35.199ZM532.578,186.737c.06.128.12.128.12,0v-17.472c0-.064.07-.128.13-.128h4.74c.06,0,.13.064.13.128v44.544c0,.064-.07.129-.13.129h-4.74c-.06,0-.13-.065-.13-.129v-4.992c0-.128-.06-.128-.12,0-2.56,3.648-6.53,5.761-11.65,5.761-9.03,0-15.17-6.785-15.17-16.769,0-10.112,6.14-16.896,15.17-16.896,5.05,0,9.09,2.176,11.65,5.824ZM521.698,210.161c6.78,0,11.2-4.992,11.2-12.352,0-7.488-4.42-12.48-11.2-12.48s-10.88,4.992-10.88,12.48c0,7.36,4.09,12.352,10.88,12.352ZM591.598,169.137c.06,0,.12.064.12.128v4.352c0,.064-.06.128-.12.128h-25.35c-.06,0-.13.064-.13.128v14.912c0,.064.07.128.13.128h22.47c.06,0,.12.064.12.128v4.352c0,.064-.06.128-.12.128h-22.47c-.06,0-.13.064-.13.128v15.488c0,.064.07.128.13.128h25.35c.06,0,.12.064.12.128v4.416c0,.064-.06.129-.12.129h-30.66c-.06,0-.13-.065-.13-.129v-44.544c0-.064.07-.128.13-.128h30.66ZM624.598,180.913c10.17,0,15.23,6.976,14.97,17.92,0,.064-.06.128-.13.128h-25.08c-.07,0-.13.064-.13.128.45,7.424,4.41,11.456,10.81,11.456,4.68,0,8.32-2.112,9.8-6.08.06-.064.06-.128.19-.064l3.84,1.28c.06.064.13.064.13.128s-.07.129-.07.129c-2.11,5.503-7.23,8.64-13.89,8.64-9.66,0-15.87-6.465-15.87-16.769,0-9.984,6.21-16.896,15.43-16.896h0ZM624.718,184.945c-5.76,0-9.53,3.456-10.36,10.112,0,.065.06.128.12.128h20.04c.06,0,.12-.063.12-.192-.64-6.72-4.35-10.048-9.92-10.048ZM689.858,169.137c.06,0,.13.064.13.128v4.416c0,.064-.07.128-.13.128h-24.32c-.06,0-.13.064-.13.129v16.127c0,.064.07.128.13.128h22.53c.06,0,.13.064.13.128v4.416c0,.064-.07.128-.13.128h-22.53c-.06,0-.13.064-.13.128v18.816c0,.064-.06.129-.13.129h-5.05c-.07,0-.13-.065-.13-.129v-44.544c0-.064.06-.128.13-.128h29.63ZM726.598,167.217c.07,0,.13.064.13.128v3.904c0,.064-.06.128-.13.128h-12.16c-.06,0-.12.064-.12.128v9.92c0,.064.06.128.12.128h12.1c.06,0,.13.065.13.128v3.968c0,.064-.07.128-.13.128h-12.1c-.06,0-.12.064-.12.128v27.904c0,.064-.07.129-.13.129h-4.74c-.06,0-.13-.065-.13-.129v-42.496c0-.064.07-.128.07-.128l3.97-3.904s.06-.064.12-.064h13.12ZM767.588,196.977c-.06,0-.13-.064-.13-.128v-4.224c0-.064.07-.128.13-.128h17.79c.07,0,.13.064.13.128v21.184c0,.064-.06.129-.13.129h-4.48c-.06,0-.12-.065-.12-.129v-8.384c0-.128-.07-.128-.13,0-2.82,5.632-8.32,9.153-16.26,9.153-12.61,0-21.5-8.897-21.5-22.913,0-13.632,9.09-23.168,22.53-23.168,9.66,0,16.76,4.672,19.32,13.696v.128q0,.064-.06.064l-4.8,1.216c-.06,0-.13,0-.13-.064-1.79-6.912-7.42-10.176-14.27-10.176-10.5,0-17.15,7.36-17.15,18.24,0,11.264,6.72,18.368,16.83,18.368,8.32,0,13.82-5.056,14.72-12.864,0-.063-.06-.128-.13-.128h-12.16ZM831.498,186.545c.07.128.13.128.13,0v-4.864c0-.063.06-.128.13-.128h4.73c.07,0,.13.065.13.128v40.897c0,.064-.06.128-.06.128l-3.97,3.968s-.06.064-.13.064h-22.59c-.06,0-.13-.064-.13-.128v-3.904c0-.064.07-.128.13-.128h21.63c.07,0,.13-.064.13-.128v-14.273c0-.128-.06-.128-.13,0-2.56,3.584-6.53,5.696-11.65,5.696-9.02,0-15.16-6.656-15.16-16.448,0-9.92,6.14-16.512,15.16-16.512,5.06,0,9.09,2.048,11.65,5.632h0ZM820.618,209.521c6.79,0,11.2-4.864,11.2-12.096,0-7.296-4.41-12.224-11.2-12.224s-10.88,4.928-10.88,12.224c0,7.232,4.1,12.096,10.88,12.096ZM890.968,188.721c.06,0,.13-.064.13-.128v-19.328c0-.064.06-.128.12-.128h5c.06,0,.12.064.12.128v44.544c0,.064-.06.129-.12.129h-5c-.06,0-.12-.065-.12-.129v-20.288c0-.064-.07-.128-.13-.128h-25.73c-.06,0-.13.064-.13.128v20.288c0,.064-.06.129-.13.129h-5.05c-.07,0-.13-.065-.13-.129v-44.544c0-.064.06-.128.13-.128h5.05c.07,0,.13.064.13.128v19.328c0,.064.07.128.13.128h25.73ZM935.518,180.913c8.07,0,12.8,4.992,12.8,12.928v19.968c0,.064-.06.129-.12.129h-4.74c-.06,0-.13-.065-.13-.129v-19.136c0-5.824-3.45-9.472-8.96-9.472-5.37,0-9.79,3.392-9.79,11.2v17.408c0,.064-.06.129-.13.129h-4.73c-.07,0-.13-.065-.13-.129v-44.544c0-.064.06-.128.13-.128h4.73c.07,0,.13.064.13.128v16.832c0,.128.06.128.13,0,2.43-3.584,6.33-5.184,10.81-5.184ZM976.018,213.809c0,.064-.06.129-.12.129h-5.06c-.06,0-.13-.065-.13-.129v-44.544c0-.064.07-.128.13-.128h5.06c.06,0,.12.064.12.128v44.544ZM1001.678,175.217c-1.85,0-3.2-1.344-3.2-3.264s1.35-3.2,3.2-3.2c1.92,0,3.33,1.28,3.33,3.2s-1.41,3.264-3.33,3.264ZM1004.178,213.809c0,.064-.07.129-.13.129h-4.74c-.06,0-.12-.065-.12-.129v-32.128c0-.063.06-.128.12-.128h4.74c.06,0,.13.065.13.128v32.128ZM138.148,289.265c.07,0,.13-.064.13-.128v-39.872c0-.064.06-.128.13-.128h5.05c.07,0,.13.064.13.128v40.512c0,.064-.06.128-.06.128l-3.97,3.968s-.06.065-.13.065h-15.87c-.06,0-.13-.065-.13-.129v-4.416c0-.064.07-.128.13-.128h14.59ZM168.878,255.217c-1.92,0-3.2-1.344-3.2-3.264s1.28-3.2,3.2-3.2,3.33,1.28,3.33,3.2-1.41,3.264-3.33,3.264ZM171.308,261.553c.07,0,.13.065.13.128v44.929c0,.064-.06.128-.13.128h-4.73c-.07,0-.13-.064-.13-.128v-44.929c0-.063.06-.128.13-.128h4.73ZM205.198,270.897q-.07.064,0,.128l24.06,22.784c.13.129,0,.129-.06.129h-6.53c-.07,0-.13-.065-.13-.065l-22.46-21.184c-.07-.064-.13,0-.13.064v21.056c0,.064-.07.129-.13.129h-5.06c-.06,0-.12-.065-.12-.129v-44.544c0-.064.06-.128.12-.128h5.06c.06,0,.13.064.13.128v20.16c0,.064,0,.192.13.064l21.12-20.288s.06-.064.12-.064h6.47c.06,0,.19,0,.06.128l-22.65,21.632ZM256.588,276.209c-.06.064-.13.064-.06.128l17.34,17.472c.06.064,0,.129-.06.129h-5.83c-.06,0-.13-.065-.13-.065l-15.87-16.064c-.06-.064-.13,0-.13.064v15.936c0,.064-.06.129-.12.129h-4.74c-.06,0-.13-.065-.13-.129v-44.544c0-.064.07-.128.13-.128h4.74c.06,0,.12.064.12.128v25.536c0,.064.07.128.13.064l14.15-13.247s.06-.065.12-.065h6.02c.06,0,.19,0,.06.128l-15.74,14.528ZM297.168,249.137c.06,0,.13.064.13.128v39.872c0,.064.06.128.13.128h23.74c.06,0,.13.064.13.128v4.416c0,.064-.07.129-.13.129h-29.06c-.06,0-.12-.065-.12-.129v-44.544c0-.064.06-.128.12-.128h5.06ZM345.078,293.809c0,.064-.06.129-.13.129h-4.73c-.07,0-.13-.065-.13-.129v-44.544c0-.064.06-.128.13-.128h4.73c.07,0,.13.064.13.128v44.544ZM391.958,286.769q.06.064.12,0l15.36-37.44s0-.128.07-.128c0-.064.06-.064.13-.064h8.06c.06,0,.13.064.13.128v44.544c0,.064-.07.129-.13.129h-4.99c-.07,0-.13-.065-.13-.129v-38.912c0-.128-.06-.064-.13,0l-15.74,38.848s0,.128-.07.128c0,.065-.06.065-.12.065h-5c-.06,0-.12,0-.12-.065-.07-.064-.07-.128-.07-.128l-15.68-38.848c-.06-.064-.13-.128-.13,0v38.912c0,.064-.06.129-.12.129h-5.06c-.06,0-.13-.065-.13-.129v-44.544c0-.064.07-.128.13-.128h8.13c.06,0,.13,0,.13.064.06.064.06.128.06.128l15.3,37.44ZM478.608,260.913c8.13,0,12.87,4.992,12.87,12.928v19.968c0,.064-.07.129-.13.129h-4.67c-.07,0-.13-.065-.13-.129v-19.136c0-5.824-3.52-9.472-9.02-9.472-5.06,0-9.48,3.136-9.73,10.176v18.432c0,.064-.07.129-.13.129h-4.74c-.06,0-.12-.065-.12-.129v-19.136c0-5.824-3.46-9.472-8.96-9.472-5.38,0-9.8,3.392-9.8,11.2v17.408c0,.064-.06.129-.12.129h-4.74c-.06,0-.13-.065-.13-.129v-32.128c0-.063.07-.128.13-.128h4.74c.06,0,.12.065.12.128v4.8c0,.128.07.192.13.064,2.5-3.968,6.4-5.632,10.95-5.632,5.44,0,9.15,2.432,11.13,6.592,0,.128.13.128.19,0,2.5-4.544,7.17-6.592,12.16-6.592h0ZM545.428,249.265c0-.064.06-.128.12-.128h4.93c.07,0,.13.064.13.128v44.544c0,.064-.06.129-.13.129h-6.21c-.06,0-.12-.129-.12-.129l-24.9-36.864c-.06-.064-.13-.128-.13,0v36.864c0,.064-.06.129-.13.129h-4.99c-.06,0-.13-.065-.13-.129v-44.544c0-.064.07-.128.13-.128h6.08c.07,0,.13.128.13.128l25.09,37.12c.06.064.13.128.13,0v-37.12ZM589.848,260.913c8.06,0,12.8,4.992,12.8,12.928v19.968c0,.064-.07.129-.13.129h-4.74c-.06,0-.12-.065-.12-.129v-19.136c0-5.824-3.46-9.472-8.96-9.472-5.38,0-9.8,3.392-9.8,11.2v17.408c0,.064-.06.129-.12.129h-4.74c-.06,0-.13-.065-.13-.129v-32.128c0-.063.07-.128.13-.128h4.74c.06,0,.12.065.12.128v4.416c0,.128.07.128.13,0,2.43-3.584,6.34-5.184,10.82-5.184ZM644.808,294.578c-13.31,0-22.21-9.473-22.21-22.977s8.9-23.104,22.21-23.104,22.14,9.536,22.14,23.104-8.89,22.977-22.14,22.977ZM644.808,289.649c10.05,0,16.77-7.296,16.77-18.048,0-10.816-6.72-18.24-16.77-18.24-10.11,0-16.77,7.424-16.77,18.24,0,10.752,6.66,18.048,16.77,18.048ZM701.648,294.578c-9.47,0-16.25-6.785-16.25-16.769,0-10.112,6.78-16.896,16.25-16.896s16.19,6.784,16.19,16.896c0,9.984-6.72,16.769-16.19,16.769ZM701.648,290.161c6.85,0,11.2-4.928,11.2-12.352,0-7.488-4.35-12.48-11.2-12.48-6.78,0-11.13,4.992-11.13,12.48,0,7.424,4.35,12.352,11.13,12.352ZM738.388,249.265c0-.064.06-.128.12-.128h17.41c10.31,0,15.75,6.464,15.75,14.208,0,8-5.44,14.336-15.75,14.336h-12.09c-.07,0-.13.064-.13.128v16c0,.064-.07.129-.13.129h-5.06c-.06,0-.12-.065-.12-.129v-44.544ZM743.698,272.945c0,.064.06.128.13.128h11.9c6.66,0,10.62-3.776,10.62-9.728,0-5.76-3.96-9.6-10.62-9.6h-11.9c-.07,0-.13.064-.13.128v19.072ZM807.938,260.913c9.03,0,15.17,6.784,15.17,16.896,0,9.984-6.14,16.769-15.17,16.769-4.99,0-9.02-2.113-11.58-5.697-.07-.128-.13-.128-.13,0v17.729c0,.064-.06.128-.13.128h-4.73c-.07,0-.13-.064-.13-.128v-44.929c0-.063.06-.128.13-.128h4.73c.07,0,.13.065.13.128v4.928c0,.128.06.128.13.064,2.49-3.648,6.53-5.76,11.58-5.76h0ZM807.168,290.161c6.85,0,10.95-4.992,10.95-12.352,0-7.488-4.1-12.48-10.95-12.48-6.78,0-11.13,4.992-11.13,12.48,0,7.36,4.35,12.352,11.13,12.352ZM874.188,292.273c-.06.064-.06.128-.06.192l2.56,6.017c0,.064.12.128.19.128h8.96c.06,0,.13.064.13.128v4.096c0,.064-.07.128-.13.128h-9.99c-.06,0-.12-.064-.12-.064l-4.29-4.288-.07-.064v-.128l-1.85-4.352c0-.064-.13-.128-.19-.128-1.67.448-3.59.64-5.51.64-13.31,0-22.21-9.473-22.21-22.977s8.9-23.104,22.21-23.104,22.15,9.536,22.15,23.104c0,9.536-4.42,17.088-11.78,20.672h0ZM847.048,271.601c0,10.752,6.66,18.048,16.77,18.048,10.05,0,16.77-7.296,16.77-18.048,0-10.816-6.72-18.24-16.77-18.24-10.11,0-16.77,7.424-16.77,18.24ZM931.288,266.737c.06.128.13.128.13,0v-5.056c0-.063.06-.128.12-.128h4.74c.06,0,.13.065.13.128v44.929c0,.064-.07.128-.13.128h-4.74c-.06,0-.12-.064-.12-.128v-17.793c0-.128-.07-.128-.13,0-2.56,3.648-6.53,5.761-11.65,5.761-9.02,0-15.17-6.785-15.17-16.769,0-10.112,6.15-16.896,15.17-16.896,5.06,0,9.09,2.176,11.65,5.824ZM920.408,290.161c6.78,0,11.2-4.992,11.2-12.352,0-7.488-4.42-12.48-11.2-12.48s-10.88,4.992-10.88,12.48c0,7.36,4.09,12.352,10.88,12.352ZM992.798,293.809c.07.129,0,.129-.06.129h-6.21c-.06,0-.13-.129-.13-.129l-12.93-17.152c0-.064-.12-.064-.19-.064h-8.25c-.07,0-.13.064-.13.128v17.088c0,.064-.07.129-.13.129h-5.06c-.06,0-.12-.065-.12-.129v-44.544c0-.064.06-.128.12-.128h17.73c9.28,0,14.98,5.568,14.98,13.696,0,7.488-4.93,12.8-13.06,13.568q-.13,0-.06.128l13.5,17.28ZM976.608,253.745h-11.58c-.07,0-.13.064-.13.128v17.984c0,.064.06.128.13.128h11.58c6.59,0,10.43-3.392,10.43-9.152,0-5.568-3.77-9.088-10.43-9.088h0ZM1017.988,266.929c0,.128.07.128.13.064,2.62-4.736,6.91-6.656,12.8-5.76.06,0,.13.064.13.128v4.544c0,.064-.07.128-.13.128-9.28-1.664-12.93,3.712-12.93,14.208v13.568c0,.064-.06.129-.13.129h-4.73c-.07,0-.13-.065-.13-.129v-32.128c0-.063.06-.128.13-.128h4.73c.07,0,.13.065.13.128v5.248ZM143.458,374.578c-10.17,0-17.15-5.121-18.49-13.505,0-.064.06-.128.13-.128l4.86-1.024c.06,0,.13.064.13.128.89,6.336,5.95,9.984,13.69,9.984,7.04,0,11.01-3.072,11.01-8,0-13.248-28.99-1.984-28.99-20.736,0-7.68,6.34-12.8,16.13-12.8,9.21,0,15.1,4.416,16.45,11.584,0,.065-.07.128-.13.128l-4.74.96c-.06,0-.13-.064-.13-.127-1.02-5.185-4.86-8.065-11.52-8.065s-10.88,3.008-10.88,7.808c0,14.272,28.87,2.624,28.87,20.544,0,8.064-6.02,13.249-16.39,13.249h0ZM191.338,374.578c-7.3,0-12.42-3.137-13.96-8.897,0-.064.07-.191.13-.191l4.42-1.153c.06,0,.13.064.13.128,1.02,4.352,4.54,6.272,9.47,6.272,4.54,0,7.62-1.408,7.62-5.632,0-9.088-20.87-.96-20.87-14.592,0-6.784,5.57-9.6,12.22-9.6,7.11,0,11.46,2.88,12.87,8.32,0,.064-.06.192-.13.192l-4.29,1.088c-.06,0-.13,0-.13-.064-.95-3.904-3.9-5.632-8.44-5.632-3.72,0-7.43,1.408-7.43,5.44,0,9.024,21.06.896,21.06,14.4,0,6.528-5.12,9.921-12.67,9.921h0ZM212.778,329.265c0-.064.07-.128.13-.128h36.8c.06,0,.13.064.13.128v4.416c0,.064-.07.128-.13.128h-15.62c-.06,0-.12.064-.12.129v39.871c0,.064-.07.129-.13.129h-5.06c-.06,0-.13-.065-.13-.129v-39.871c0-.065-.06-.129-.12-.129h-15.62c-.06,0-.13-.064-.13-.128v-4.416ZM272.908,345.777c-.06,0-.12.064-.12.128v23.68c0,.064.06.129.12.129h12.16c.07,0,.13.063.13.127v3.968c0,.064-.06.129-.13.129h-13.05c-.07,0-.13-.065-.13-.065l-3.9-3.968s-.07-.064-.07-.128v-37.696c0-.064.07-.128.13-.128h4.61c.06,0,.13.064.13.128v9.344c0,.064.06.128.12.128h12.1c.06,0,.13.065.13.128v3.968c0,.064-.07.128-.13.128h-12.1ZM322.328,374.578c-10.05,0-17.79-5.761-17.79-17.345v-27.968c0-.064.06-.128.13-.128h4.99c.06,0,.13.064.13.128v27.52c0,8.96,5.57,12.992,12.54,12.992,7.04,0,12.61-4.032,12.61-12.992v-27.52c0-.064.06-.128.13-.128h5.05c.07,0,.13.064.13.128v27.968c0,11.584-7.81,17.345-17.92,17.345ZM385.698,359.153v-17.472c0-.063.06-.128.12-.128h4.68c.06,0,.12.065.12.128v32.128c0,.064-.06.129-.12.129h-4.68c-.06,0-.12-.065-.12-.129v-4.16c0-.128-.07-.128-.13,0-2.5,3.456-6.34,4.929-10.75,4.929-8.07,0-12.87-4.929-12.87-12.865v-20.032c0-.063.07-.128.13-.128h4.67c.07,0,.13.065.13.128v19.136c0,5.888,3.52,9.472,9.02,9.472,5.32,0,9.8-3.328,9.8-11.136h0ZM442.448,329.329s0-.128.06-.128c0-.064.06-.064.13-.064h5.37c.07,0,.07.064.07.128l-17.6,44.48s0,.128-.07.128c0,.065-.06.065-.12.065h-6.34c-.06,0-.13,0-.13-.065-.06-.064-.06-.128-.06-.128l-17.54-44.48c0-.064,0-.128.07-.128h5.37c.07,0,.13,0,.13.064.06.064.06.128.06.128l15.24,38.656q.06.064.12,0l15.24-38.656ZM477.718,368.689q.07.064.13,0l11.07-26.944s0-.127.07-.127c0-.065.06-.065.13-.065h4.73c.07,0,.13.065.13.128l-13.38,32.064s0,.128-.06.128c0,.065-.06.065-.13.065h-5.31c-.06,0-.13,0-.13-.065-.06-.064-.06-.128-.06-.128l-13.44-32.064c0-.063.06-.128.13-.128h4.92c.07,0,.13,0,.13.065.07.063.07.127.07.127l11,26.944ZM552.288,366.577c0,.128.13.128.13,0l10.24-37.248v-.128q.07-.064.13-.064h5.18q.07,0,.07.128l-12.42,44.48v.128q-.06.065-.13.065h-6.08q-.06,0-.12-.065v-.128l-10.82-37.952c0-.128-.13-.128-.13,0l-10.88,37.952v.128q-.06.065-.13.065h-6.08q-.06,0-.12-.065v-.128l-12.42-44.48q0-.128.06-.128h5.32q.06,0,.12.064v.128l10.18,37.376c0,.128.13.128.13,0l10.62-37.376v-.128q.07-.064.13-.064h6.34q.06,0,.12.064v.128l10.56,37.248ZM619.428,367.665c0,.064.13.064.13,0l8.44-25.92s0-.127.07-.127c0-.065.06-.065.13-.065h5.18c.06,0,.06.065.06.128l-10.94,32.064s0,.128-.06.128c0,.065-.07.065-.13.065h-5.31c-.07,0-.13,0-.13-.065-.07-.064-.07-.128-.07-.128l-8.57-26.048c0-.064-.13-.064-.13,0l-8.45,26.048s0,.128-.06.128c0,.065-.07.065-.13.065h-5.31c-.07,0-.13,0-.13-.065-.06-.064-.06-.128-.06-.128l-10.88-32.064c0-.063,0-.128.06-.128h5.12c.06,0,.13,0,.13.065.06.063.06.127.06.127l8.39,25.984c0,.064.12.064.12,0l8.39-25.984s0-.127.06-.127c0-.065.07-.065.13-.065h5.25c.06,0,.13,0,.13.065.06.063.06.127.06.127l8.45,25.92ZM664.748,352.881q.07.128.13,0l13.57-23.616c0-.064.06-.128.13-.128h5.82c.07,0,.19,0,.13.128l-16.96,28.864c0,.064-.06.064-.06.128v15.552c0,.064-.07.129-.13.129h-5.06c-.06,0-.13-.065-.13-.129v-15.488c0-.064-.06-.064-.06-.128l-16.96-28.928c-.06-.128.06-.128.13-.128h5.76c.06,0,.13.064.13.128l13.56,23.616ZM722.468,350.961v.128l16.96,22.72c.07.129,0,.129-.06.129h-6.15c-.06,0-.12-.129-.12-.129l-14.21-19.456q-.07-.128-.13,0l-14.21,19.456s-.06.129-.13.129h-6.08c-.06,0-.12,0-.06-.129l16.96-22.72v-.128l-16-21.696c-.06-.128,0-.128.06-.128h6.21c.07,0,.13.128.13.128l13.18,18.432q.07.128.13,0l13.25-18.432s.06-.128.13-.128h6.01c.07,0,.13,0,.07.128l-15.94,21.696ZM772.208,357.361v.129l12.16,16.319c.07.129,0,.129-.06.129h-5.63c-.07,0-.13-.129-.13-.129l-9.79-13.248c-.07-.064-.07-.128-.13,0l-9.66,13.248s-.07.129-.13.129h-5.38c-.06,0-.13,0-.06-.129l12.29-16.319v-.129l-11.97-15.68c-.07-.128,0-.128.06-.128h5.44c.07,0,.13.128.13.128l9.54,12.736q.06.064.12,0l9.41-12.736s.07-.128.13-.128h5.5c.07,0,.13,0,.07.128l-11.91,15.68ZM815.398,352.881q.07.128.13,0l13.57-23.616c0-.064.06-.128.13-.128h5.82c.07,0,.19,0,.13.128l-16.96,28.864c0,.064-.06.064-.06.128v15.552c0,.064-.07.129-.13.129h-5.06c-.06,0-.13-.065-.13-.129v-15.488c0-.064-.06-.064-.06-.128l-16.96-28.928c-.06-.128.06-.128.13-.128h5.76c.06,0,.13.064.13.128l13.561,23.616ZM872.088,356.849v-15.168c0-.063.06-.128.13-.128h4.73c.07,0,.13.065.13.128v40.897c0,.064-.06.128-.06.128l-3.97,3.968s-.07.064-.13.064h-21.18c-.07,0-.13-.064-.13-.128v-3.904c0-.064.06-.128.13-.128h20.22c.06,0,.13-.064.13-.128v-15.169c0-.128-.07-.128-.13,0-2.56,3.712-6.34,5.44-10.94,5.44-7.43,0-12.87-4.48-12.87-12.864v-18.176c0-.063.07-.128.13-.128h4.61c.06,0,.13.065.13.128v17.664c0,6.336,4.03,9.088,8.96,9.088,5.63,0,10.11-3.776,10.11-11.584h0ZM902.988,369.201c-.06.128,0,.128.06.128h27.65c.07,0,.13.064.13.128v4.352c0,.064-.06.129-.13.129h-34.17c-.07,0-.13-.065-.13-.129v-3.968c0-.064.06-.127.06-.127l27.39-35.841c.07-.128,0-.128-.06-.128h-27.26c-.07,0-.13-.064-.13-.128v-4.352c0-.064.06-.128.13-.128h33.85c.07,0,.13.064.13.128v3.968c0,.064-.06.128-.06.128l-27.46,35.84ZM954.468,369.521c-.06.128,0,.128.07.128h19.77c.07,0,.13.065.13.128v4.032c0,.064-.06.129-.13.129h-26.04c-.07,0-.13-.065-.13-.129v-3.52c0-.064.06-.128.06-.128l19.2-24.128c.07-.128,0-.128-.06-.128h-19.01c-.06,0-.13-.064-.13-.128v-4.096c0-.063.07-.128.13-.128h25.34c.07,0,.13.065.13.128v3.52c0,.064-.06.128-.06.128l-19.27,24.192Z"></path><path d="M137.978,555.37c0,.112-.12.224-.23.224h-5.43c-.11,0-.22-.112-.22-.224v-33.656c0-.056-.06-.112-.12-.112h-8.23c-.11,0-.22-.112-.22-.224v-4.76c0-.112.11-.224.22-.224h14c.11,0,.23.112.23.224v38.752ZM213.108,550.106c0,.056.05.112.11.112h20.5c.11,0,.22.112.22.224v4.928c0,.112-.11.224-.22.224h-26.72c-.11,0-.22-.112-.22-.224v-3.976c0-16.016,20.83-12.6,20.83-23.52,0-4.032-2.85-6.776-7.33-6.776-4.71,0-7.79,2.52-8.46,7.168-.06.112-.11.168-.22.168h-.12l-4.98-1.344c-.11-.056-.22-.112-.22-.28,1-7,6.38-10.976,14-10.976,8.34,0,13.21,5.04,13.21,11.76,0,14.56-20.38,11.928-20.38,22.12v.392ZM327.308,521.154c0,.112-.06.224-.11.28l-11.32,11.368c-.05.056,0,.112.06.112,7.67.392,12.04,4.592,12.04,11.312,0,7.056-5.54,11.928-13.89,11.928-7.11,0-12.99-3.024-14.73-9.632-.05-.168.06-.224.17-.28l4.99-1.904c.11-.056.22,0,.28.168,1.23,4.2,4.31,6.552,9.29,6.552s8.07-2.688,8.07-6.776c0-4.2-3.03-6.664-8.85-6.664h-4.59c-.12,0-.23,0-.28-.168l-.9-3.192c0-.112,0-.224.06-.28l12.09-12.096c.11-.112,0-.112-.05-.112h-18.15c-.11,0-.22-.112-.22-.224v-4.928c0-.112.11-.224.22-.224h25.59c.12,0,.23.112.23.224v4.536ZM419.218,540.754c0,.056.05.112.11.112h5.6c.11,0,.22.112.22.224v4.704c0,.112-.11.224-.22.224h-5.6c-.06,0-.11.056-.11.112v9.24c0,.112-.11.224-.23.224h-5.09c-.11,0-.23-.112-.23-.224v-9.24c0-.056-.05-.112-.11-.112h-19.32c-.11,0-.22-.112-.22-.224v-4.592c0-.112.05-.224.11-.28l17.14-24.36c.05-.056.16-.168.28-.168h7.44c.12,0,.23.112.23.224v24.136ZM413.668,522.162c0-.112-.05-.112-.11-.056l-13.16,18.648c-.05.112,0,.112.06.112h13.1c.06,0,.11-.056.11-.112v-18.592ZM506.708,529.722c7.56,0,12.32,5.152,12.32,12.88,0,8.288-5.44,13.552-14.4,13.552-7.39,0-12.71-3.808-14.22-9.968-.06-.112,0-.224.11-.28h.11l5.38-1.232c.11,0,.22,0,.28.168.95,4.256,4.26,6.44,8.51,6.44,5.32,0,8.57-3.696,8.57-8.624,0-5.096-3.42-8.344-8.12-8.344-3.86,0-6.89,2.016-8.06,5.208-.06.168-.12.224-.28.168l-5.21-1.008c-.17-.056-.23-.168-.23-.28l2.75-21.784c0-.168.11-.224.22-.224h22.91c.11,0,.22.112.22.224v4.872c0,.112-.11.224-.22.224h-18.32c-.05,0-.11,0-.11.112l-1.57,11.816c0,.112,0,.168.06.112,1.9-2.52,5.26-4.032,9.3-4.032h0ZM600.848,529.61c7.78,0,13.38,5.432,13.38,13.048,0,8.064-5.99,13.496-14.67,13.496-8.57,0-14.51-5.376-14.51-13.496,0-3.64,1.35-7.168,3.92-10.696l11.32-15.4s.05-.112.11-.112c.05-.056.11-.056.22-.056h6.55c.17,0,.23.168.12.28l-10.7,13.496c-.06.056-.06.112.06.112,1.4-.448,2.74-.672,4.2-.672h0ZM599.608,551.002c5.32,0,8.74-3.08,8.74-8.232,0-5.208-3.42-8.4-8.57-8.4-5.37,0-8.85,3.36-8.85,8.4,0,5.152,3.42,8.232,8.68,8.232h0ZM678.688,521.77c-.11,0-.22-.112-.22-.224v-4.928c0-.112.11-.224.22-.224h26.82c.12,0,.23.112.23.224v3.92c-.06.056-.11.056-.11.112l-16.64,34.776c-.05.112-.11.168-.22.168h-5.94c-.16,0-.22-.112-.16-.28l16.4-33.432c.06-.112-.05-.112-.11-.112h-20.27ZM793.628,534.93c-.06,0-.06.112,0,.112,4.25,1.568,7,5.096,7,9.688,0,6.776-5.77,11.424-14.79,11.424s-14.78-4.648-14.78-11.424c0-4.592,2.74-8.064,7-9.688.05,0,.05-.112,0-.112-3.36-1.456-5.55-4.424-5.55-8.512,0-6.328,5.16-10.584,13.33-10.584,8.12,0,13.33,4.2,13.33,10.584,0,4.088-2.13,7.056-5.54,8.512h0ZM785.838,520.538c-4.81,0-7.89,2.128-7.89,6.104,0,3.864,3.19,6.16,7.89,6.16s7.95-2.296,7.95-6.16c0-3.976-3.08-6.104-7.95-6.104ZM785.838,551.114c5.55,0,8.96-2.632,8.96-6.832,0-4.312-3.69-6.832-8.96-6.832-5.32,0-8.9,2.576-8.9,6.832s3.47,6.832,8.9,6.832ZM880.838,515.834c8.57,0,14.5,5.376,14.5,13.44,0,3.64-1.34,7.168-3.92,10.696l-11.36,15.512c-.06.112-.17.112-.28.112h-6.56c-.16,0-.22-.168-.11-.28l10.7-13.496c.05-.056.05-.168-.06-.168-1.34.448-2.8.672-4.2.672-7.78,0-13.38-5.376-13.38-12.992,0-8.12,5.99-13.496,14.67-13.496h0ZM880.618,537.562c5.37,0,8.84-3.304,8.84-8.344,0-5.208-3.41-8.288-8.68-8.288-5.32,0-8.73,3.08-8.73,8.288s3.41,8.344,8.57,8.344h0ZM976.998,515.834c9.29,0,14.95,5.768,14.95,16.072v7.728c0,10.528-5.55,16.52-14.95,16.52s-14.9-5.992-14.9-16.52v-7.728c0-10.248,5.6-16.072,14.9-16.072ZM976.998,521.378c-5.83,0-8.8,3.584-8.8,10.808v7.168c0,7.504,2.97,11.256,8.8,11.256,5.88,0,8.9-3.752,8.9-11.256v-7.168c0-7.224-3.02-10.808-8.9-10.808Z"></path><path class="st6" d="M132.778,127.39c-.03,0-.05-.024-.05-.048v-1.584c0-.024.02-.048.05-.048h6.67c.02,0,.05.024.05.048v7.944c0,.024-.03.048-.05.048h-1.68c-.03,0-.05-.024-.05-.048v-3.144c0-.048-.02-.048-.05,0-1.05,2.112-3.12,3.432-6.09,3.432-4.73,0-8.07-3.336-8.07-8.592,0-5.112,3.41-8.688,8.45-8.688,3.62,0,6.29,1.752,7.25,5.136v.048q0,.024-.03.024l-1.8.456c-.02,0-.04,0-.04-.024-.68-2.592-2.79-3.816-5.36-3.816-3.93,0-6.43,2.76-6.43,6.84,0,4.224,2.52,6.888,6.31,6.888,3.12,0,5.19-1.896,5.52-4.824,0-.024-.02-.048-.04-.048h-4.56ZM148.438,116.95c.02,0,.05.024.05.048v14.952c0,.024.02.048.04.048h8.91c.02,0,.05.024.05.048v1.656c0,.024-.03.048-.05.048h-10.9c-.02,0-.05-.024-.05-.048v-16.704c0-.024.03-.048.05-.048h1.9ZM166.208,125.854q.02.048.04,0l5.09-8.856c0-.024.03-.048.05-.048h2.18c.03,0,.08,0,.05.048l-6.36,10.824c0,.024-.02.024-.02.048v5.832c0,.024-.03.048-.05.048h-1.9c-.02,0-.04-.024-.04-.048v-5.808c0-.024-.03-.024-.03-.048l-6.36-10.848c-.02-.048.03-.048.05-.048h2.16c.02,0,.05.024.05.048l5.09,8.856ZM179.468,116.998c0-.024.03-.048.05-.048h6.53c3.86,0,5.9,2.424,5.9,5.328,0,3-2.04,5.376-5.9,5.376h-4.54c-.02,0-.04.024-.04.048v6c0,.024-.03.048-.05.048h-1.9c-.02,0-.05-.024-.05-.048v-16.704ZM181.468,125.878c0,.024.02.048.04.048h4.47c2.49,0,3.98-1.416,3.98-3.648,0-2.16-1.49-3.6-3.98-3.6h-4.47c-.02,0-.04.024-.04.048v7.152ZM209.968,124.294c.03,0,.05-.024.05-.048v-7.248c0-.024.03-.048.05-.048h1.87c.03,0,.05.024.05.048v16.704c0,.024-.02.048-.05.048h-1.87c-.02,0-.05-.024-.05-.048v-7.608c0-.024-.02-.048-.05-.048h-9.64c-.03,0-.05.024-.05.048v7.608c0,.024-.03.048-.05.048h-1.9c-.02,0-.04-.024-.04-.048v-16.704c0-.024.02-.048.04-.048h1.9c.02,0,.05.024.05.048v7.248c0,.024.02.048.05.048h9.64ZM225.578,133.99c-3.82,0-6.44-1.92-6.94-5.064,0-.024.02-.048.05-.048l1.82-.384c.03,0,.05.024.05.048.34,2.376,2.23,3.744,5.14,3.744,2.64,0,4.12-1.152,4.12-3,0-4.968-10.87-.744-10.87-7.776,0-2.88,2.38-4.8,6.05-4.8,3.46,0,5.66,1.656,6.17,4.344,0,.024-.03.048-.05.048l-1.78.36c-.02,0-.04-.024-.04-.048-.39-1.944-1.83-3.024-4.32-3.024s-4.08,1.128-4.08,2.928c0,5.352,10.82.984,10.82,7.704,0,3.024-2.26,4.968-6.14,4.968h0Z"></path><path class="st6" d="M136.298,465.842c0-.024.03-.048.05-.048h1.85c.02,0,.05.024.05.048v16.704c0,.024-.03.048-.05.048h-2.33c-.02,0-.05-.048-.05-.048l-9.33-13.824c-.03-.024-.05-.048-.05,0v13.824c0,.024-.02.048-.05.048h-1.87c-.02,0-.05-.024-.05-.048v-16.704c0-.024.03-.048.05-.048h2.28c.02,0,.05.048.05.048l9.41,13.92c.02.024.04.048.04,0v-13.92ZM152.528,482.834c-3.77,0-6.67-2.16-6.67-6.504v-10.488c0-.024.02-.048.05-.048h1.87c.02,0,.05.024.05.048v10.32c0,3.36,2.08,4.872,4.7,4.872,2.64,0,4.73-1.512,4.73-4.872v-10.32c0-.024.02-.048.05-.048h1.89c.03,0,.05.024.05.048v10.488c0,4.344-2.93,6.504-6.72,6.504h0ZM175.708,479.906q.02.024.05,0l5.76-14.04s0-.048.02-.048c0-.024.02-.024.05-.024h3.02c.03,0,.05.024.05.048v16.704c0,.024-.02.048-.05.048h-1.87c-.02,0-.05-.024-.05-.048v-14.592c0-.048-.02-.024-.05,0l-5.9,14.568s0,.048-.02.048c0,.024-.03.024-.05.024h-1.87c-.03,0-.05,0-.05-.024-.03-.024-.03-.048-.03-.048l-5.88-14.568c-.02-.024-.04-.048-.04,0v14.592c0,.024-.03.048-.05.048h-1.9c-.02,0-.05-.024-.05-.048v-16.704c0-.024.03-.048.05-.048h3.05c.02,0,.05,0,.05.024.02.024.02.048.02.048l5.74,14.04ZM201.988,474.002c-.05,0-.05.048,0,.048,2.13.576,3.45,2.016,3.45,4.032,0,2.688-2.06,4.512-5.78,4.512h-7.22c-.03,0-.05-.024-.05-.048v-16.704c0-.024.02-.048.05-.048h7.24c3.44,0,5.16,1.656,5.16,4.272,0,1.92-1.1,3.312-2.85,3.936ZM202.848,470.33c0-1.776-1.17-2.808-3.36-2.808h-5.06c-.03,0-.05.024-.05.048v5.592c0,.024.02.048.05.048h5.23c1.82,0,3.19-1.152,3.19-2.88h0ZM194.378,480.842c0,.024.02.048.05.048h5.13c2.5,0,3.87-1.224,3.87-3.12,0-1.776-1.56-2.88-3.63-2.88h-5.37c-.03,0-.05.024-.05.048v5.904ZM223.698,465.794c.03,0,.05.024.05.048v1.632c0,.024-.02.048-.05.048h-9.5c-.02,0-.05.024-.05.048v5.592c0,.024.03.048.05.048h8.42c.03,0,.05.024.05.048v1.632c0,.024-.02.048-.05.048h-8.42c-.02,0-.05.024-.05.048v5.808c0,.024.03.048.05.048h9.5c.03,0,.05.024.05.048v1.656c0,.024-.02.048-.05.048h-11.49c-.03,0-.05-.024-.05-.048v-16.704c0-.024.02-.048.05-.048h11.49ZM242.978,482.546c.03.048,0,.048-.02.048h-2.33c-.02,0-.05-.048-.05-.048l-4.85-6.432c0-.024-.04-.024-.07-.024h-3.09c-.03,0-.05.024-.05.048v6.408c0,.024-.03.048-.05.048h-1.9c-.02,0-.04-.024-.04-.048v-16.704c0-.024.02-.048.04-.048h6.65c3.48,0,5.62,2.088,5.62,5.136,0,2.808-1.85,4.8-4.9,5.088q-.05,0-.02.048l5.06,6.48ZM236.908,467.522h-4.34c-.03,0-.05.024-.05.048v6.744c0,.024.02.048.05.048h4.34c2.47,0,3.91-1.272,3.91-3.432,0-2.088-1.41-3.408-3.91-3.408ZM255.498,482.834c-3.82,0-6.43-1.92-6.94-5.064,0-.024.03-.048.05-.048l1.82-.384c.03,0,.05.024.05.048.34,2.376,2.23,3.744,5.14,3.744,2.64,0,4.13-1.152,4.13-3,0-4.968-10.88-.744-10.88-7.776,0-2.88,2.38-4.8,6.05-4.8,3.46,0,5.67,1.656,6.17,4.344,0,.024-.02.048-.05.048l-1.77.36c-.03,0-.05-.024-.05-.048-.39-1.944-1.83-3.024-4.32-3.024s-4.08,1.128-4.08,2.928c0,5.352,10.82.984,10.82,7.704,0,3.024-2.25,4.968-6.14,4.968h0Z"></path></svg> 